<svg width="24" height="24" viewBox="0 0 24 24" fill="none" xmlns="http://www.w3.org/2000/svg">
<g clip-path="url(#clip0_1_3077)">
<path d="M4.22715 16.5362C4.46839 16.4156 4.93642 16.1823 4.93642 15.351C4.93642 14.7544 4.57384 13.8667 3.15458 13.8667H0.342773V19.6543H2.79344C3.97869 19.6543 4.29288 19.4528 4.62296 19.1285C4.92775 18.8323 5.12132 18.3953 5.12132 17.9381C5.12132 17.3654 4.93642 16.8013 4.22715 16.5362ZM1.50419 14.8685H2.89095C3.43843 14.8685 3.77718 15.0129 3.77718 15.4882C3.77718 15.949 3.39943 16.1339 2.92201 16.1339H1.50419V14.8685ZM2.98557 18.6546H1.50419V17.1068H3.04335C3.4796 17.1068 3.91369 17.3025 3.91369 17.8081C3.91224 18.3953 3.57349 18.6546 2.98557 18.6546Z" fill="#5B6460"/>
<path d="M0.34375 20.5708V21.0966H1.23937V23.5357H1.85691V21.0966H2.75469V20.5708H0.34375Z" fill="#5B6460"/>
<path d="M20.2713 16.2365L22.6331 13.866H21.0701L18.8614 16.2184V13.866H17.6523V19.6521H18.8614V17.694L19.4255 17.1133L21.2139 19.6521H22.7696L20.2713 16.2365Z" fill="#5B6460"/>
<path d="M8.928 13.866H7.53402L5.47266 19.6528H6.7453L7.1476 18.4611H9.28336L9.65461 19.6521H10.9677L8.928 13.866ZM7.46974 17.46L8.21151 15.1718H8.22812L8.94462 17.46H7.46974Z" fill="#5B6460"/>
<path d="M14.3223 2.52634C13.9597 2.09803 13.5603 1.69862 13.0908 1.35265C12.8583 1.17786 12.6098 1.01679 12.3375 0.872336C12.063 0.730771 11.7821 0.594262 11.4462 0.500366C11.452 0.849223 11.5127 1.15619 11.5842 1.45665C11.6521 1.74845 11.7438 2.02219 11.8507 2.2851C11.595 2.36022 11.2844 2.46567 10.9348 2.60145C10.7088 2.70257 10.461 2.79358 10.2111 2.92864C9.95761 3.04999 9.70048 3.19733 9.43974 3.36201C9.17467 3.51152 8.92765 3.72387 8.66835 3.90732C8.43217 4.13195 8.17288 4.32624 7.96269 4.5812C7.74529 4.82533 7.53294 5.06946 7.36899 5.34681C7.28593 5.48187 7.18986 5.60683 7.12053 5.74478C7.05408 5.8849 6.99052 6.0243 6.9284 6.16009C6.78756 6.423 6.72328 6.70613 6.6496 6.96398C6.56221 7.21966 6.53115 7.47029 6.50732 7.70142C6.48781 7.93182 6.43942 8.1355 6.45098 8.32329C6.45676 8.50819 6.46109 8.66854 6.46542 8.80144C6.47337 9.06362 6.47554 9.21313 6.47554 9.21313C6.47554 9.21313 6.5037 9.06507 6.55137 8.80721C6.57521 8.67937 6.60482 8.52553 6.63877 8.34785C6.66549 8.17089 6.75722 7.9831 6.82078 7.77581C6.88868 7.56852 6.9674 7.3475 7.09741 7.13515C7.21587 6.9192 7.32348 6.6859 7.49827 6.48439C7.577 6.3811 7.6579 6.27421 7.73807 6.16803C7.82257 6.06475 7.93091 5.97591 8.02409 5.87912C8.20754 5.67906 8.43145 5.51727 8.65319 5.35692C8.86481 5.18863 9.12266 5.07524 9.34584 4.93728C9.60008 4.83544 9.82399 4.70832 10.0739 4.63465C10.3122 4.54798 10.547 4.47503 10.7767 4.42302C10.9998 4.35802 11.2245 4.32913 11.4202 4.28724C11.5459 4.26918 11.6614 4.25401 11.7727 4.24029C11.7597 4.27351 11.746 4.30529 11.7344 4.33924C11.6203 4.65198 11.5314 4.98062 11.4693 5.32659C11.4412 5.5021 11.418 5.67978 11.4 5.86107C11.3855 6.04525 11.3827 6.23593 11.3957 6.43672C11.5842 6.36449 11.7553 6.28287 11.9179 6.19403C12.0746 6.10231 12.2284 6.00697 12.3751 5.90874C12.6661 5.70867 12.9283 5.49126 13.1652 5.25869C13.6448 4.79499 14.0413 4.27713 14.3743 3.72025L14.4169 3.64947C14.6213 3.3035 14.5975 2.85064 14.3223 2.52634Z" fill="#5B6460"/>
<path d="M5.47357 22.8654C5.47357 22.3122 5.34068 22.2212 5.09727 22.1143C5.39051 22.0153 5.55591 21.7358 5.55591 21.4072C5.55591 21.1515 5.41218 20.5701 4.62346 20.5701H3.12402V23.5335H3.73218V22.3743H4.37139C4.83003 22.3743 4.85531 22.5318 4.85531 22.9348C4.85531 23.2396 4.87914 23.3942 4.92031 23.5328H5.60575V23.4555C5.47357 23.4064 5.47357 23.2981 5.47357 22.8654ZM4.45589 21.8767H3.73145V21.0822H4.50284C4.86542 21.0822 4.9362 21.3118 4.9362 21.47C4.93548 21.7618 4.77947 21.8767 4.45589 21.8767Z" fill="#5B6460"/>
<path d="M16.8571 21.0966V20.5708H14.748V23.5364H15.3678V22.2898H16.6722V21.7654H15.3678V21.0966H16.8571Z" fill="#5B6460"/>
<path d="M17.8801 23.0099V22.2443H19.3247V21.72H17.8801V21.0974H19.454V20.5723H17.2734V23.5357H19.5233V23.0099H17.8801Z" fill="#5B6460"/>
<path d="M13.5001 21.8457L12.7793 21.668C12.6551 21.6384 12.4644 21.5886 12.4644 21.3575C12.4644 21.0895 12.7468 21.0035 12.9808 21.0035C13.5225 21.0035 13.5724 21.3163 13.589 21.4485H14.1812C14.1769 21.0852 13.9342 20.4915 13.0256 20.4915C12.0635 20.4915 11.8866 21.0729 11.8866 21.403C11.8866 22.0559 12.3481 22.165 12.8277 22.2747L13.1448 22.3499C13.4575 22.4257 13.6814 22.4864 13.6814 22.7189C13.6814 23.0288 13.3542 23.101 13.0632 23.101C12.5215 23.101 12.4384 22.7876 12.4341 22.6222H11.8418C11.8418 22.9912 12.026 23.6131 13.1079 23.6131C13.3665 23.6131 14.2759 23.5322 14.2759 22.6431C14.2751 22.1108 13.9039 21.9439 13.5001 21.8457Z" fill="#5B6460"/>
<path d="M22.3774 22.8654C22.3774 22.3122 22.2431 22.2212 22.0011 22.1143C22.2929 22.0153 22.4612 21.7358 22.4612 21.4072C22.4612 21.1515 22.316 20.5701 21.5273 20.5701H20.0293V23.5335H20.6374V22.3743H21.2767C21.7339 22.3743 21.7606 22.5318 21.7606 22.9348C21.7606 23.2396 21.7844 23.3942 21.8263 23.5328H22.5096V23.4555C22.3774 23.4064 22.3774 23.2981 22.3774 22.8654ZM21.3619 21.8767H20.6367V21.0822H21.4067C21.7707 21.0822 21.8415 21.3118 21.8415 21.47C21.8415 21.7618 21.6847 21.8767 21.3619 21.8767Z" fill="#5B6460"/>
<path d="M15.2726 13.8682V17.897H15.2574L12.9599 13.8682H11.6865V19.655H12.8147L12.8162 15.5294H12.8313L15.1932 19.6557H16.4008V13.8682H15.2726Z" fill="#5B6460"/>
<path d="M7.56542 20.5708H6.84965L5.79297 23.5343H6.4459L6.65175 22.9225H7.74527L7.93595 23.5343H8.60911L7.56542 20.5708ZM6.81787 22.4111L7.19851 21.2396H7.20429L7.57409 22.4111H6.81787Z" fill="#5B6460"/>
<path d="M10.817 20.5708L10.8162 22.6336H10.809L9.63098 20.5708H8.97949V23.5343H9.55659V21.4202H9.56598L10.7751 23.5343H11.3955V20.5708H10.817Z" fill="#5B6460"/>
<path d="M15.8586 4.58835C15.8449 4.32689 15.8333 4.1781 15.8333 4.1781C15.8333 4.1781 15.8124 4.32617 15.7683 4.58546C15.7474 4.7133 15.7236 4.86859 15.6954 5.04699C15.6737 5.22467 15.5878 5.41463 15.53 5.62409C15.47 5.83355 15.3985 6.05601 15.2743 6.27269C15.1631 6.49226 15.0627 6.72772 14.8937 6.93501C14.8185 7.04119 14.7413 7.14953 14.6647 7.25931C14.5816 7.36404 14.4776 7.45649 14.3845 7.55617C14.2082 7.76057 13.9894 7.9303 13.772 8.09643C13.5676 8.27121 13.3119 8.39111 13.0923 8.53629C12.8424 8.64535 12.6221 8.77969 12.3744 8.85987C12.1396 8.95448 11.9063 9.03393 11.6781 9.09244C11.4578 9.16467 11.2354 9.20006 11.0403 9.247C10.9154 9.26939 10.7991 9.28817 10.6893 9.30479C10.6994 9.27084 10.7132 9.23906 10.7247 9.20511C10.8287 8.88803 10.9082 8.55723 10.9602 8.20982C10.9826 8.03359 10.9992 7.85519 11.0122 7.67317C11.0216 7.48899 11.0187 7.29759 11.0006 7.09825C10.8143 7.17481 10.6453 7.2622 10.4856 7.3561C10.3303 7.45216 10.1823 7.55183 10.0371 7.65439C9.75398 7.86313 9.49829 8.08776 9.26861 8.32827C8.80347 8.8057 8.42283 9.33512 8.10647 9.9021L8.0653 9.97289C7.87101 10.3254 7.90857 10.7768 8.19387 11.0931C8.56945 11.5099 8.98115 11.8977 9.45929 12.2293C9.69619 12.3976 9.94971 12.5507 10.2278 12.6865C10.5044 12.8208 10.789 12.9494 11.1292 13.0324C11.1111 12.685 11.0403 12.3802 10.9631 12.0819C10.8858 11.7923 10.7868 11.5207 10.6713 11.2614C10.9255 11.1784 11.231 11.0642 11.577 10.9183C11.7994 10.8114 12.0443 10.7118 12.2906 10.5695C12.5391 10.4416 12.7933 10.2864 13.0454 10.1137C13.3054 9.95628 13.5466 9.7367 13.8016 9.5453C14.0305 9.3149 14.2841 9.11122 14.487 8.8512C14.6972 8.60057 14.9009 8.35139 15.0569 8.06898C15.1363 7.93103 15.2266 7.80318 15.2931 7.66306C15.3537 7.52077 15.4144 7.37993 15.4722 7.24198C15.6051 6.97474 15.6614 6.68944 15.7279 6.43014C15.8059 6.17302 15.8319 5.92094 15.8478 5.68982C15.863 5.45941 15.9027 5.25356 15.8868 5.06649C15.8745 4.88232 15.8658 4.72125 15.8586 4.58835Z" fill="#5B6460"/>
</g>
<defs>
<clipPath id="clip0_1_3077">
<rect width="23.1127" height="23.1127" fill="white" transform="translate(0 0.500366)"/>
</clipPath>
</defs>
</svg>
