<svg width="32" height="32" viewBox="0 0 32 32" fill="none" xmlns="http://www.w3.org/2000/svg">
<g clip-path="url(#clip0_1_407)">
<path d="M5.85261 22.2021C6.18661 22.0351 6.83461 21.7121 6.83461 20.5611C6.83461 19.7351 6.33261 18.5061 4.36761 18.5061H0.474609V26.5191H3.86761C5.50861 26.5191 5.94361 26.2401 6.40061 25.7911C6.82261 25.3811 7.09061 24.7761 7.09061 24.1431C7.09061 23.3501 6.83461 22.5691 5.85261 22.2021ZM2.08261 19.8931H4.00261C4.76061 19.8931 5.22961 20.0931 5.22961 20.7511C5.22961 21.3891 4.70661 21.6451 4.04561 21.6451H2.08261V19.8931ZM4.13361 25.1351H2.08261V22.9921H4.21361C4.81761 22.9921 5.41861 23.2631 5.41861 23.9631C5.41661 24.7761 4.94761 25.1351 4.13361 25.1351Z" fill="#E9ECE0"/>
<path d="M0.475586 27.7881V28.5161H1.71559V31.8931H2.57059V28.5161H3.81359V27.7881H0.475586Z" fill="#E9ECE0"/>
<path d="M28.0664 21.7869L31.3364 18.5049H29.1724L26.1144 21.7619V18.5049H24.4404V26.5159H26.1144V23.8049L26.8954 23.0009L29.3714 26.5159H31.5254L28.0664 21.7869Z" fill="#E9ECE0"/>
<path d="M12.3611 18.5049H10.4311L7.57715 26.5169H9.33915L9.89615 24.8669H12.8531L13.3671 26.5159H15.1851L12.3611 18.5049ZM10.3421 23.4809L11.3691 20.3129H11.3921L12.3841 23.4809H10.3421Z" fill="#E9ECE0"/>
<path d="M19.8291 2.805C19.3271 2.212 18.7741 1.659 18.1241 1.18C17.8021 0.938 17.4581 0.715 17.0811 0.515C16.7011 0.319 16.3121 0.13 15.8471 0C15.8551 0.483 15.9391 0.908 16.0381 1.324C16.1321 1.728 16.2591 2.107 16.4071 2.471C16.0531 2.575 15.6231 2.721 15.1391 2.909C14.8261 3.049 14.4831 3.175 14.1371 3.362C13.7861 3.53 13.4301 3.734 13.0691 3.962C12.7021 4.169 12.3601 4.463 12.0011 4.717C11.6741 5.028 11.3151 5.297 11.0241 5.65C10.7231 5.988 10.4291 6.326 10.2021 6.71C10.0871 6.897 9.95415 7.07 9.85815 7.261C9.76615 7.455 9.67815 7.648 9.59215 7.836C9.39715 8.2 9.30815 8.592 9.20615 8.949C9.08515 9.303 9.04215 9.65 9.00915 9.97C8.98215 10.289 8.91515 10.571 8.93115 10.831C8.93915 11.087 8.94515 11.309 8.95115 11.493C8.96215 11.856 8.96515 12.063 8.96515 12.063C8.96515 12.063 9.00415 11.858 9.07015 11.501C9.10315 11.324 9.14415 11.111 9.19115 10.865C9.22815 10.62 9.35515 10.36 9.44315 10.073C9.53715 9.786 9.64615 9.48 9.82615 9.186C9.99015 8.887 10.1391 8.564 10.3811 8.285C10.4901 8.142 10.6021 7.994 10.7131 7.847C10.8301 7.704 10.9801 7.581 11.1091 7.447C11.3631 7.17 11.6731 6.946 11.9801 6.724C12.2731 6.491 12.6301 6.334 12.9391 6.143C13.2911 6.002 13.6011 5.826 13.9471 5.724C14.2771 5.604 14.6021 5.503 14.9201 5.431C15.2291 5.341 15.5401 5.301 15.8111 5.243C15.9851 5.218 16.1451 5.197 16.2991 5.178C16.2811 5.224 16.2621 5.268 16.2461 5.315C16.0881 5.748 15.9651 6.203 15.8791 6.682C15.8401 6.925 15.8081 7.171 15.7831 7.422C15.7631 7.677 15.7591 7.941 15.7771 8.219C16.0381 8.119 16.2751 8.006 16.5001 7.883C16.7171 7.756 16.9301 7.624 17.1331 7.488C17.5361 7.211 17.8991 6.91 18.2271 6.588C18.8911 5.946 19.4401 5.229 19.9011 4.458L19.9601 4.36C20.2431 3.881 20.2101 3.254 19.8291 2.805Z" fill="#E9ECE0"/>
<path d="M7.5782 30.9651C7.5782 30.1991 7.3942 30.0731 7.0572 29.9251C7.4632 29.7881 7.6922 29.4011 7.6922 28.9461C7.6922 28.5921 7.4932 27.7871 6.4012 27.7871H4.3252V31.8901H5.1672V30.2851H6.0522C6.6872 30.2851 6.7222 30.5031 6.7222 31.0611C6.7222 31.4831 6.7552 31.6971 6.8122 31.8891H7.7612V31.7821C7.5782 31.7141 7.5782 31.5641 7.5782 30.9651ZM6.1692 29.5961H5.1662V28.4961H6.2342C6.7362 28.4961 6.8342 28.8141 6.8342 29.0331C6.8332 29.4371 6.6172 29.5961 6.1692 29.5961Z" fill="#E9ECE0"/>
<path d="M23.3389 28.5161V27.7881H20.4189V31.8941H21.2769V30.1681H23.0829V29.4421H21.2769V28.5161H23.3389Z" fill="#E9ECE0"/>
<path d="M24.755 31.165V30.105H26.755V29.379H24.755V28.517H26.934V27.79H23.915V31.893H27.03V31.165H24.755Z" fill="#E9ECE0"/>
<path d="M18.6905 29.553L17.6925 29.307C17.5205 29.266 17.2565 29.197 17.2565 28.877C17.2565 28.506 17.6475 28.387 17.9715 28.387C18.7215 28.387 18.7905 28.82 18.8135 29.003H19.6335C19.6275 28.5 19.2915 27.678 18.0335 27.678C16.7015 27.678 16.4565 28.483 16.4565 28.94C16.4565 29.844 17.0955 29.995 17.7595 30.147L18.1985 30.251C18.6315 30.356 18.9415 30.44 18.9415 30.762C18.9415 31.191 18.4885 31.291 18.0855 31.291C17.3355 31.291 17.2205 30.857 17.2145 30.628H16.3945C16.3945 31.139 16.6495 32 18.1475 32C18.5055 32 19.7645 31.888 19.7645 30.657C19.7635 29.92 19.2495 29.689 18.6905 29.553Z" fill="#E9ECE0"/>
<path d="M30.9824 30.9651C30.9824 30.1991 30.7964 30.0731 30.4614 29.9251C30.8654 29.7881 31.0984 29.4011 31.0984 28.9461C31.0984 28.5921 30.8974 27.7871 29.8054 27.7871H27.7314V31.8901H28.5734V30.2851H29.4584C30.0914 30.2851 30.1284 30.5031 30.1284 31.0611C30.1284 31.4831 30.1614 31.6971 30.2194 31.8891H31.1654V31.7821C30.9824 31.7141 30.9824 31.5641 30.9824 30.9651ZM29.5764 29.5961H28.5724V28.4961H29.6384C30.1424 28.4961 30.2404 28.8141 30.2404 29.0331C30.2404 29.4371 30.0234 29.5961 29.5764 29.5961Z" fill="#E9ECE0"/>
<path d="M21.1447 18.5081V24.0861H21.1237L17.9427 18.5081H16.1797V26.5201H17.7417L17.7437 20.8081H17.7647L21.0347 26.5211H22.7067V18.5081H21.1447Z" fill="#E9ECE0"/>
<path d="M10.4735 27.7881H9.48253L8.01953 31.8911H8.92353L9.20853 31.0441H10.7225L10.9865 31.8911H11.9185L10.4735 27.7881ZM9.43853 30.3361L9.96553 28.7141H9.97353L10.4855 30.3361H9.43853Z" fill="#E9ECE0"/>
<path d="M14.9756 27.7881L14.9746 30.6441H14.9646L13.3336 27.7881H12.4316V31.8911H13.2306V28.9641H13.2436L14.9176 31.8911H15.7766V27.7881H14.9756Z" fill="#E9ECE0"/>
<path d="M21.9575 5.66004C21.9385 5.29804 21.9225 5.09204 21.9225 5.09204C21.9225 5.09204 21.8935 5.29704 21.8325 5.65604C21.8035 5.83304 21.7705 6.04804 21.7315 6.29504C21.7015 6.54104 21.5825 6.80404 21.5025 7.09404C21.4195 7.38404 21.3205 7.69204 21.1485 7.99204C20.9945 8.29604 20.8555 8.62204 20.6215 8.90904C20.5175 9.05604 20.4105 9.20604 20.3045 9.35804C20.1895 9.50304 20.0455 9.63104 19.9165 9.76904C19.6725 10.052 19.3695 10.287 19.0685 10.517C18.7855 10.759 18.4315 10.925 18.1275 11.126C17.7815 11.277 17.4765 11.463 17.1335 11.574C16.8085 11.705 16.4855 11.815 16.1695 11.896C15.8645 11.996 15.5565 12.045 15.2865 12.11C15.1135 12.141 14.9525 12.167 14.8005 12.19C14.8145 12.143 14.8335 12.099 14.8495 12.052C14.9935 11.613 15.1035 11.155 15.1755 10.674C15.2065 10.43 15.2295 10.183 15.2475 9.93104C15.2605 9.67604 15.2565 9.41104 15.2315 9.13504C14.9735 9.24104 14.7395 9.36204 14.5185 9.49204C14.3035 9.62504 14.0985 9.76304 13.8975 9.90504C13.5055 10.194 13.1515 10.505 12.8335 10.838C12.1895 11.499 11.6625 12.232 11.2245 13.017L11.1675 13.115C10.8985 13.603 10.9505 14.228 11.3455 14.666C11.8655 15.243 12.4355 15.78 13.0975 16.239C13.4255 16.472 13.7765 16.684 14.1615 16.872C14.5445 17.058 14.9385 17.236 15.4095 17.351C15.3845 16.87 15.2865 16.448 15.1795 16.035C15.0725 15.634 14.9355 15.258 14.7755 14.899C15.1275 14.784 15.5505 14.626 16.0295 14.424C16.3375 14.276 16.6765 14.138 17.0175 13.941C17.3615 13.764 17.7135 13.549 18.0625 13.31C18.4225 13.092 18.7565 12.788 19.1095 12.523C19.4265 12.204 19.7775 11.922 20.0585 11.562C20.3495 11.215 20.6315 10.87 20.8475 10.479C20.9575 10.288 21.0825 10.111 21.1745 9.91704C21.2585 9.72004 21.3425 9.52504 21.4225 9.33404C21.6065 8.96404 21.6845 8.56904 21.7765 8.21004C21.8845 7.85404 21.9205 7.50504 21.9425 7.18504C21.9635 6.86604 22.0185 6.58104 21.9965 6.32204C21.9795 6.06704 21.9675 5.84404 21.9575 5.66004Z" fill="#E9ECE0"/>
</g>
<defs>
<clipPath id="clip0_1_407">
<rect width="32" height="32" fill="white"/>
</clipPath>
</defs>
</svg>
