<svg width="70" height="70" viewBox="0 0 70 70" fill="none" xmlns="http://www.w3.org/2000/svg">
<g clip-path="url(#clip0_1_178)">
<path d="M70.0005 19.833C69.9953 15.3248 66.342 11.6715 61.8338 11.6664H26.8338C26.1175 11.6638 25.4043 11.7616 24.7151 11.9569C24.2788 12.0619 12.7545 16.4065 5.92363 18.986H5.9143C4.58294 19.3576 3.3714 20.0697 2.39913 21.0522C0.85469 22.5782 -0.00993786 24.6619 0.000465758 26.833C0.0024024 29.7033 1.51222 32.3614 3.97647 33.833C1.51325 35.3057 0.00379698 37.9632 0.000465758 40.833C0.00502425 43.7041 1.51685 46.3618 3.9823 47.833C0.827169 49.7135 -0.682353 53.4705 0.294609 57.0112C1.27157 60.5519 4.49412 63.0033 8.16713 62.9997H43.1671C44.3741 62.9987 45.5656 62.7276 46.6543 62.2064C46.6628 62.2069 46.6714 62.2069 46.68 62.2064L65.4505 55.1562C68.1311 53.8356 69.8738 51.1535 69.9914 48.1676C70.1089 45.1816 68.5825 42.3708 66.014 40.8435C66.5962 40.5061 67.1296 40.0908 67.5995 39.6092C69.1436 38.0848 70.009 36.0029 70.0005 33.833C69.9903 30.9662 68.4812 28.3137 66.0221 26.84C66.6018 26.5028 67.1331 26.0888 67.6018 25.6092C69.1451 24.0844 70.0096 22.0025 70.0005 19.833ZM25.358 14.1992C25.8384 14.0649 26.335 13.9978 26.8338 13.9997H61.8338C65.0539 14.0036 67.6633 16.613 67.6671 19.833C67.6743 21.3813 67.0573 22.8671 65.9556 23.9549C65.5593 24.3674 65.0952 24.7091 64.5836 24.9652C64.5206 24.999 64.467 25.0305 64.4075 25.0609C62.8336 25.6442 60.0628 26.6849 55.7683 28.2972L50.5836 30.2444C51.7492 27.7166 51.546 24.7692 50.0446 22.4253C48.5431 20.0814 45.9506 18.6645 43.1671 18.6664H13.3845C19.1933 16.4789 24.8831 14.3497 25.358 14.1992ZM2.3338 26.833C2.32715 25.282 2.94629 23.7939 4.05113 22.7054C4.75632 21.9894 5.64067 21.4757 6.61197 21.2179C6.64113 21.2085 6.67497 21.198 6.7088 21.1852C7.18483 21.0605 7.67504 20.9981 8.16713 20.9997H43.1671C46.3872 21.0036 48.9966 23.613 49.0005 26.833C48.992 29.0157 47.7739 31.0137 45.8376 32.0212C45.8035 32.0343 45.77 32.0491 45.7373 32.0655C44.9396 32.4646 44.0591 32.6704 43.1671 32.6664H8.16713C4.94707 32.6625 2.33766 30.0531 2.3338 26.833ZM2.3338 40.833C2.33958 37.6138 4.94787 35.0055 8.16713 34.9997H43.1671C46.3872 35.0036 48.9966 37.613 49.0005 40.833C48.992 43.0157 47.7739 45.0137 45.8376 46.0212C45.8035 46.0343 45.77 46.0491 45.7373 46.0655C44.9396 46.4646 44.0591 46.6704 43.1671 46.6664H8.16713C4.94707 46.6625 2.33766 44.0531 2.3338 40.833ZM8.16713 60.6664C4.94547 60.6664 2.3338 58.0547 2.3338 54.833C2.3338 51.6114 4.94547 48.9997 8.16713 48.9997H43.1671C46.3888 48.9997 49.0005 51.6114 49.0005 54.833C49.0005 58.0547 46.3888 60.6664 43.1671 60.6664H8.16713ZM67.6671 47.833C67.6742 49.381 67.0577 50.8666 65.9568 51.9549C65.5373 52.3796 65.0554 52.7376 64.5276 53.0165L50.5755 58.249C52.314 54.5128 50.9796 50.0667 47.471 47.9054L62.871 42.128C65.6378 42.6217 67.6562 45.0226 67.6671 47.833ZM67.6671 33.833C67.6743 35.3813 67.0573 36.8671 65.9556 37.9549C65.5593 38.3674 65.0952 38.7091 64.5836 38.9652C64.5195 39.0002 64.4588 39.0317 64.4051 39.062L50.5825 44.2455C52.3104 40.508 50.9745 36.0687 47.471 33.9054L56.5838 30.4824C59.2461 29.4825 61.3146 28.7055 62.8838 28.1187C65.6457 28.6241 67.6557 31.0253 67.6671 33.833Z" fill="white"/>
<path d="M45.5007 26.833C45.5007 26.1887 44.9783 25.6663 44.334 25.6663H7.00065C6.35632 25.6663 5.83398 26.1887 5.83398 26.833C5.83398 27.4773 6.35632 27.9997 7.00065 27.9997H44.334C44.9783 27.9997 45.5007 27.4773 45.5007 26.833Z" fill="white"/>
<path d="M45.5007 40.8331C45.5007 40.1888 44.9783 39.6664 44.334 39.6664H7.00065C6.35632 39.6664 5.83398 40.1888 5.83398 40.8331C5.83398 41.4774 6.35632 41.9997 7.00065 41.9997H44.334C44.9783 41.9997 45.5007 41.4774 45.5007 40.8331Z" fill="white"/>
<path d="M44.334 53.6665H7.00065C6.35632 53.6665 5.83398 54.1888 5.83398 54.8332C5.83398 55.4775 6.35632 55.9998 7.00065 55.9998H44.334C44.9783 55.9998 45.5007 55.4775 45.5007 54.8332C45.5007 54.1888 44.9783 53.6665 44.334 53.6665Z" fill="white"/>
<path d="M11.6667 2.33319C11.0223 2.33319 10.5 2.85553 10.5 3.49986V5.83319C10.5 6.47752 11.0223 6.99986 11.6667 6.99986C12.311 6.99986 12.8333 6.47752 12.8333 5.83319V3.49986C12.8333 2.85553 12.311 2.33319 11.6667 2.33319Z" fill="white"/>
<path d="M10.5 12.8334C10.5 13.4777 11.0223 14.0001 11.6667 14.0001C12.311 14.0001 12.8333 13.4777 12.8333 12.8334V10.5C12.8333 9.85571 12.311 9.33337 11.6667 9.33337C11.0223 9.33337 10.5 9.85571 10.5 10.5V12.8334Z" fill="white"/>
<path d="M9.33398 6.99982H7.00065C6.35632 6.99982 5.83398 7.52215 5.83398 8.16649C5.83398 8.81082 6.35632 9.33316 7.00065 9.33316H9.33398C9.97831 9.33316 10.5006 8.81082 10.5006 8.16649C10.5006 7.52215 9.97831 6.99982 9.33398 6.99982Z" fill="white"/>
<path d="M14.0007 9.33316H16.334C16.9783 9.33316 17.5007 8.81082 17.5007 8.16649C17.5007 7.52215 16.9783 6.99982 16.334 6.99982H14.0007C13.3563 6.99982 12.834 7.52215 12.834 8.16649C12.834 8.81082 13.3563 9.33316 14.0007 9.33316Z" fill="white"/>
<path d="M67.9088 63.9253C67.451 63.4831 66.7234 63.4895 66.2733 63.9395C65.8233 64.3895 65.817 65.1172 66.2591 65.5749L68.0091 67.325C68.4669 67.7671 69.1946 67.7608 69.6446 67.3107C70.0946 66.8607 70.1009 66.1331 69.6588 65.6753L67.9088 63.9253Z" fill="white"/>
<path d="M62.7591 62.0748C63.2169 62.5169 63.9446 62.5106 64.3946 62.0606C64.8446 61.6105 64.8509 60.8829 64.4088 60.4251L62.6588 58.6751C62.201 58.233 61.4734 58.2393 61.0233 58.6893C60.5733 59.1393 60.567 59.867 61.0091 60.3248L62.7591 62.0748Z" fill="white"/>
<path d="M61.0086 67.3249C61.4642 67.7804 62.2027 67.7804 62.6582 67.3249L64.4082 65.5749C64.8504 65.1172 64.844 64.3895 64.394 63.9395C63.944 63.4895 63.2163 63.4831 62.7586 63.9253L61.0086 65.6753C60.5531 66.1309 60.5531 66.8694 61.0086 67.3249Z" fill="white"/>
<path d="M68.0085 58.6751L66.2585 60.4251C65.9553 60.718 65.8336 61.1518 65.9404 61.5597C66.0472 61.9676 66.3657 62.2861 66.7736 62.3929C67.1815 62.4997 67.6153 62.378 67.9082 62.0748L69.6582 60.3248C70.1003 59.867 70.094 59.1393 69.644 58.6893C69.194 58.2393 68.4663 58.233 68.0085 58.6751Z" fill="white"/>
</g>
<defs>
<clipPath id="clip0_1_178">
<rect width="70" height="70" fill="white"/>
</clipPath>
</defs>
</svg>
