<svg width="51" height="50" viewBox="0 0 51 50" fill="none" xmlns="http://www.w3.org/2000/svg">
<g clip-path="url(#clip0_1_101)">
<path d="M26 50C39.8071 50 51 38.8071 51 25C51 11.1929 39.8071 0 26 0C12.1929 0 1 11.1929 1 25C1 38.8071 12.1929 50 26 50Z" fill="#5B6460"/>
<path d="M29.9575 25.4798H27.1891V36H22.9948V25.4798H21V21.7825H22.9948V19.39C22.9948 17.6791 23.7783 15 27.2265 15L30.3333 15.0135V18.6023H28.0791C27.7093 18.6023 27.1894 18.7939 27.1894 19.6101V21.786H30.3239L29.9575 25.4798Z" fill="#E9ECE0"/>
</g>
<defs>
<clipPath id="clip0_1_101">
<rect width="50" height="50" fill="white" transform="translate(0.757812)"/>
</clipPath>
</defs>
</svg>
