<svg width="70" height="70" viewBox="0 0 70 70" fill="none" xmlns="http://www.w3.org/2000/svg">
<g clip-path="url(#clip0_1_200)">
<path d="M54.8311 23.4527V3.69134C54.8299 2.71268 54.4406 1.77443 53.7486 1.08241C53.0566 0.390384 52.1184 0.00109681 51.1397 -6.10352e-05H18.6914C17.7127 0.00109681 16.7745 0.390384 16.0825 1.08241C15.3904 1.77443 15.0012 2.71268 15 3.69134V23.4527C15.0003 23.9686 15.1092 24.4786 15.3195 24.9497C15.5298 25.4208 15.8368 25.8424 16.2206 26.187C15.8368 26.5317 15.5298 26.9533 15.3195 27.4244C15.1092 27.8955 15.0003 28.4055 15 28.9214V62.3519C15.0012 63.3306 15.3904 64.2688 16.0825 64.9608C16.7745 65.6528 17.7127 66.0421 18.6914 66.0433H19.1929V68.98C19.1929 69.2338 19.2937 69.4773 19.4732 69.6567C19.6527 69.8362 19.8961 69.937 20.1499 69.937H26.9859C27.2397 69.937 27.4831 69.8362 27.6626 69.6567C27.8421 69.4773 27.9429 69.2338 27.9429 68.98V66.0433H41.8882V68.98C41.8882 69.2338 41.989 69.4773 42.1685 69.6567C42.348 69.8362 42.5914 69.937 42.8452 69.937H49.6812C49.935 69.937 50.1784 69.8362 50.3579 69.6567C50.5374 69.4773 50.6382 69.2338 50.6382 68.98V66.0433H51.1397C52.1184 66.0421 53.0566 65.6528 53.7486 64.9608C54.4406 64.2688 54.8299 63.3306 54.8311 62.3519V28.9214C54.8308 28.4055 54.7219 27.8955 54.5116 27.4244C54.3013 26.9533 53.9943 26.5317 53.6105 26.187C53.9943 25.8424 54.3013 25.4208 54.5116 24.9497C54.7219 24.4786 54.8308 23.9686 54.8311 23.4527ZM26.0288 68.023H21.107V66.0433H26.0288V68.023ZM48.7241 68.023H43.8023V66.0433H48.7241V68.023ZM52.917 28.9214V62.3519C52.9165 62.8231 52.729 63.2748 52.3958 63.608C52.0626 63.9412 51.6109 64.1286 51.1397 64.1292H18.6914C18.2202 64.1286 17.7685 63.9412 17.4353 63.608C17.1021 63.2748 16.9146 62.8231 16.9141 62.3519V28.9214C16.9146 28.4502 17.1021 27.9985 17.4353 27.6653C17.7685 27.3321 18.2202 27.1447 18.6914 27.1441H51.1397C51.6109 27.1447 52.0626 27.3321 52.3958 27.6653C52.729 27.9985 52.9165 28.4502 52.917 28.9214ZM18.6914 25.23C18.2202 25.2294 17.7685 25.042 17.4353 24.7088C17.1021 24.3756 16.9146 23.9239 16.9141 23.4527V3.69134C16.9146 3.22014 17.1021 2.7684 17.4353 2.43521C17.7685 2.10202 18.2202 1.91458 18.6914 1.914H51.1397C51.6109 1.91458 52.0626 2.10202 52.3958 2.43521C52.729 2.7684 52.9165 3.22014 52.917 3.69134V23.4527C52.9165 23.9239 52.729 24.3756 52.3958 24.7088C52.0626 25.042 51.6109 25.2294 51.1397 25.23H18.6914Z" fill="white"/>
<path d="M48.4854 6.93542H44.9307C44.6768 6.93542 44.4334 7.03625 44.2539 7.21573C44.0745 7.39521 43.9736 7.63864 43.9736 7.89246V19.3768C43.9736 19.6307 44.0745 19.8741 44.2539 20.0536C44.4334 20.233 44.6768 20.3339 44.9307 20.3339H48.4854C48.7392 20.3339 48.9826 20.233 49.1621 20.0536C49.3416 19.8741 49.4424 19.6307 49.4424 19.3768V7.89246C49.4424 7.63864 49.3416 7.39521 49.1621 7.21573C48.9826 7.03625 48.7392 6.93542 48.4854 6.93542ZM47.5283 18.4198H45.8877V8.84949H47.5283V18.4198Z" fill="white"/>
<path d="M44.9307 44.1646H48.4854C48.7392 44.1646 48.9826 44.0637 49.1621 43.8843C49.3416 43.7048 49.4424 43.4614 49.4424 43.2075V31.7231C49.4424 31.4693 49.3416 31.2259 49.1621 31.0464C48.9826 30.8669 48.7392 30.7661 48.4854 30.7661H44.9307C44.6768 30.7661 44.4334 30.8669 44.2539 31.0464C44.0745 31.2259 43.9736 31.4693 43.9736 31.7231V43.2075C43.9736 43.4614 44.0745 43.7048 44.2539 43.8843C44.4334 44.0637 44.6768 44.1646 44.9307 44.1646ZM45.8877 32.6802H47.5283V42.2505H45.8877V32.6802Z" fill="white"/>
</g>
<defs>
<clipPath id="clip0_1_200">
<rect width="70" height="70" fill="white"/>
</clipPath>
</defs>
</svg>
