<svg width="70" height="70" viewBox="0 0 70 70" fill="none" xmlns="http://www.w3.org/2000/svg">
<path d="M30.6256 70C21.7794 70 14.584 62.8017 14.584 53.9583C14.584 49.1925 16.7511 44.6221 20.4173 41.5858V10.2083C20.4173 4.57917 24.9965 0 30.6256 0C36.2548 0 40.834 4.57917 40.834 10.2083V41.5858C44.5002 44.6221 46.6673 49.1925 46.6673 53.9583C46.6673 62.8017 39.4719 70 30.6256 70ZM30.6256 2.91667C26.6065 2.91667 23.334 6.18917 23.334 10.2083V42.2917C23.334 42.7496 23.1181 43.1813 22.7536 43.4554C19.4636 45.9317 17.5007 49.8575 17.5007 53.9583C17.5007 61.1946 23.3894 67.0833 30.6256 67.0833C37.8619 67.0833 43.7506 61.1946 43.7506 53.9583C43.7506 49.8575 41.7877 45.9317 38.4977 43.4554C38.1331 43.1813 37.9173 42.7496 37.9173 42.2917V10.2083C37.9173 6.18917 34.6448 2.91667 30.6256 2.91667Z" fill="white"/>
<path d="M30.6256 61.2499C26.6065 61.2499 23.334 57.9804 23.334 53.9583C23.334 49.9362 26.6065 46.6666 30.6256 46.6666C34.6448 46.6666 37.9173 49.9362 37.9173 53.9583C37.9173 57.9804 34.6448 61.2499 30.6256 61.2499ZM30.6256 49.5833C28.2136 49.5833 26.2506 51.5462 26.2506 53.9583C26.2506 56.3704 28.2136 58.3333 30.6256 58.3333C33.0377 58.3333 35.0006 56.3704 35.0006 53.9583C35.0006 51.5462 33.0377 49.5833 30.6256 49.5833Z" fill="white"/>
<path d="M30.6244 49.5834C29.8193 49.5834 29.166 48.93 29.166 48.125V16.0417C29.166 15.2367 29.8193 14.5834 30.6244 14.5834C31.4294 14.5834 32.0827 15.2367 32.0827 16.0417V48.125C32.0827 48.93 31.4294 49.5834 30.6244 49.5834Z" fill="white"/>
<path d="M53.9577 11.6667H48.1243C47.3193 11.6667 46.666 11.0133 46.666 10.2083C46.666 9.40333 47.3193 8.75 48.1243 8.75H53.9577C54.7627 8.75 55.416 9.40333 55.416 10.2083C55.416 11.0133 54.7627 11.6667 53.9577 11.6667Z" fill="white"/>
<path d="M53.9577 23.3333H48.1243C47.3193 23.3333 46.666 22.68 46.666 21.875C46.666 21.07 47.3193 20.4166 48.1243 20.4166H53.9577C54.7627 20.4166 55.416 21.07 55.416 21.875C55.416 22.68 54.7627 23.3333 53.9577 23.3333Z" fill="white"/>
<path d="M53.9577 35H48.1243C47.3193 35 46.666 34.3467 46.666 33.5417C46.666 32.7367 47.3193 32.0834 48.1243 32.0834H53.9577C54.7627 32.0834 55.416 32.7367 55.416 33.5417C55.416 34.3467 54.7627 35 53.9577 35Z" fill="white"/>
</svg>
