<svg width="50" height="50" viewBox="0 0 50 50" fill="none" xmlns="http://www.w3.org/2000/svg"><g clip-path="url(#clip0_1_105)"><path d="M25 50C38.8071 50 50 38.8071 50 25C50 11.1929 38.8071 0 25 0C11.1929 0 0 11.1929 0 25C0 38.8071 11.1929 50 25 50Z" fill="#5B6460"/><g clip-path="url(#clip1_1_105)"><path d="M24.5035 20.1084C21.5259 20.1084 19.1152 22.5216 19.1152 25.4966C19.1152 28.4743 21.5285 30.8849 24.5035 30.8849C27.4811 30.8849 29.8917 28.4716 29.8917 25.4966C29.8917 22.519 27.4785 20.1084 24.5035 20.1084V20.1084ZM24.5035 28.994C22.5706 28.994 21.0061 27.4286 21.0061 25.4966C21.0061 23.5646 22.5715 21.9993 24.5035 21.9993C26.4355 21.9993 28.0009 23.5646 28.0009 25.4966C28.0017 27.4286 26.4364 28.994 24.5035 28.994V28.994Z" fill="#E9ECE0"/><path d="M28.8297 15.0665C26.8977 14.9763 22.1123 14.9807 20.1786 15.0665C18.4793 15.1461 16.9804 15.5565 15.7721 16.7648C13.7526 18.7843 14.0107 21.5056 14.0107 25.4965C14.0107 29.581 13.7832 32.2392 15.7721 34.2281C17.7994 36.2546 20.5601 35.9895 24.5037 35.9895C28.5497 35.9895 29.9462 35.9921 31.3768 35.4382C33.3219 34.6831 34.7902 32.9445 34.9337 29.8216C35.0247 27.8887 35.0194 23.1042 34.9337 21.1705C34.7604 17.4841 32.7821 15.2485 28.8297 15.0665V15.0665ZM31.8878 32.892C30.5639 34.2158 28.7273 34.0977 24.4783 34.0977C20.1033 34.0977 18.3489 34.1625 17.0688 32.8788C15.5944 31.4115 15.8613 29.0551 15.8613 25.4825C15.8613 20.6481 15.3652 17.1665 20.2171 16.918C21.3318 16.8786 21.6599 16.8655 24.4661 16.8655L24.5054 16.8917C29.1683 16.8917 32.8267 16.4035 33.0463 21.2545C33.0962 22.3613 33.1076 22.6938 33.1076 25.4956C33.1067 29.8198 33.1889 31.5847 31.8878 32.892V32.892Z" fill="#E9ECE0"/><path d="M30.1048 21.1547C30.8002 21.1547 31.364 20.591 31.364 19.8956C31.364 19.2002 30.8002 18.6365 30.1048 18.6365C29.4094 18.6365 28.8457 19.2002 28.8457 19.8956C28.8457 20.591 29.4094 21.1547 30.1048 21.1547Z" fill="#E9ECE0"/></g></g><defs><clipPath id="clip0_1_105"><rect width="50" height="50" fill="white"/></clipPath><clipPath id="clip1_1_105"><rect width="21" height="21" fill="white" transform="translate(14 15)"/></clipPath></defs></svg>