<svg width="70" height="70" viewBox="0 0 70 70" fill="none" xmlns="http://www.w3.org/2000/svg">
<path d="M66.9815 36.7881L63.8928 27.2846C62.3364 22.4955 59.5515 18.1657 55.8392 14.7633C52.1271 11.3606 47.5715 8.9626 42.665 7.82825L35.8824 6.26009C35.8809 6.25982 17.0621 2.16551 17.0621 2.16551C16.507 2.04438 15.9606 2.39656 15.8399 2.95068C15.7193 3.50508 16.0708 4.05222 16.6251 4.17281L35.4194 8.26178C35.4195 8.26178 35.4589 8.27094 35.4589 8.27094C39.7468 9.21567 42.9178 12.7708 43.3534 17.1265C43.8861 22.4508 45.0397 28.3707 46.7827 34.722C49.1017 43.1724 48.9887 50.2363 48.4856 54.6737C48.09 58.1632 47.3984 60.6199 47.043 61.7195H33.3273C32.7599 61.7195 32.3001 62.1793 32.3001 62.7467C32.3001 63.3141 32.7599 63.7738 33.3273 63.7738H47.19L49.3641 67.4193C49.4543 67.5706 49.4051 67.7037 49.3677 67.7694C49.3303 67.8352 49.2413 67.9455 49.0651 67.9455H5.40667C5.23044 67.9455 5.14143 67.8352 5.10397 67.7694C5.06665 67.7038 5.01743 67.5707 5.10767 67.4194L7.28176 63.7738H29.2185C29.7859 63.7738 30.2457 63.3141 30.2457 62.7467C30.2457 62.1793 29.7859 61.7195 29.2185 61.7195H7.45854C5.80219 56.239 5.17069 51.3613 5.47954 46.4321C5.76706 41.8426 6.83086 37.776 7.95688 33.4707C9.3592 28.1089 10.8094 22.5647 10.9546 15.4027C11.0351 11.4391 8.62065 6.27349 6.58094 2.63801C6.44217 2.29211 6.6262 2.0467 6.9978 2.07842L12.6117 3.29986C13.1669 3.42099 13.7133 3.06867 13.8339 2.51469C13.9544 1.96029 13.6029 1.41315 13.0487 1.29256L7.43461 0.0705721C5.45862 -0.437063 3.72585 1.90137 4.78925 3.64275C6.35672 6.43687 8.97557 11.6747 8.90078 15.3606C8.76037 22.2797 7.34151 27.7044 5.9694 32.9505C3.72257 41.5408 1.59988 49.6607 5.5818 62.6134L3.34331 66.3671C2.89488 67.1192 2.88517 68.0226 3.31761 68.784C3.75019 69.5454 4.53099 70 5.40667 70H49.0652C49.9408 70 50.7217 69.5455 51.1542 68.784C51.5867 68.0228 51.577 67.1191 51.1286 66.367L48.9046 62.6377C49.2602 61.5959 50.0625 58.9351 50.5168 54.9942C51.0511 50.3592 51.1808 42.9853 48.7641 34.1781C47.2167 28.5396 46.1447 23.2576 45.5674 18.4479C49.9618 19.9807 53.473 23.3905 55.1165 27.8016C55.5717 29.062 57.5235 28.3223 57.0418 27.0844C55.0676 21.7856 50.7096 17.7658 45.3033 16.21C44.9132 13.7629 43.801 11.5566 42.1742 9.82324L42.2025 9.82981C46.7643 10.8845 50.9998 13.1142 54.4513 16.2776C57.9029 19.441 60.492 23.4668 61.9392 27.9196L65.0279 37.423C65.2219 38.0198 65.1216 38.6533 64.7527 39.1611C64.3839 39.6689 63.8125 39.96 63.185 39.96C62.3798 39.96 61.65 39.453 61.3691 38.6986L58.3085 30.4834C58.1103 29.9518 57.5183 29.6815 56.9873 29.8794C56.4556 30.0775 56.1851 30.6691 56.3832 31.2005L59.4438 39.4155C60.0228 40.9699 61.5263 42.0141 63.185 42.0141C64.4778 42.0141 65.6551 41.4142 66.415 40.3683C67.1743 39.3228 67.381 38.0177 66.9815 36.7881Z" fill="white"/>
<path d="M32.5225 50.8917C35.006 50.8917 37.0264 48.8713 37.0264 46.3878V23.4679C37.0264 20.9843 35.006 18.9639 32.5225 18.9639C30.039 18.9639 28.0186 20.9843 28.0186 23.4679V46.3878C28.0184 48.8713 30.039 50.8917 32.5225 50.8917ZM32.5225 21.0146C33.8752 21.0146 34.9756 22.1152 34.9756 23.4679V46.3878C34.9756 47.7405 33.875 48.8409 32.5225 48.8409C31.1698 48.8409 30.0693 47.7404 30.0693 46.3878V45.3031H31.759C32.3255 45.3031 32.7844 44.8441 32.7844 44.2777C32.7844 43.7113 32.3255 43.2523 31.759 43.2523H30.0693V39.5219H31.759C32.3255 39.5219 32.7844 39.063 32.7844 38.4966C32.7844 37.9301 32.3255 37.4712 31.759 37.4712H30.0693V33.7408H31.759C32.3255 33.7408 32.7844 33.2818 32.7844 32.7154C32.7844 32.149 32.3255 31.69 31.759 31.69H30.0693V27.9597H31.759C32.3255 27.9597 32.7844 27.5007 32.7844 26.9343C32.7844 26.3679 32.3255 25.9089 31.759 25.9089H30.0693V23.4679C30.0692 22.1152 31.1698 21.0146 32.5225 21.0146Z" fill="white"/>
</svg>
