<svg width="70" height="70" viewBox="0 0 70 70" fill="none" xmlns="http://www.w3.org/2000/svg">
<g clip-path="url(#clip0_1_236)">
<path d="M68.8333 15.1667H43.1667C42.5224 15.1667 42 15.6891 42 16.3334V44.3334H36.1667V43.1667H37.3333C37.9776 43.1667 38.5 42.6443 38.5 42C38.5 41.3557 37.9776 40.8334 37.3333 40.8334H25.6667C25.0224 40.8334 24.5 41.3557 24.5 42C24.5 42.6443 25.0224 43.1667 25.6667 43.1667H26.8333V44.3334H15.1667V43.1667H16.3333C16.9776 43.1667 17.5 42.6443 17.5 42C17.5 41.3557 16.9776 40.8334 16.3333 40.8334H4.66667C4.02237 40.8334 3.5 41.3557 3.5 42C3.5 42.6443 4.02237 43.1667 4.66667 43.1667H5.83333V44.3334H1.16667C0.522375 44.3334 0 44.8557 0 45.5V68.8334C0 69.4776 0.522375 70 1.16667 70H68.8333C69.4776 70 70 69.4776 70 68.8334V16.3334C70 15.6891 69.4776 15.1667 68.8333 15.1667ZM29.1667 43.1667H33.8333V44.3334H29.1667V43.1667ZM8.16667 43.1667H12.8333V44.3334H8.16667V43.1667ZM18.6667 67.6667H2.33333V53.6667H18.6667V67.6667ZM18.6667 51.3334H2.33333V46.6667H18.6667V51.3334ZM42 67.6667H21V46.6667H42V67.6667ZM67.6667 67.6667H44.3333V36.1667H67.6667V67.6667ZM67.6667 33.8334H44.3333V17.5H67.6667V33.8334Z" fill="white"/>
<path d="M24.4997 65.3333H38.4997C39.144 65.3333 39.6663 64.811 39.6663 64.1667V50.1667C39.6663 49.5224 39.144 49 38.4997 49H24.4997C23.8554 49 23.333 49.5224 23.333 50.1667V64.1667C23.333 64.811 23.8554 65.3333 24.4997 65.3333ZM25.6663 51.3333H37.333V63H25.6663V51.3333Z" fill="white"/>
<path d="M46.6667 32.6667C47.311 32.6667 47.8333 32.1443 47.8333 31.5V26.8334C47.8333 26.1891 47.311 25.6667 46.6667 25.6667C46.0224 25.6667 45.5 26.1891 45.5 26.8334V31.5C45.5 32.1443 46.0224 32.6667 46.6667 32.6667Z" fill="white"/>
<path d="M46.6667 44.3333C47.311 44.3333 47.8333 43.8109 47.8333 43.1666V38.5C47.8333 37.8557 47.311 37.3333 46.6667 37.3333C46.0224 37.3333 45.5 37.8557 45.5 38.5V43.1666C45.5 43.8109 46.0224 44.3333 46.6667 44.3333Z" fill="white"/>
<path d="M2.75085 20.7287C2.96114 20.9043 3.22641 21.0003 3.50043 21H38.5004C39.1447 21.0009 39.6678 20.4794 39.6688 19.8351C39.6693 19.5612 39.5732 19.2958 39.3976 19.0855L27.7309 5.0855C27.5088 4.81965 27.1801 4.66623 26.8338 4.66667H25.6671V1.16667C25.6671 0.522375 25.1447 0 24.5004 0H17.5004C16.8561 0 16.3338 0.522375 16.3338 1.16667V4.66667H15.1671C14.8207 4.66623 14.492 4.81965 14.2699 5.0855L2.60326 19.0855C2.19026 19.58 2.25633 20.3158 2.75085 20.7287ZM18.6671 2.33333H23.3338V4.66667H18.6671V2.33333ZM15.7143 7H26.2866L36.0096 18.6667H5.99127L15.7143 7Z" fill="white"/>
</g>
<defs>
<clipPath id="clip0_1_236">
<rect width="70" height="70" fill="white"/>
</clipPath>
</defs>
</svg>
