<svg width="70" height="70" viewBox="0 0 70 70" fill="none" xmlns="http://www.w3.org/2000/svg">
<g clip-path="url(#clip0_1_211)">
<path d="M35.0004 0C20.2047 0 8.16699 12.6654 8.16699 28.2334C8.16699 43.4898 33.1138 68.5966 34.1755 69.6594C34.403 69.8857 34.7018 70.0001 35.0004 70.0001C35.2991 70.0001 35.5977 69.8858 35.8252 69.6583C36.8868 68.5967 61.8337 43.49 61.8337 28.2335C61.8337 12.6654 49.7961 0 35.0004 0ZM35.0004 67.1627C30.6382 62.6384 10.5004 41.0491 10.5004 28.2334C10.5004 13.9521 21.4916 2.33338 35.0004 2.33338C48.5091 2.33338 59.5004 13.9521 59.5004 28.2334C59.5004 41.0434 39.3614 62.6371 35.0004 67.1627Z" fill="white"/>
<path d="M35 5.83337C23.4209 5.83337 14 15.2543 14 26.8334C14 38.4125 23.4209 47.8334 35 47.8334C46.5791 47.8334 56 38.4125 56 26.8334C56 15.2543 46.5791 5.83337 35 5.83337ZM35 45.5C24.7064 45.5 16.3334 37.1257 16.3334 26.8334C16.3334 16.5411 24.7064 8.16662 35 8.16662C45.2936 8.16662 53.6666 16.5409 53.6666 26.8332C53.6666 37.1256 45.2936 45.5 35 45.5Z" fill="white"/>
<path d="M35.0006 57.1666C34.3567 57.1666 33.834 57.6892 33.834 58.3332V68.8332C33.834 69.4771 34.3567 69.9998 35.0006 69.9998C35.6446 69.9998 36.1672 69.4771 36.1672 68.8332V58.3332C36.1672 57.6892 35.6446 57.1666 35.0006 57.1666Z" fill="white"/>
<path d="M37.3332 18.6667H32.6666C32.0227 18.6667 31.5 19.1894 31.5 19.8333V24.5001C31.5 25.144 32.0227 25.6667 32.6666 25.6667H37.3332C39.2629 25.6667 40.8332 24.0963 40.8332 22.1667C40.8332 20.237 39.2629 18.6667 37.3332 18.6667ZM37.3332 23.3334H33.8332V21.0001H37.3332C37.9772 21.0001 38.4999 21.5238 38.4999 22.1667C38.4999 22.8095 37.9772 23.3334 37.3332 23.3334Z" fill="white"/>
<path d="M37.333 14H27.9996C27.3557 14 26.833 14.5227 26.833 15.1666V38.5C26.833 39.1439 27.3557 39.6666 27.9996 39.6666H32.6663C33.3102 39.6666 33.8329 39.1439 33.8329 38.5V30.3334H37.3329C41.8363 30.3334 45.4995 26.67 45.4995 22.1668C45.4995 17.6635 41.8362 14 37.333 14ZM37.333 28H32.6664C32.0224 28 31.4998 28.5227 31.4998 29.1666V37.3332H29.1664V16.3332H37.333C40.5495 16.3332 43.1664 18.95 43.1664 22.1666C43.1663 25.3832 40.5495 28 37.333 28Z" fill="white"/>
<path d="M68.8332 67.6666H64.1666C63.5227 67.6666 63 68.1892 63 68.8332C63 69.4771 63.5227 69.9998 64.1666 69.9998H68.8332C69.4772 69.9998 69.9999 69.4771 69.9999 68.8332C69.9999 68.1892 69.4772 67.6666 68.8332 67.6666Z" fill="white"/>
<path d="M28 67.6666H1.16662C0.522676 67.6666 0 68.1892 0 68.8332C0 69.4771 0.522676 69.9999 1.16662 69.9999H28C28.6439 69.9999 29.1666 69.4772 29.1666 68.8333C29.1666 68.1894 28.6439 67.6666 28 67.6666Z" fill="white"/>
<path d="M55.9996 67.6666H41.9996C41.3557 67.6666 40.833 68.1892 40.833 68.8332C40.833 69.4771 41.3557 69.9999 41.9996 69.9999H55.9996C56.6436 69.9999 57.1663 69.4772 57.1663 68.8333C57.1663 68.1894 56.6436 67.6666 55.9996 67.6666Z" fill="white"/>
</g>
<defs>
<clipPath id="clip0_1_211">
<rect width="70" height="70" fill="white"/>
</clipPath>
</defs>
</svg>
