<svg width="70" height="70" viewBox="0 0 70 70" fill="none" xmlns="http://www.w3.org/2000/svg">
<path d="M58.9163 0C56.9833 0 55.4163 1.56698 55.4163 3.5V4.66667H29.7497C26.5297 4.67046 23.9201 7.28 23.9163 10.5V16.3333H21.583C19.65 16.3333 18.083 17.9003 18.083 19.8333V23.8525C13.0012 26.9849 9.90934 32.5303 9.91634 38.5V39.8813C8.5229 40.374 7.58913 41.6888 7.58301 43.1667V45.5C7.58301 46.1443 8.10538 46.6667 8.74967 46.6667H46.083C46.7273 46.6667 47.2497 46.1443 47.2497 45.5V43.1667C47.2436 41.6888 46.3098 40.374 44.9163 39.8813V38.5C44.9232 33.8543 43.0755 29.3981 39.783 26.1205C38.868 25.2382 37.8494 24.47 36.7497 23.8327V19.8333C36.7497 17.9003 35.1827 16.3333 33.2497 16.3333H30.9163V12.8333C30.9163 12.189 31.4387 11.6667 32.083 11.6667H55.4163V14C55.4163 15.933 56.9833 17.5 58.9163 17.5H62.4163V0H58.9163ZM44.9163 43.1667V44.3333H9.91634V43.1667C9.91634 42.5224 10.4387 42 11.083 42H43.7497C44.394 42 44.9163 42.5224 44.9163 43.1667ZM38.1392 27.7737C40.9902 30.6144 42.5897 34.4753 42.583 38.5V39.6667H12.2497V38.5C12.2459 33.2284 15.0293 28.3477 19.5682 25.6667H35.2727C36.3163 26.2405 37.2801 26.9488 38.1392 27.7737ZM33.2497 18.6667C33.894 18.6667 34.4163 19.189 34.4163 19.8333V23.3333H20.4163V19.8333C20.4163 19.189 20.9387 18.6667 21.583 18.6667H33.2497ZM55.4163 9.33333H32.083C30.15 9.33333 28.583 10.9003 28.583 12.8333V16.3333H26.2497V10.5C26.2497 8.56698 27.8167 7 29.7497 7H55.4163V9.33333ZM60.083 15.1667H58.9163C58.2721 15.1667 57.7497 14.6443 57.7497 14V3.5C57.7497 2.85571 58.2721 2.33333 58.9163 2.33333H60.083V15.1667Z" fill="white"/>
<path d="M27.4167 49C26.7724 49 26.25 49.5224 26.25 50.1667V54.8333C26.25 55.4776 26.7724 56 27.4167 56C28.061 56 28.5833 55.4776 28.5833 54.8333V50.1667C28.5833 49.5224 28.061 49 27.4167 49Z" fill="white"/>
<path d="M27.4167 58.3334C26.7724 58.3334 26.25 58.8557 26.25 59.5V64.1667C26.25 64.811 26.7724 65.3334 27.4167 65.3334C28.061 65.3334 28.5833 64.811 28.5833 64.1667V59.5C28.5833 58.8557 28.061 58.3334 27.4167 58.3334Z" fill="white"/>
<path d="M41.4167 53.6666C40.7724 53.6666 40.25 54.189 40.25 54.8333V59.5C40.25 60.1443 40.7724 60.6666 41.4167 60.6666C42.061 60.6666 42.5833 60.1443 42.5833 59.5V54.8333C42.5833 54.189 42.061 53.6666 41.4167 53.6666Z" fill="white"/>
<path d="M32.0837 53.6666C31.4394 53.6666 30.917 54.189 30.917 54.8333V59.5C30.917 60.1443 31.4394 60.6666 32.0837 60.6666C32.728 60.6666 33.2503 60.1443 33.2503 59.5V54.8333C33.2503 54.189 32.728 53.6666 32.0837 53.6666Z" fill="white"/>
<path d="M22.7497 53.6666C22.1054 53.6666 21.583 54.189 21.583 54.8333V59.5C21.583 60.1443 22.1054 60.6666 22.7497 60.6666C23.394 60.6666 23.9163 60.1443 23.9163 59.5V54.8333C23.9163 54.189 23.394 53.6666 22.7497 53.6666Z" fill="white"/>
<path d="M13.4167 53.6666C12.7724 53.6666 12.25 54.189 12.25 54.8333V59.5C12.25 60.1443 12.7724 60.6666 13.4167 60.6666C14.061 60.6666 14.5833 60.1443 14.5833 59.5V54.8333C14.5833 54.189 14.061 53.6666 13.4167 53.6666Z" fill="white"/>
<path d="M18.0837 49C17.4394 49 16.917 49.5224 16.917 50.1667V54.8333C16.917 55.4776 17.4394 56 18.0837 56C18.7279 56 19.2503 55.4776 19.2503 54.8333V50.1667C19.2503 49.5224 18.7279 49 18.0837 49Z" fill="white"/>
<path d="M36.7497 49C36.1054 49 35.583 49.5224 35.583 50.1667V54.8333C35.583 55.4776 36.1054 56 36.7497 56C37.394 56 37.9163 55.4776 37.9163 54.8333V50.1667C37.9163 49.5224 37.394 49 36.7497 49Z" fill="white"/>
<path d="M36.7497 58.3334C36.1054 58.3334 35.583 58.8557 35.583 59.5V64.1667C35.583 64.811 36.1054 65.3334 36.7497 65.3334C37.394 65.3334 37.9163 64.811 37.9163 64.1667V59.5C37.9163 58.8557 37.394 58.3334 36.7497 58.3334Z" fill="white"/>
<path d="M18.0837 58.3334C17.4394 58.3334 16.917 58.8557 16.917 59.5V64.1667C16.917 64.811 17.4394 65.3334 18.0837 65.3334C18.7279 65.3334 19.2503 64.811 19.2503 64.1667V59.5C19.2503 58.8557 18.7279 58.3334 18.0837 58.3334Z" fill="white"/>
<path d="M22.7497 63C22.1054 63 21.583 63.5224 21.583 64.1667V68.8333C21.583 69.4776 22.1054 70 22.7497 70C23.394 70 23.9163 69.4776 23.9163 68.8333V64.1667C23.9163 63.5224 23.394 63 22.7497 63Z" fill="white"/>
<path d="M32.0837 63C31.4394 63 30.917 63.5224 30.917 64.1667V68.8333C30.917 69.4776 31.4394 70 32.0837 70C32.728 70 33.2503 69.4776 33.2503 68.8333V64.1667C33.2503 63.5224 32.728 63 32.0837 63Z" fill="white"/>
</svg>
