<svg width="70" height="70" viewBox="0 0 70 70" fill="none" xmlns="http://www.w3.org/2000/svg">
<g clip-path="url(#clip0_1_193)">
<path d="M57.6334 52.4863C58.8643 51.1059 58.8086 49.0059 57.5062 47.6925L54.0471 44.2334C58.6791 38.1978 58.1275 29.6654 52.7567 24.2765L37.8165 9.33392L38.1175 9.03292C40.1838 6.96662 40.1838 3.61627 38.1175 1.54997C36.0512 -0.516331 32.7008 -0.516331 30.6345 1.54997L24.5002 7.68426L17.883 1.06697C16.4609 -0.35504 14.1553 -0.35504 12.7333 1.06697C11.3113 2.48898 11.3113 4.79459 12.7333 6.21661L19.3506 12.8339L12.8337 19.3509L6.21636 12.7336C4.79435 11.3116 2.48874 11.3116 1.06673 12.7336C-0.355284 14.1556 -0.355284 16.4612 1.06673 17.8832L7.68402 24.5005L1.54972 30.6348C-0.516575 32.7011 -0.516575 36.0514 1.54972 38.1177C3.61602 40.184 6.96638 40.184 9.03268 38.1177L9.33368 37.8167L24.2762 52.7593C29.6607 58.14 38.2008 58.6922 44.2331 54.0496L47.6923 57.5088C49.0008 58.8222 51.1097 58.8782 52.4861 57.636L64.8503 70.0002H70V64.8506L57.6334 52.4863ZM14.383 4.56695C13.872 4.05595 13.872 3.22763 14.383 2.71663C14.894 2.20563 15.7223 2.20563 16.2333 2.71663L22.8506 9.33392L21.0003 11.1842L14.383 4.56695ZM2.71638 16.2335C2.20539 15.7225 2.20539 14.8942 2.71638 14.3832C3.22738 13.8722 4.05571 13.8722 4.56671 14.3832L11.184 21.0005L9.33368 22.8508L2.71638 16.2335ZM7.68402 36.1671L7.38302 36.4681C6.20951 37.6051 4.33644 37.5757 3.19938 36.4022C2.08755 35.2548 2.08755 33.4319 3.19938 32.2844L9.33368 26.1502L14.4833 21.0005L21.0003 14.4836L26.1499 9.33392L32.2842 3.19963C33.4577 2.06257 35.3308 2.09203 36.4678 3.26554C37.5797 4.41295 37.5797 6.23586 36.4678 7.38327L36.1668 7.68426L7.68402 36.1671ZM44.0756 51.1097C39.0604 56.1135 30.9411 56.1135 25.9259 51.1097L10.9833 36.1671L36.1668 10.9836L51.1094 25.9262C56.1132 30.9413 56.1132 39.0606 51.1094 44.0759L44.0756 51.1097ZM50.9916 55.8591C50.536 56.3146 49.7975 56.3146 49.3419 55.8591L45.9831 52.5003L52.5001 45.9834L55.8589 49.3422C56.3143 49.7978 56.3143 50.5363 55.8589 50.9918L50.9916 55.8591ZM67.6666 67.6669H65.8163L54.1497 56.0003L56 54.15L67.6666 65.8166V67.6669Z" fill="white"/>
<path d="M43.146 42.9511L39.646 24.2845C39.5263 23.6514 38.916 23.2352 38.2829 23.355C38.0529 23.3984 37.8412 23.5101 37.6755 23.6755L34.2595 27.0915L32.583 22.9009C32.4372 22.5367 32.1181 22.2701 31.7337 22.1915C31.3496 22.11 30.9505 22.2296 30.6744 22.5089L24.8411 28.3422C24.5111 28.6719 24.4093 29.1665 24.5821 29.5998L29.2487 41.2664C29.4878 41.8648 30.1665 42.1561 30.765 41.9171C30.912 41.8584 31.0455 41.7704 31.1574 41.6584L35.0004 37.8166L41.1755 43.9917C41.6318 44.4466 42.3704 44.4456 42.8254 43.9893C43.0967 43.7171 43.2166 43.3288 43.146 42.9511ZM35.8252 35.3421C35.3696 34.8867 34.6311 34.8867 34.1755 35.3421L30.7596 38.7581L27.0367 29.4493L31.0746 25.4103L32.751 29.601C32.9901 30.1993 33.6688 30.4907 34.2673 30.2517C34.4143 30.1929 34.5478 30.105 34.6597 29.993L37.7618 26.8908L40.1605 39.6763L35.8252 35.3421Z" fill="white"/>
</g>
<defs>
<clipPath id="clip0_1_193">
<rect width="70" height="70" fill="white"/>
</clipPath>
</defs>
</svg>
