<?xml version="1.0" encoding="utf-8"?><svg viewBox="0 0 431 429" xmlns="http://www.w3.org/2000/svg" xmlns:xlink="http://www.w3.org/1999/xlink"><style>:root>svg{display:none}:root>svg:target{display:block}</style><svg fill="none" viewBox="0 0 431 429" id="area-map" xmlns="http://www.w3.org/2000/svg"><path d="M214.7 349.7c2.3 3.8-5.6 18.5-6.8 25.2-1.1 6.8-6 29.8-9.4 32.4-3.4 2.6-4.5-2.6-4.5-2.6s-.4-3.4-2.6-8.3-6.4-1.5-2.2-6c4.1-4.5 3.8-1.1 5.3-6.8 1.5-5.6-1.5-4.5 1.5-8.3 3-3.8-1.1-1.1 4.1-4.1 5.3-3 6-2.6 7.2-5.3 1.1-2.6 1.1.4 1.5-4.9.3-5.3 3.7-15.1 5.9-11.3ZM26 314.7c3 4.5 4.1 5.7 2.3 6.4-1.9.8-3-.8-5.7-.4-2.6.4-10.2-16.6-2.6-14.7 0 0 3.8-1.9 5.3 2.6 1.5 4.6-2.3 1.5.7 6.1ZM49.4 125.2c-.4-1.9-.4-1.5.8-7.9 1.1-6.4 3-2.6 4.5-4.1 1.5-1.5 1.1-.4 4.1 0 3 .4 2.3.4 4.5-2.3 2.3-2.6 2.3-3.8 5.3-5.7 3-1.9 1.9 0 3 2.6s-3.8 5.3-7.5 7.5c-3.8 2.3.4 3.4 1.9 7.5s-.4 3.8-3.8 8.7c-3.4 4.9-8.7 9.4-8.7 9.4-3.4 4.1-3.4 3.8-4.9 2.6-1.5-1.1-2.6-4.5-4.1-7.5-1.5-3-.8-4.1 3-6 3.8-1.7 2.3-2.9 1.9-4.8ZM184.6 362.5c-3.4 0-6 .8-8.3-1.1-2.3-1.9-3.4-5.3-10.9-4.5-7.5.8-12.1 4.5-14.3.8-2.3-3.8 9.4-12.4 1.9-14.7-7.5-2.3-6-3.4-9.4-2.6-3.4.8-4.1.8-4.1 2.3 0 1.5-3.4-.8-2.6-6.8.8-6 1.1-1.9.8-6-.4-4.1-2.6-4.1-3-6-.4-1.9-.8-1.1-2.6-2.3-1.9-1.1-3-1.5-3.4-3.4-.4-1.9.4-.8.8-5.7s1.5-5.6-1.5-6.8c-3-1.1-5.3-4.5-3.8-6.4 1.5-1.9 3-3.4 7.2-1.9 0 0 7.5 7.2 9.8 4.1 2.3-3 5.7-5.6 10.9-7.5 5.3-1.9 9-1.1 12.8-1.5 3.8-.4 4.5 1.1 7.1 3 2.6 1.9 6.4-4.5 10.2.4 3.8 4.9-.8 4.5.8 9 1.5 4.5 1.1 9.8 4.2 5.6 3-4.1 3-3.4 3-7.9s-4.5-4.1 0-4.5c4.5-.4 3-7.9 7.9-3.4s7.2 6 6.4 10.9c-.8 4.9-6.4 3.8-4.1 9 2.3 5.3 2.6 3 5.3 6.8 2.6 3.8 3 3.4 2.3 8.3-.8 4.9-1.5 20-4.9 24.1-3.4 4.1-3.4 3-6.8 3.8-3.4.8-4.9 0-6.4 1.9-1.9 1.9-1.9 3-5.3 3ZM334.5 374.9c-2.3.8-2.3 0-8.7.4-6.4.4-3.4 2.3-4.9 5.3-1.5 3-2.6 3-10.2 4.9-7.5 1.9-4.5-2.3-4.5-2.3s.4-6.8 1.9-7.2c1.5-.4 3.4-.4 5.6-.4 2.3 0 2.6-.8 4.1-3.8 1.5-3 2.6-4.9 6-7.5 3.4-2.6 3.4-1.1 10.2 2.6 6.9 3.9 2.7 7.3.5 8ZM342.4 265.7c2.6 2.3-.4 10.2-4.5 13.2-4.2 3-1.9 1.1-4.9 5.6-3 4.5-9 6.8-11.3 7.9-2.3 1.1-2.6 1.9-7.5 6.4l-.6.6c-4 4-1.2 5.2-.5 8.8.8 3.8 6 6.4 11.3 7.5 5.3 1.1 4.9 0 7.5 3.8 2.6 3.8-2.6 8.7-8.3 9.4-5.7.8-6-3.4-11.7-1.9-5.7 1.5-1.1 10.9-7.5 16.6-1 .9-1.7 1.6-2.2 2.1-2.9 3.1.1 2-1.2 3.6-1.5 1.9 1.9 4.5 4.9 7.9 3 3.4 3.8 4.9 3.4 9.8-.4 4.9-3 3.4-10.2 4.9-7.2 1.5-19.6-1.9-21.8-3.8-2.3-1.9 7.1-2.3 5.6-5.6-1.5-3.4-6.8-6.8-5.6-8.7 1.1-1.9 2.3-4.9 1.5-7.2-.8-2.3-1.5-2.6-6-4.5s-2.3 1.1-5.6 2.3c-2.7.9-3 .8-7-.7-1-.4-2.3-.9-3.9-1.5-7.9-3-11.3.8-11.3.8-9.8 1.1-7.9-6-4.5-7.9 3.4-1.9 0-3.4-1.1-6s-.4-1.9-1.9-7.5c-1.5-5.7 0-2.6.8-4.5s1.9-3.4 1.9-5.3-4.5-6-8.3-7.9c-3.8-1.9-1.1-5.7 1.9-7.9 3-2.3-.8-6-3-9.4-2.3-3.4-5.6-3.4-5.6-5.6 0-2.3.8-3.4-1.1-6.4-1.9-3-13.6-3.8-10.2-7.9 3.4-4.1 5.3 2.6 6.8 2.6s1.1 4.2 4.9 1.5c3.8-2.6 1.9-.4 3.8.8 1.9 1.1 2.6 4.9 4.5 5.3 1.9.4 3-.8 5.6-2.6 2.6-1.9 1.9-1.9 4.9-2.6 3-.8 4.1-1.5 4.5-6.8.4-5.3 3-6.8 4.9-7.9 1.9-1.1.8-1.1 4.9-3.8 4.1-2.6 4.1-3.4 1.9-7.5-2.3-4.1-9 1.5-14.3-.4-5.3-1.9 10.5-2.3 12.8-4.1 2.3-1.9 3 .4 7.5.4s6-.8 9.8.4c3.8 1.1 3 1.9 2.6 4.5-.4 2.6-1.5.8-5.7 2.6-4.1 1.9 0 3.4 1.5 5.6 1.5 2.3-.4 2.6-3 5.7-2.6 3-1.1 3.4 0 3.8 1.1.4 1.9 1.9 5.3 3s2.6 1.1 2.6 4.5c0 1.2.1 2.4.3 3.6.4 2.1 1.3 3.8 3.1 3.6 2.6-.4 1.5-7.5 4.1-10.5 2.6-3-.8-4.1-1.1-9-.4-4.9-1.9-4.2 4.1-7.5 6-3.4 2.6 0 6.8 3 4.1 3 0 10.5 1.1 12.4 1.1 1.9.4 2.2-3 3.4-3.4 1.1-1.5 2.6-2.6 5.7-1.1 3 .8 5.3 4.1 5.6 1 .1 1.7.2 2.2.1 1.2 0 1.7-.4 3.8-.9 3-.8 4.1-7.8 1.6-10.5l-.1-.1c-2.6-2.6-2.6-6.8-3.4-9.4-.8-2.6.8-9 .4-12.1-.4-3-2.3-2.6-7.9-5.3-5.7-2.6-1.1-4.5.4-8.7 1.5-4.1 1.1-3.4 7.9-7.2 6.8-3.8 9-2.3 16.2-3.4 7.2-1.1 8.3-1.5 13.2-.4 4.9 1.1 4.1 1.1 10.2 6 6 4.9 2.3 4.5 0 8.7-2.3 4.1.4 6.4-1.9 12.4s-.4 4.1 0 6.8c.1.5.1 1.1.2 1.6.2 2 .9 4.3 3 6.1ZM284 405.4c-1.1 6 .8 5.3-1.9 8.7-2.6 3.4-5.3 5.3-7.9 4.5-2.6-.8-9.4-1.5-12.8.4-3.4 1.9-2.3 4.5-7.2 1.1s-5.3-4.1-7.5-5.6c-2.3-1.5-5.6-3.4-5.6-3.4s-5.6-1.5-9.8-1.5c-4.1 0-4.9-3-6.8-5.3-1.9-2.3 0-2.6-4.1-4.1-4.1-1.5-3-6.4-1.9-8.7 1.1-2.2 3-1.1 6-1.9 3-.8 0-5.6-1.1-7.9-1.1-2.3-4.1-2.6.8-7.5 4.9-4.9 4.5-5.3 9.8-6 5.3-.8 7.5-1.1 12.4 3s7.5 9.4 8.7 13.9c1.1 4.5 2.3 6 4.1 6.8 1.8.8 6 0 6 0l1.9-1.9s3.4-6.4 5.6-2.6c2.3 3.8-.8 2.3 2.6 7.2 3.4 4.9 3 3.8 4.9 5.6 1.9 1.8 4.9-.8 3.8 5.2Z" fill="#E9ECE0"/><path d="M124.7 382.1c.4 3.8 1.1 2.3-2.6 3.8-3.8 1.5-4.1 1.5-3.4 3 .8 1.5-1.9 5.7-4.5 1.9-2.6-3.8-5.6-9.8-8.7-7.1-3 2.6-2.6 2.3-3.8 4.1-1.1 1.9-1.5 2.6-3.4 3-1.9.4-6.4.4-10.9-.4s-6.4-1.9-9-4.9c-2.6-3-1.1-4.1-5.6-4.9-4.5-.8-3 .4-8.7-.4-5.6-.8-7.9-7.2-13.6-5.7-5.6 1.5-4.1 5.3-9.4 3 0 0 3-1.9.8-7.2-2.3-5.3-5.3-.8-3.8-7.5 1.5-6.8.8-5.3 2.6-9.8 1.9-4.5.8-5.7 1.5-11.3.2-1.7.4-2.4.6-2.7.4-.8.4.4-.6-4.8-1.5-7.5 2.3-15.8.8-24.1-1.5-8.3-6.8-8.7-11.7-8.7-4.9 0-8.3-3.4-10.6-4.9-2.3-1.5-2.6-1.1-3.8.4-1.1 1.5-.4 7.5-4.1 6.4-3.8-1.1-7.5-7.1-7.5-15.8 0-8.7.4-5.3 3.8-15.1s0-7.5.4-11.7c.1-1.1 1.3-2.2 3-3.3 4.7-3.1 13.3-6.6 13.6-12.1.4-7.5-5.6-21.8-10.9-21.8-5.3 0-3.4 2.6-9.4 1.1s-6-13.6-4.5-20.3c1.5-6.8 2.6-17.3 8.3-17.7 5.7-.4 9.8 6.8 10.9 3.4 1.1-3.4 2.6-5.6 1.1-8.7-1.5-3-6-1.9-7.5-2.6-1.5-.8-2.6-1.5-2.3-4.1.4-2.6-.8-20 4.9-24.5 5.6-4.5 12.1-1.1 18.4 4.2 6.4 5.3 5.3 2.6 10.6 10.2 5.3 7.5 6.4 8.3 8.7 0 .3-1.2.4-2.1.4-3-.2-5.1-5.5-4.9 0-9.1 6.4-4.9 12.4-4.1 13.6-9.8 1.1-5.7-1.5-6.4 1.9-9 3.4-2.6-.4-6 6.8-5.3 7.2.8 12.8.8 9 10.2-3.8 9.4-7.9 11.3-7.2 15.1.8 3.8 4.5 4.5 6.4 4.2 1.9-.4 3-7.2 5.6-3 2.6 4.1 2.6 4.1 5.3 6.4 2.6 2.2 5.7 5.3 7.9 2.6 2.3-2.6 4.9-7.1 4.5-9.4-.4-2.3-.8-3.8-3.8-1.9s-6.4 1.9-6.8-.8c-.4-2.6-.4-5.6-.8-6.8-.4-1.1-.8-1.1-2.6-.8-.3.1-.6.1-.9.2-1.3.3-2.1.6-2.1.6s-4.1-2.3.4-6.8 5.7-4.9 4.9-6c-.8-1.1-1.9-3-4.5-3.4-2.6-.4-3.8-3-3.8-3s10.2-5.3 6.8-7.5c-3.4-2.3-8.3 1.5-7.2-2.6 0 0 1.1-10.9 9.8-13.2 8.7-2.3 16.6-1.5 18.1 2.3s1.9 7.2 4.5 5.3c2.6-1.9 3.8-10.5 5.7-12 1.9-1.5 6 1.9 13.6-.8 3.9-1.4 2.9-4.5 1.6-7.3-1 2.3-1.4 4.4-4 3.9-4.1-.7-10.9-2.7-10.9-2.7l-15 6.2s-5.5 2.7-13 2.1c-7.5-.7-6.2-2.1-9.6-2.1-2.4 0-2.8.3-5.2.8-1 .2-2.4.4-4.4.6-6.8.7-6.8 1.4-10.9 2.7-4.1 1.4-1.4-.7-6.2 1.4-4.8 2.1-4.8-2.7-8.2 2.1-3.4 4.8-4.1 8.2-6.8 10.9-2.7 2.7-6.8 2.7-8.9 6.8-2 4.1-2.7 6.2-2 8.2 1.4 4.1-4.1.7.7 6.2s5.5 2.7 4.1 6.8c-1.4 4.1 1.4 3.4 0 6.2-1.4 2.7-1.4 4.8-5.5.7s-3.4-10.3-8.2-8.2c-4.8 2.1-3.4-6.1-4.8-8.2-1.4-2.1-2.7-6.8-4.8-3.4-2 3.4-.7 6.8-2 3.4-1.4-3.4 3.4-9.6 9.6-21.9 6.1-12.3 2.1-12.3 5.5-21.2 3.4-8.9 28.7-6.8 34.9-4.8 4 1.3 7.1-1.7 10.5-4.3 1.8-1.4 3.7-2.7 5.9-3.2 6.2-1.4 3.4 2.7 11.6 2 8.2-.7 29.4-12.3 28-26.6-1.4-14.4 10.9-26 22.5-31.4 11.6-5.5 17.1 2.1 23.2 0 6.2-2 20.5-19.8 27.3-21.9 6.8-2.1 8.2 2 .7 6.1 0 0-15 6.2-13.7 17.8 1.4 11.6 4.8 12.3 4.1 21.2-.7 8.9-5.5 14.3-.7 20.5 4.8 6.2 6.2 7.5 2.7 13.7-3.4 6.2-10.2 10.9-10.2 17.1 0 6.2-9.6 8.2-15 0-5.5-8.2-4.1-13-9.6-13s-4.8-.7-8.9 2c-.1.1-.2.1-.3.2 1.7 2.4 3.4 6.1 5.7 8.4 3.8 3.8 16.9 9.4 21.1 15.8 4.1 6.4-.8 12 1.9 20.7 2.6 8.7-4.5 4.9-7.5 7.9s-4.5 1.1.4 5.3c4.9 4.1 7.2 4.5 6.8 6.4-.4 1.9-6 3.8-1.9 4.1 4.1.4 1.9 11.3 9.8 12.8s7.9-3 17.7-.8c9.8 2.3 14.3 4.1 15.8 12.4s-13.9 20-13.2 26.7c.8 6.8.8 5.6 1.9 9.8 1.1 4.1-4.5 6.8-7.5 3s-.4-9.4-3.4-10.2c-3-.8-4.1-.4-5.3 3-1.1 3.4-3.8 1.9-3 4.5.8 2.6 8.3 2.3 2.3 3.8-6 1.5-2.6-7.2-3.8-9-1.1-1.9-3-1.1-4.9-1.1-1.9 0 12.1-7.5 6.4-11.7-5.6-4.2-6-5.7-9.4-2.6-3.4 3-2.3 3.4-3 7.2-.8 3.8-.4 7.1 1.1 12.1 1.5 4.9-4.1 12.1-4.1 19.6 0 7.5-.4 8.7-3.4 12.8-3 4.1-5.6 7.2-5.6 7.2s-3 1.9-7.9 1.9c-1.5 0-3-.5-4.4-1.1-3.2-1.3-6.2-3.2-8-.8-2.6 3.4-3.8 6-2.6 8.7 1.1 2.6 9 9.8 5.6 13.2-3.4 3.4-6 5.3-10.9 3.4s-6.8-5.6-9-2.6c-2.3 3-2.6 6-2.6 6s4.5-2.3 7.2-.8c2.6 1.5 3.4 1.5 5.3 2.2 1.9.8-5.3 8.3-5.3 8.3l-4.9 2.3s-4.9-.8-7.5 2.3c-2.6 3-7.5 1.5-4.9 4.1 2.6 2.6 11.7-.8 9.4 3.8-1.7 3.4-4.8 9-4.1 13.7.2 1.6.9 3.1 2.3 4.4 5.3 4.9 6.4 4.1 6.8 11.3.4 7.2-7.2 5.6-10.2 9.4-3 3.8-4.5.8-6.4 4.1-1.9 3.4-4.1 2.3-1.9 5.3 2.3 3 6.4 1.1 3.4 4.5-3 3.4-13.2 4.1-9 5.3 4.2 1.1 6.8-1.5 12.8 2.3 6 3.8 9.8 2.3 11.3 7.9.9 5.3.9 4.5 1.3 8.3ZM176.7 381.7c6.4 8.3 7.5 7.9 5.3 9.8-2.3 1.9-4.1.8-6 1.9-1.9 1.1-7.9-1.5-9.4-6.8s0-4.9-3.4-6.4-4.9-7.9-1.5-7.5c0 0 3 1.5 6 5.6s1.9 6 4.5 4.9c2.6-1.1-1.9-9.8 4.5-1.5Z" fill="#E9ECE0"/><path d="M174.4 267.2c2.3-8.3-2.6-9 .8-9.8 3.4-.8 7.2 1.5 4.5-2.6-2.6-4.1-6.4-13.2-2.6-12.8 0 0 6 6 7.9 11.7 1.9 5.7 4.5 4.2 1.5 10.6-3 6.4-3 6.4-5.3 7.9-2.3 1.4-9 3.3-6.8-5ZM308.1 393.4c-1.5 6.4-3 5.3-7.2 9-4.1 3.8-6.4 3.8-5.6 7.9.8 4.1 1.1 7.2 1.1 8.7 0 1.5 3.8 1.1 0 4.5s-6.4 4.9-6.4 4.9-1.9-3-1.9-10.9.4-10.2.4-13.6c0-3.4-2.3-3-2.6-4.9-.4-1.9.4-3.4-1.1-4.9-1.5-1.5-3.4-10.9-7.2-10.9-3.8 0-.4-4.5-.4-4.5s3.4-5.3 8.3-2.3 3.8 4.9 6.4 5.7c2.6.8 0-2.3 4.5 1.5s3.4 1.9 6.4 5.6c3.1 3.8 6.8-2.2 5.3 4.2ZM146.9 370.8c2.3 3.8 4.1 5.6 2.6 8.7-1.5 3-2.3 4.9-6.4 5.3-4.1.4-7.2-.8-7.2-.8s-2.3-6.4-3.4-7.1c-1.1-.8-2.3 0-2.6-1.1-.4-1.1 1.1-1.5 0-4.9-1.1-3.4-1.1-3.4-4.1-4.1-3-.8-3 .8-4.1-2.3-1.1-3.1 3-11.3 6-8.3 0 0 2.6 10.5 9 11.7 6.5 1 8-.9 10.2 2.9Z" fill="#E9ECE0"/><path d="M241.856 377.43c.63 0 1.521-.147 2.058.244.399.291.68.859.911 1.281.307.562-.393 2.189-.911 2.545-1.042.716-1.914.5-2.914.5-1.008.026-1.84-.478-2.375-1.384-1.174-1.987 1.429-3.348 3.068-3.348M335.856 266.43c.63 0 1.521-.147 2.058.244.399.291.68.859.911 1.281.307.562-.393 2.189-.911 2.545-1.042.716-1.914.5-2.914.5-1.008.026-1.84-.478-2.375-1.384-1.174-1.987 1.429-3.348 3.068-3.348" stroke="#5B6460" stroke-linecap="round" stroke-linejoin="round"/><path d="M187.288 346.512c.144-.384.48-.576 1.008-.576.16 0 .304.032.432.096.544 1.2 1.168 2.888 1.872 5.064a125.95 125.95 0 0 0 2.136 6.096c.736 1.888 1.552 3.48 2.448 4.776.88-.256 1.824-2.264 2.832-6.024.416-1.552.84-3.096 1.272-4.632.432-1.536.92-2.832 1.464-3.888.544-1.056 1.104-1.584 1.68-1.584.224 0 .464.064.72.192-.416.4-.856 1.288-1.32 2.664a82.605 82.605 0 0 0-1.368 4.512 128.204 128.204 0 0 1-1.44 4.824c-.496 1.584-1.096 2.904-1.8 3.96-.688 1.056-1.424 1.584-2.208 1.584-1.088 0-2.336-1.84-3.744-5.52-.752-1.92-1.32-3.432-1.704-4.536-.384-1.12-.832-2.472-1.344-4.056a133.81 133.81 0 0 0-.936-2.952Zm17.282 11.616a8.01 8.01 0 0 0-.048.648c0 .96.288 1.704.864 2.232a3.036 3.036 0 0 0 2.088.792c.8 0 1.448-.112 1.944-.336.512-.224.88-.464 1.104-.72.576-.72 1.104-1.08 1.584-1.08.176 0 .384.048.624.144-.16.784-.768 1.504-1.824 2.16-1.04.64-2.352.96-3.936.96-1.12 0-2.088-.352-2.904-1.056-.8-.72-1.2-1.696-1.2-2.928s.24-2.424.72-3.576a8.277 8.277 0 0 1 2.112-2.976c.928-.832 1.864-1.248 2.808-1.248.96 0 1.728.2 2.304.6.592.384.888.952.888 1.704 0 1.392-.624 2.544-1.872 3.456-1.232.896-2.544 1.344-3.936 1.344-.368 0-.808-.04-1.32-.12Zm1.824-.792c.752 0 1.424-.24 2.016-.72.592-.48 1.008-.984 1.248-1.512.256-.528.384-1.008.384-1.44 0-.432-.168-.808-.504-1.128-.336-.336-.728-.504-1.176-.504-.8 0-1.544.552-2.232 1.656a12.061 12.061 0 0 0-1.44 3.432c.704.144 1.272.216 1.704.216Zm14.319-3.936c-.144-.368-.416-.656-.816-.864-.4-.208-.896-.312-1.488-.312s-1.152.176-1.68.528c-.512.352-.768.824-.768 1.416s.24 1.064.72 1.416c.496.336 1.088.592 1.776.768.704.176 1.408.368 2.112.576.704.192 1.296.52 1.776.984.496.448.744 1.04.744 1.776 0 1.072-.448 1.888-1.344 2.448-.88.56-1.944.84-3.192.84-.736 0-1.704-.2-2.904-.6-1.184-.4-1.776-.88-1.776-1.44 0-.416.352-.624 1.056-.624.208 0 .48.128.816.384 1.024.752 2.072 1.128 3.144 1.128.576 0 1.072-.096 1.488-.288.768-.368 1.152-.96 1.152-1.776 0-.496-.248-.896-.744-1.2-.48-.304-1.072-.544-1.776-.72a58.808 58.808 0 0 1-2.088-.576 4.29 4.29 0 0 1-1.8-1.032c-.48-.496-.72-1.12-.72-1.872 0-.976.44-1.768 1.32-2.376.88-.608 1.968-.912 3.264-.912.88 0 1.672.232 2.376.696.72.448 1.08 1.104 1.08 1.968 0 .576-.328.864-.984.864-.272 0-.456-.048-.552-.144-.08-.096-.128-.264-.144-.504 0-.256-.016-.44-.048-.552Zm4.454-.456c-.72 0-1.208-.176-1.464-.528a.69.69 0 0 1 .312-.6 1.71 1.71 0 0 1 .72-.264c.256-.048.672-.088 1.248-.12.048-.432.072-.984.072-1.656.016-.688.032-1.272.048-1.752.048-1.264.24-2.04.576-2.328a.679.679 0 0 1 .456-.192c.176 0 .328.016.456.048a78.51 78.51 0 0 1 .072 2.088l-.144 3.6c.032.016.12.024.264.024l1.728-.072c1.248 0 1.872.192 1.872.576 0 .544-.224.864-.672.96a3.348 3.348 0 0 1-.744.072c-.272 0-.632-.032-1.08-.096-.432-.08-.744-.12-.936-.12-.192 0-.32.008-.384.024-.048.464-.072.928-.072 1.392 0 .448.008 1.016.024 1.704.032.672.096 1.48.192 2.424.112.944.344 1.76.696 2.448.352.672.8 1.008 1.344 1.008.272 0 .592-.104.96-.312.368-.224.648-.336.84-.336a.93.93 0 0 1 .528.144c.16.08.24.176.24.288 0 .336-.344.664-1.032.984-.672.304-1.248.456-1.728.456-1.76 0-2.856-1.664-3.288-4.992-.128-.96-.224-2.608-.288-4.944a4.425 4.425 0 0 1-.816.072Zm9.801 5.184a8.01 8.01 0 0 0-.048.648c0 .96.288 1.704.864 2.232a3.036 3.036 0 0 0 2.088.792c.8 0 1.448-.112 1.944-.336.512-.224.88-.464 1.104-.72.576-.72 1.104-1.08 1.584-1.08.176 0 .384.048.624.144-.16.784-.768 1.504-1.824 2.16-1.04.64-2.352.96-3.936.96-1.12 0-2.088-.352-2.904-1.056-.8-.72-1.2-1.696-1.2-2.928s.24-2.424.72-3.576a8.277 8.277 0 0 1 2.112-2.976c.928-.832 1.864-1.248 2.808-1.248.96 0 1.728.2 2.304.6.592.384.888.952.888 1.704 0 1.392-.624 2.544-1.872 3.456-1.232.896-2.544 1.344-3.936 1.344-.368 0-.808-.04-1.32-.12Zm1.824-.792c.752 0 1.424-.24 2.016-.72.592-.48 1.008-.984 1.248-1.512.256-.528.384-1.008.384-1.44 0-.432-.168-.808-.504-1.128-.336-.336-.728-.504-1.176-.504-.8 0-1.544.552-2.232 1.656a12.061 12.061 0 0 0-1.44 3.432c.704.144 1.272.216 1.704.216Zm10.648 3.312.072 1.368c0 .352-.104.6-.312.744a1.066 1.066 0 0 1-.6.192c-.192 0-.392-.032-.6-.096-.352-1.856-.624-4.168-.816-6.936a417.45 417.45 0 0 0-.312-4.704c.24-.224.488-.336.744-.336.272 0 .512.032.72.096.064.464.112 1.488.144 3.072.032 1.584.072 2.576.12 2.976.224-1.344.624-2.6 1.2-3.768.32-.656.736-1.176 1.248-1.56.528-.4 1.088-.6 1.68-.6.608 0 1.16.272 1.656.816.512.528.768 1.008.768 1.44 0 .16-.096.288-.288.384a1.67 1.67 0 0 1-.648.12.617.617 0 0 1-.528-.264 1.571 1.571 0 0 1-.264-.576 1.277 1.277 0 0 0-.312-.6c-.16-.176-.376-.264-.648-.264-.72 0-1.336.648-1.848 1.944-.784 1.936-1.176 4.12-1.176 6.552Zm7.498-14.904c.192-.352.544-.528 1.056-.528.112 0 .224.016.336.048.032.848.048 3.216.048 7.104l.216-.216a8.91 8.91 0 0 0 .264-.24c.032-.032.112-.104.24-.216.128-.128.224-.208.288-.24.08-.048.184-.112.312-.192.128-.096.24-.16.336-.192.096-.048.208-.096.336-.144.24-.08.52-.12.84-.12 1.184 0 2.136.496 2.856 1.488a5.403 5.403 0 0 1 1.08 3.288c0 1.216-.184 2.376-.552 3.48a7.725 7.725 0 0 1-1.704 2.856c-.768.816-1.664 1.224-2.688 1.224-1.008 0-1.856-.376-2.544-1.128-.672-.752-1.008-1.608-1.008-2.568 0-.976.056-2.768.168-5.376.112-2.624.168-4.504.168-5.64 0-1.152-.016-2.048-.048-2.688Zm3.432 16.224c.624 0 1.184-.296 1.68-.888 1.008-1.168 1.512-2.824 1.512-4.968 0-1.152-.224-2.168-.672-3.048-.448-.896-1.08-1.344-1.896-1.344-.464 0-.872.232-1.224.696-.352.448-.624 1.048-.816 1.8-.368 1.424-.552 3.008-.552 4.752 0 1.472.304 2.376.912 2.712.272.16.624.256 1.056.288Zm7.948-8.928c.816-1.248 1.992-1.872 3.528-1.872s2.76.624 3.672 1.872c.928 1.248 1.392 2.672 1.392 4.272 0 1.584-.504 2.928-1.512 4.032S271.11 363 269.558 363s-2.68-.432-3.384-1.296c-.704-.88-1.056-2.112-1.056-3.696 0-2.064.4-3.72 1.2-4.968Zm1.056 1.272a13.404 13.404 0 0 0-.48 1.872 11.558 11.558 0 0 0-.144 1.752c0 .528.04 1.016.12 1.464.08.432.216.864.408 1.296.192.416.48.752.864 1.008.384.24.84.36 1.368.36 1.072 0 1.968-.44 2.688-1.32.736-.88 1.104-1.944 1.104-3.192 0-1.248-.336-2.456-1.008-3.624-.656-1.184-1.464-1.776-2.424-1.776-.576 0-1.08.2-1.512.6-.432.4-.76.92-.984 1.56Zm12.246 6.336.072 1.368c0 .352-.104.6-.312.744a1.066 1.066 0 0 1-.6.192c-.192 0-.392-.032-.6-.096-.352-1.856-.624-4.168-.816-6.936a417.45 417.45 0 0 0-.312-4.704c.24-.224.488-.336.744-.336.272 0 .512.032.72.096.064.464.112 1.488.144 3.072.032 1.584.072 2.576.12 2.976.224-1.344.624-2.6 1.2-3.768.32-.656.736-1.176 1.248-1.56.528-.4 1.088-.6 1.68-.6.608 0 1.16.272 1.656.816.512.528.768 1.008.768 1.44 0 .16-.096.288-.288.384a1.67 1.67 0 0 1-.648.12.617.617 0 0 1-.528-.264 1.571 1.571 0 0 1-.264-.576 1.277 1.277 0 0 0-.312-.6c-.16-.176-.376-.264-.648-.264-.72 0-1.336.648-1.848 1.944-.784 1.936-1.176 4.12-1.176 6.552ZM290.889 351c1.456 0 2.464.592 3.024 1.776.304.624.552 1.216.744 1.776.192.56.32 1.328.384 2.304.096 1.488.144 3.184.144 5.088 0 1.888-.456 3.392-1.368 4.512-.896 1.136-2.216 1.704-3.96 1.704-1.728 0-3.168-.56-4.32-1.68.32-.32.664-.48 1.032-.48.384 0 .904.16 1.56.48a4.713 4.713 0 0 0 2.136.504c.752 0 1.376-.176 1.872-.528.496-.336.864-.816 1.104-1.44.4-1.104.6-2.464.6-4.08 0-.24-.024-1.128-.072-2.664-.432 1.312-1.048 2.4-1.848 3.264-.8.848-1.704 1.272-2.712 1.272-1.008 0-1.752-.448-2.232-1.344-.464-.912-.696-1.944-.696-3.096 0-1.152.16-2.272.48-3.36.32-1.104.84-2.048 1.56-2.832.72-.784 1.576-1.176 2.568-1.176Zm-2.544 3.648c-.208.704-.36 1.368-.456 1.992a12.45 12.45 0 0 0-.144 1.896c0 .624.128 1.32.384 2.088.272.768.664 1.152 1.176 1.152 1.008 0 1.904-.752 2.688-2.256.784-1.52 1.176-3.048 1.176-4.584 0-.528-.248-1.12-.744-1.776-.48-.672-1.088-1.008-1.824-1.008-.512 0-.968.24-1.368.72-.384.48-.68 1.072-.888 1.776ZM323.61 244.83c-.18.168-.336.288-.468.36a.422.422 0 0 1-.396.018 1.82 1.82 0 0 1-.252-.144c-.048-.036-.144-.15-.288-.342a9.393 9.393 0 0 0-.252-.378c-.612-.756-1.404-1.134-2.376-1.134-.96 0-1.866.312-2.718.936-.84.612-1.518 1.422-2.034 2.43a6.827 6.827 0 0 0-.774 3.15c0 1.344.444 2.442 1.332 3.294.9.852 2.088 1.278 3.564 1.278 1.488 0 2.79-.414 3.906-1.242.18-.132.372-.324.576-.576.216-.252.396-.432.54-.54.156-.108.3-.156.432-.144.144.012.342.054.594.126-.516 1.008-1.38 1.794-2.592 2.358-1.2.552-2.562.828-4.086.828-1.524 0-2.814-.426-3.87-1.278-1.056-.852-1.584-2.088-1.584-3.708 0-1.008.168-1.98.504-2.916a8.3 8.3 0 0 1 1.386-2.502 6.547 6.547 0 0 1 2.232-1.746 6.65 6.65 0 0 1 2.916-.648c1.86 0 3.096.84 3.708 2.52Zm3.353 2.7c.612-.936 1.494-1.404 2.646-1.404s2.07.468 2.754 1.404c.696.936 1.044 2.004 1.044 3.204 0 1.188-.378 2.196-1.134 3.024-.756.828-1.716 1.242-2.88 1.242s-2.01-.324-2.538-.972c-.528-.66-.792-1.584-.792-2.772 0-1.548.3-2.79.9-3.726Zm.792.954c-.156.468-.276.936-.36 1.404a8.669 8.669 0 0 0-.108 1.314c0 .396.03.762.09 1.098.06.324.162.648.306.972.144.312.36.564.648.756.288.18.63.27 1.026.27.804 0 1.476-.33 2.016-.99.552-.66.828-1.458.828-2.394 0-.936-.252-1.842-.756-2.718-.492-.888-1.098-1.332-1.818-1.332-.432 0-.81.15-1.134.45-.324.3-.57.69-.738 1.17Zm8.464 5.958c.036.972.156 2.346.36 4.122a1.107 1.107 0 0 1-1.008.324c-.012-.468-.102-1.53-.27-3.186-.156-1.656-.234-2.922-.234-3.798 0-.888.054-1.656.162-2.304a6.968 6.968 0 0 1 .558-1.818c.54-1.164 1.536-1.746 2.988-1.746.9 0 1.638.492 2.214 1.476.576.984.864 2.13.864 3.438a4.038 4.038 0 0 1-1.008 2.718c-.672.78-1.602 1.17-2.79 1.17-.732 0-1.344-.132-1.836-.396Zm2.412-7.434c-1.02 0-1.698.528-2.034 1.584-.288.9-.432 2.142-.432 3.726 0 .576.006 1.002.018 1.278 1.068.228 1.794.342 2.178.342.696 0 1.248-.276 1.656-.828.408-.564.612-1.248.612-2.052 0-1.188-.18-2.16-.54-2.916-.348-.756-.834-1.134-1.458-1.134Zm5.935 4.338c-.024.24-.036.402-.036.486 0 .72.216 1.278.648 1.674.444.396.966.594 1.566.594.6 0 1.086-.084 1.458-.252.384-.168.66-.348.828-.54.432-.54.828-.81 1.188-.81.132 0 .288.036.468.108-.12.588-.576 1.128-1.368 1.62-.78.48-1.764.72-2.952.72-.84 0-1.566-.264-2.178-.792-.6-.54-.9-1.272-.9-2.196 0-.924.18-1.818.54-2.682.372-.876.9-1.62 1.584-2.232.696-.624 1.398-.936 2.106-.936.72 0 1.296.15 1.728.45.444.288.666.714.666 1.278 0 1.044-.468 1.908-1.404 2.592-.924.672-1.908 1.008-2.952 1.008-.276 0-.606-.03-.99-.09Zm1.368-.594c.564 0 1.068-.18 1.512-.54.444-.36.756-.738.936-1.134.192-.396.288-.756.288-1.08 0-.324-.126-.606-.378-.846a1.209 1.209 0 0 0-.882-.378c-.6 0-1.158.414-1.674 1.242a9.046 9.046 0 0 0-1.08 2.574c.528.108.954.162 1.278.162Zm13.62 3.744c-.216.228-.462.342-.738.342-.516 0-.9-.276-1.152-.828-.252-.552-.402-1.224-.45-2.016a78.52 78.52 0 0 1-.072-2.376c-.012-.792-.078-1.464-.198-2.016-.108-.552-.318-.828-.63-.828-.42 0-.78.378-1.08 1.134a11.072 11.072 0 0 0-.612 2.52c-.336 2.58-.66 4.026-.972 4.338-.216.108-.402.162-.558.162-.156 0-.288-.018-.396-.054-.252-1.104-.414-3.006-.486-5.706a80.492 80.492 0 0 0-.072-2.61c.252-.168.468-.252.648-.252s.324.018.432.054c.06.516.09 1.572.09 3.168.012 1.596.024 2.514.036 2.754.06-.252.132-.66.216-1.224.096-.564.18-1.026.252-1.386.072-.372.186-.804.342-1.296.156-.492.33-.882.522-1.17.192-.3.456-.552.792-.756a2.052 2.052 0 0 1 1.134-.324c.564 0 .972.258 1.224.774.264.504.408 1.134.432 1.89.024.756.036 1.524.036 2.304a8.48 8.48 0 0 0 .288 2.142c.192.648.516 1.068.972 1.26Zm1.27-3.222.162-8.064c0-.624-.036-1.05-.108-1.278.216-.192.546-.288.99-.288.18 1.284.27 2.934.27 4.95 0 .6-.054 1.992-.162 4.176.564-3.036 1.572-4.554 3.024-4.554.516 0 .912.276 1.188.828.288.54.468 1.2.54 1.98.072.78.132 1.56.18 2.34.12 1.872.456 2.808 1.008 2.808.012 0 .126-.036.342-.108.48-.144.75-.18.81-.108 0 .132-.186.3-.558.504-.372.192-.714.288-1.026.288-.528 0-.936-.27-1.224-.81-.276-.552-.45-1.218-.522-1.998a77.73 77.73 0 0 1-.144-2.322c-.024-.78-.102-1.44-.234-1.98-.132-.552-.354-.828-.666-.828-.384 0-.738.42-1.062 1.26a15.577 15.577 0 0 0-.738 2.754 22.395 22.395 0 0 1-.666 2.772c-.252.828-.51 1.242-.774 1.242-.42 0-.63-1.188-.63-3.564Zm14.369-1.458-.09 2.07c0 1.044.12 1.746.36 2.106.144.24.342.36.594.36.072 0 .174-.018.306-.054.252-.072.462-.036.63.108-.084.42-.504.63-1.26.63-.516 0-.858-.216-1.026-.648-.132-.324-.228-.726-.288-1.206-.06-.492-.108-.828-.144-1.008-.78 1.488-1.536 2.394-2.268 2.718-.372.168-.804.252-1.296.252s-.876-.234-1.152-.702c-.264-.48-.396-1.176-.396-2.088 0-.912.15-1.866.45-2.862.3-1.008.738-1.854 1.314-2.538.576-.696 1.206-1.044 1.89-1.044.984 0 1.638.408 1.962 1.224.276.696.414 1.59.414 2.682Zm-4.41-.576a16.969 16.969 0 0 0-.378 1.854 10.84 10.84 0 0 0-.126 1.548c0 .444.09.828.27 1.152.192.324.438.486.738.486.648 0 1.272-.612 1.872-1.836.6-1.224.9-2.364.9-3.42 0-.684-.18-1.248-.54-1.692-.24-.288-.558-.432-.954-.432-.384 0-.738.228-1.062.684-.312.444-.552.996-.72 1.656Zm9.958-3.24c1.092 0 1.848.444 2.268 1.332.228.468.414.912.558 1.332.144.42.24.996.288 1.728.072 1.116.108 2.388.108 3.816 0 1.416-.342 2.544-1.026 3.384-.672.852-1.662 1.278-2.97 1.278-1.296 0-2.376-.42-3.24-1.26.24-.24.498-.36.774-.36.288 0 .678.12 1.17.36a3.535 3.535 0 0 0 1.602.378c.564 0 1.032-.132 1.404-.396.372-.252.648-.612.828-1.08.3-.828.45-1.848.45-3.06 0-.18-.018-.846-.054-1.998-.324.984-.786 1.8-1.386 2.448-.6.636-1.278.954-2.034.954-.756 0-1.314-.336-1.674-1.008-.348-.684-.522-1.458-.522-2.322 0-.864.12-1.704.36-2.52.24-.828.63-1.536 1.17-2.124.54-.588 1.182-.882 1.926-.882Zm-1.908 2.736c-.156.528-.27 1.026-.342 1.494a9.338 9.338 0 0 0-.108 1.422c0 .468.096.99.288 1.566.204.576.498.864.882.864.756 0 1.428-.564 2.016-1.692.588-1.14.882-2.286.882-3.438 0-.396-.186-.84-.558-1.332-.36-.504-.816-.756-1.368-.756-.384 0-.726.18-1.026.54-.288.36-.51.804-.666 1.332Zm8.061 2.61c-.024.24-.036.402-.036.486 0 .72.216 1.278.648 1.674.444.396.966.594 1.566.594.6 0 1.086-.084 1.458-.252.384-.168.66-.348.828-.54.432-.54.828-.81 1.188-.81.132 0 .288.036.468.108-.12.588-.576 1.128-1.368 1.62-.78.48-1.764.72-2.952.72-.84 0-1.566-.264-2.178-.792-.6-.54-.9-1.272-.9-2.196 0-.924.18-1.818.54-2.682.372-.876.9-1.62 1.584-2.232.696-.624 1.398-.936 2.106-.936.72 0 1.296.15 1.728.45.444.288.666.714.666 1.278 0 1.044-.468 1.908-1.404 2.592-.924.672-1.908 1.008-2.952 1.008-.276 0-.606-.03-.99-.09Zm1.368-.594c.564 0 1.068-.18 1.512-.54.444-.36.756-.738.936-1.134.192-.396.288-.756.288-1.08 0-.324-.126-.606-.378-.846a1.209 1.209 0 0 0-.882-.378c-.6 0-1.158.414-1.674 1.242a9.046 9.046 0 0 0-1.08 2.574c.528.108.954.162 1.278.162Zm13.62 3.744c-.216.228-.462.342-.738.342-.516 0-.9-.276-1.152-.828-.252-.552-.402-1.224-.45-2.016a78.52 78.52 0 0 1-.072-2.376c-.012-.792-.078-1.464-.198-2.016-.108-.552-.318-.828-.63-.828-.42 0-.78.378-1.08 1.134a11.072 11.072 0 0 0-.612 2.52c-.336 2.58-.66 4.026-.972 4.338-.216.108-.402.162-.558.162-.156 0-.288-.018-.396-.054-.252-1.104-.414-3.006-.486-5.706a80.492 80.492 0 0 0-.072-2.61c.252-.168.468-.252.648-.252s.324.018.432.054c.06.516.09 1.572.09 3.168.012 1.596.024 2.514.036 2.754.06-.252.132-.66.216-1.224.096-.564.18-1.026.252-1.386.072-.372.186-.804.342-1.296.156-.492.33-.882.522-1.17.192-.3.456-.552.792-.756a2.052 2.052 0 0 1 1.134-.324c.564 0 .972.258 1.224.774.264.504.408 1.134.432 1.89.024.756.036 1.524.036 2.304a8.48 8.48 0 0 0 .288 2.142c.192.648.516 1.068.972 1.26Z" fill="#5B6460"/></svg><svg fill="none" viewBox="0 0 11 15" id="area-mapmark" xmlns="http://www.w3.org/2000/svg"><path d="M5.214 0A5.22 5.22 0 0 0 0 5.214C0 8.827 5.22 15 5.22 15s5.208-6.35 5.208-9.786A5.22 5.22 0 0 0 5.214 0Zm1.573 6.74a2.218 2.218 0 0 1-1.573.651c-.57 0-1.14-.217-1.573-.65a2.227 2.227 0 0 1 1.573-3.798A2.227 2.227 0 0 1 6.787 6.74Z" fill="#fff"/></svg><svg fill="none" viewBox="0 0 22 13" id="arrow-bottom" xmlns="http://www.w3.org/2000/svg"><path d="M1 1.42c0 .107.038.215.112.297l9.619 10.528a.37.37 0 0 0 .271.123.37.37 0 0 0 .272-.123l9.614-10.529a.449.449 0 0 0 0-.593.36.36 0 0 0-.543 0l-9.343 10.231L1.655 1.123a.36.36 0 0 0-.542 0A.44.44 0 0 0 1 1.42Z" fill="#333" stroke="#333" stroke-width=".682"/></svg><svg fill="none" viewBox="0 0 22 13" id="arrow-inp-close" xmlns="http://www.w3.org/2000/svg"><path d="M1 1.42c0 .107.038.215.112.297l9.619 10.528a.37.37 0 0 0 .271.123.37.37 0 0 0 .272-.123l9.614-10.529a.449.449 0 0 0 0-.593.36.36 0 0 0-.543 0l-9.343 10.231L1.655 1.123a.36.36 0 0 0-.542 0A.44.44 0 0 0 1 1.42Z" fill="#333" stroke="#333" stroke-width=".682"/></svg><svg fill="none" viewBox="0 0 22 13" id="arrow-inp-open" xmlns="http://www.w3.org/2000/svg"><path d="M21 11.948a.443.443 0 0 0-.112-.298L11.269 1.122A.37.37 0 0 0 10.998 1a.37.37 0 0 0-.272.122l-9.614 10.53a.449.449 0 0 0 0 .593.36.36 0 0 0 .543 0l9.343-10.232 9.347 10.232a.36.36 0 0 0 .542 0 .44.44 0 0 0 .113-.297Z" fill="#333" stroke="#333" stroke-width=".682"/></svg><svg fill="none" viewBox="0 0 34 17" id="arrow-right" xmlns="http://www.w3.org/2000/svg"><path d="M.62 9.182h31.76c.342 0 .62-.306.62-.682 0-.376-.278-.682-.62-.682H.62c-.342 0-.62.306-.62.682 0 .376.278.682.62.682Z" fill="#EFEFEF"/><path d="M25.154 16a.312.312 0 0 0 .214-.084l7.577-7.214a.283.283 0 0 0 .088-.204.283.283 0 0 0-.088-.203l-7.578-7.21a.313.313 0 0 0-.427 0 .278.278 0 0 0 0 .406l7.364 7.007-7.364 7.01a.278.278 0 0 0 0 .407.31.31 0 0 0 .214.085Z" fill="#EFEFEF" stroke="#EFEFEF" stroke-width=".682"/></svg><svg fill="none" viewBox="0 0 35 17" id="arrow-slide-left" xmlns="http://www.w3.org/2000/svg"><path d="M33.414 9.182H1.653c-.342 0-.62-.306-.62-.682 0-.376.278-.682.62-.682h31.76c.343 0 .62.306.62.682 0 .376-.277.682-.62.682Z" fill="#DADADA"/><path d="M8.88 16a.312.312 0 0 1-.214-.084L1.088 8.702A.283.283 0 0 1 1 8.498c0-.076.032-.15.088-.203l7.578-7.21a.313.313 0 0 1 .427 0 .278.278 0 0 1 0 .406L1.73 8.498l7.364 7.01a.278.278 0 0 1 0 .407.31.31 0 0 1-.214.085Z" stroke="#DADADA" stroke-width=".682"/></svg><svg fill="#333" viewBox="0 0 35 17" id="arrow-slide-page-left" xmlns="http://www.w3.org/2000/svg"><path d="M33.414 9.182H1.653c-.342 0-.62-.306-.62-.682 0-.376.278-.682.62-.682h31.76c.343 0 .62.306.62.682 0 .376-.277.682-.62.682Z" fill="##333"/><path d="M8.88 16a.312.312 0 0 1-.214-.084L1.088 8.702A.283.283 0 0 1 1 8.498c0-.076.032-.15.088-.203l7.578-7.21a.313.313 0 0 1 .427 0 .278.278 0 0 1 0 .406L1.73 8.498l7.364 7.01a.278.278 0 0 1 0 .407.31.31 0 0 1-.214.085Z" stroke="##333" stroke-width=".682"/></svg><svg fill="#dadada" viewBox="0 0 35 17" id="arrow-slide-page-left-disabled" xmlns="http://www.w3.org/2000/svg"><path d="M33.414 9.182H1.653c-.342 0-.62-.306-.62-.682 0-.376.278-.682.62-.682h31.76c.343 0 .62.306.62.682 0 .376-.277.682-.62.682Z" fill="#DADADA"/><path d="M8.88 16a.312.312 0 0 1-.214-.084L1.088 8.702A.283.283 0 0 1 1 8.498c0-.076.032-.15.088-.203l7.578-7.21a.313.313 0 0 1 .427 0 .278.278 0 0 1 0 .406L1.73 8.498l7.364 7.01a.278.278 0 0 1 0 .407.31.31 0 0 1-.214.085Z" stroke="#DADADA" stroke-width=".682"/></svg><svg fill="#333" viewBox="0 0 35 17" id="arrow-slide-page-right" xmlns="http://www.w3.org/2000/svg"><path d="M1.586 9.182h31.761c.342 0 .62-.306.62-.682 0-.376-.278-.682-.62-.682H1.587c-.343 0-.62.306-.62.682 0 .376.277.682.62.682Z"/><path d="M26.12 16a.312.312 0 0 0 .214-.084l7.578-7.214A.283.283 0 0 0 34 8.498a.283.283 0 0 0-.088-.203l-7.578-7.21a.313.313 0 0 0-.427 0 .278.278 0 0 0 0 .406l7.363 7.007-7.363 7.01a.278.278 0 0 0 0 .407.31.31 0 0 0 .213.085Z" stroke="#333" stroke-width=".682"/></svg><svg fill="#dadada" viewBox="0 0 35 17" id="arrow-slide-page-right-disabled" xmlns="http://www.w3.org/2000/svg"><path d="M1.586 9.182h31.761c.342 0 .62-.306.62-.682 0-.376-.278-.682-.62-.682H1.587c-.343 0-.62.306-.62.682 0 .376.277.682.62.682Z"/><path d="M26.12 16a.312.312 0 0 0 .214-.084l7.578-7.214A.283.283 0 0 0 34 8.498a.283.283 0 0 0-.088-.203l-7.578-7.21a.313.313 0 0 0-.427 0 .278.278 0 0 0 0 .406l7.363 7.007-7.363 7.01a.278.278 0 0 0 0 .407.31.31 0 0 0 .213.085Z" stroke="#dadada" stroke-width=".682"/></svg><svg fill="none" viewBox="0 0 35 17" id="arrow-slide-right" xmlns="http://www.w3.org/2000/svg"><path d="M1.586 9.182h31.761c.342 0 .62-.306.62-.682 0-.376-.278-.682-.62-.682H1.587c-.343 0-.62.306-.62.682 0 .376.277.682.62.682Z" fill="#fff"/><path d="M26.12 16a.312.312 0 0 0 .214-.084l7.578-7.214A.283.283 0 0 0 34 8.498a.283.283 0 0 0-.088-.203l-7.578-7.21a.313.313 0 0 0-.427 0 .278.278 0 0 0 0 .406l7.363 7.007-7.363 7.01a.278.278 0 0 0 0 .407.31.31 0 0 0 .213.085Z" fill="#fff" stroke="#fff" stroke-width=".682"/></svg><svg fill="none" viewBox="0 0 22 13" id="arrow-top" xmlns="http://www.w3.org/2000/svg"><path d="M21 11.948a.443.443 0 0 0-.112-.298L11.269 1.122A.37.37 0 0 0 10.998 1a.37.37 0 0 0-.272.122l-9.614 10.53a.449.449 0 0 0 0 .593.36.36 0 0 0 .543 0l9.343-10.232 9.347 10.232a.36.36 0 0 0 .542 0 .44.44 0 0 0 .113-.297Z" fill="#333" stroke="#333" stroke-width=".682"/></svg><svg fill="none" viewBox="0 0 32 32" id="bank-transfer" xmlns="http://www.w3.org/2000/svg"><g clip-path="url(#ana)" fill="#E9ECE0"><path d="M5.853 22.202c.334-.167.982-.49.982-1.64 0-.827-.502-2.056-2.467-2.056H.475v8.013h3.393c1.64 0 2.076-.279 2.533-.728.422-.41.69-1.015.69-1.648 0-.793-.256-1.574-1.238-1.94Zm-3.77-2.309h1.92c.758 0 1.227.2 1.227.858 0 .638-.523.894-1.184.894H2.083v-1.752Zm2.05 5.242h-2.05v-2.143h2.13c.605 0 1.206.271 1.206.971-.002.813-.471 1.172-1.285 1.172ZM.476 27.788v.728h1.24v3.377h.855v-3.377h1.243v-.728H.476ZM28.066 21.787l3.27-3.282h-2.164l-3.058 3.257v-3.257H24.44v8.01h1.674v-2.71l.781-.804 2.476 3.515h2.154l-3.459-4.73ZM12.361 18.505h-1.93l-2.854 8.012H9.34l.557-1.65h2.957l.514 1.649h1.818l-2.824-8.011Zm-2.019 4.976 1.027-3.168h.023l.992 3.168h-2.042ZM19.83 2.805a10.05 10.05 0 0 0-1.706-1.625 7.86 7.86 0 0 0-1.043-.665C16.701.319 16.312.13 15.847 0a6 6 0 0 0 .191 1.324c.094.404.221.783.37 1.147-.355.104-.785.25-1.269.438-.313.14-.656.266-1.002.453-.35.168-.707.372-1.068.6-.367.207-.709.501-1.068.755-.327.311-.686.58-.977.933-.3.338-.595.676-.822 1.06-.115.187-.248.36-.344.551-.092.194-.18.387-.266.575-.195.364-.284.756-.386 1.113A4.516 4.516 0 0 0 9.01 9.97c-.027.319-.094.601-.078.861l.02.662c.011.363.014.57.014.57s.04-.205.105-.562l.121-.636c.037-.245.164-.505.252-.792.094-.287.203-.593.383-.887.164-.299.313-.622.555-.901.11-.143.221-.291.332-.438.117-.143.267-.266.396-.4.254-.277.564-.501.871-.723.293-.233.65-.39.96-.581.351-.141.661-.317 1.007-.419.33-.12.655-.221.973-.293.31-.09.62-.13.891-.188.174-.025.334-.046.488-.065-.018.046-.037.09-.053.137a8.211 8.211 0 0 0-.367 1.367c-.039.243-.07.489-.096.74-.02.255-.024.519-.006.797.261-.1.498-.213.723-.336a8.132 8.132 0 0 0 1.727-1.295 10.267 10.267 0 0 0 1.674-2.13l.06-.098a1.347 1.347 0 0 0-.132-1.555ZM7.578 30.965c0-.766-.184-.892-.52-1.04.405-.137.634-.524.634-.979 0-.354-.199-1.159-1.29-1.159H4.324v4.103h.842v-1.605h.885c.635 0 .67.218.67.776 0 .422.033.636.09.828h.95v-.107c-.184-.068-.184-.218-.184-.817ZM6.17 29.596H5.166v-1.1h1.068c.502 0 .6.318.6.537 0 .404-.217.563-.665.563ZM23.339 28.516v-.728h-2.92v4.106h.858v-1.726h1.806v-.726h-1.806v-.926h2.062ZM24.755 31.165v-1.06h2v-.726h-2v-.862h2.179v-.727h-3.019v4.103h3.115v-.728h-2.275ZM18.69 29.553l-.998-.246c-.172-.041-.436-.11-.436-.43 0-.371.392-.49.715-.49.75 0 .82.433.843.616h.82c-.006-.503-.343-1.325-1.6-1.325-1.332 0-1.578.805-1.578 1.262 0 .904.64 1.055 1.303 1.207l.44.104c.432.105.742.189.742.511 0 .429-.453.529-.855.529-.75 0-.865-.434-.871-.663h-.82c0 .511.255 1.372 1.753 1.372.358 0 1.617-.112 1.617-1.343-.002-.737-.515-.968-1.075-1.104ZM30.982 30.965c0-.766-.186-.892-.52-1.04.403-.137.636-.524.636-.979 0-.354-.2-1.159-1.293-1.159h-2.074v4.103h.842v-1.605h.885c.633 0 .67.218.67.776 0 .422.033.636.091.828h.946v-.107c-.183-.068-.183-.218-.183-.817Zm-1.406-1.369h-1.004v-1.1h1.066c.504 0 .602.318.602.537 0 .404-.217.563-.664.563ZM21.145 18.508v5.578h-.021l-3.181-5.578H16.18v8.012h1.562l.002-5.712h.02l3.27 5.713h1.673v-8.013h-1.562ZM10.473 27.788h-.99L8.02 31.891h.904l.285-.847h1.514l.263.847h.932l-1.444-4.103ZM9.44 30.336l.527-1.622h.008l.511 1.622H9.44ZM14.976 27.788l-.001 2.856h-.01l-1.631-2.856h-.902v4.103h.799v-2.927h.013l1.674 2.927h.859v-4.103h-.801ZM21.957 5.66a25.247 25.247 0 0 0-.035-.568s-.029.205-.09.564c-.029.177-.062.392-.1.639-.03.246-.15.509-.23.799-.082.29-.181.598-.354.898-.154.304-.293.63-.526.917-.105.147-.212.297-.317.449-.116.145-.26.273-.389.411-.244.283-.547.518-.848.748-.283.242-.637.408-.94.609-.346.151-.651.337-.994.448a7.73 7.73 0 0 1-.965.322c-.305.1-.613.149-.883.214a18.02 18.02 0 0 1-.486.08c.014-.047.034-.091.05-.138.143-.439.254-.897.325-1.378.031-.244.054-.491.072-.743.014-.255.01-.52-.015-.796a5.578 5.578 0 0 0-.713.357c-.216.133-.42.271-.621.413-.393.289-.746.6-1.064.933a10.261 10.261 0 0 0-1.61 2.179l-.056.098a1.346 1.346 0 0 0 .178 1.551 10.15 10.15 0 0 0 1.752 1.573c.327.233.678.445 1.063.633.383.186.777.364 1.248.479-.025-.481-.123-.903-.23-1.316a7.58 7.58 0 0 0-.404-1.136 16.37 16.37 0 0 0 1.254-.475c.308-.148.648-.286.988-.483a9.843 9.843 0 0 0 1.046-.631c.36-.218.694-.522 1.047-.787.317-.319.668-.601.948-.961.291-.347.573-.692.79-1.083.11-.191.235-.368.326-.562.085-.197.169-.392.248-.583.184-.37.262-.765.354-1.124a4.55 4.55 0 0 0 .166-1.025c.021-.319.076-.604.055-.863-.017-.255-.03-.478-.04-.662Z"/></g><defs><clipPath id="ana"><path fill="#fff" d="M0 0h32v32H0z"/></clipPath></defs></svg><svg fill="none" viewBox="0 0 70 70" id="beading" xmlns="http://www.w3.org/2000/svg"><g clip-path="url(#aoa)" fill="#fff"><path d="M70 19.833a8.176 8.176 0 0 0-8.166-8.167h-35a7.67 7.67 0 0 0-2.119.29c-.436.106-11.96 4.45-18.791 7.03h-.01A7.953 7.953 0 0 0 2.4 21.052 8.072 8.072 0 0 0 0 26.833a8.16 8.16 0 0 0 3.976 7 8.167 8.167 0 0 0-3.976 7 8.167 8.167 0 0 0 3.982 7A8.159 8.159 0 0 0 8.167 63h35a8.091 8.091 0 0 0 3.487-.794.22.22 0 0 0 .026 0l18.77-7.05a8.148 8.148 0 0 0 .564-14.313A7.397 7.397 0 0 0 67.6 39.61a8.072 8.072 0 0 0 2.4-5.776 8.187 8.187 0 0 0-3.978-6.993 7.438 7.438 0 0 0 1.58-1.23A8.072 8.072 0 0 0 70 19.832Zm-44.642-5.634c.48-.134.977-.201 1.476-.2h35a5.84 5.84 0 0 1 5.833 5.834 5.755 5.755 0 0 1-1.711 4.122c-.397.412-.86.754-1.372 1.01-.063.034-.117.066-.177.096-1.573.583-4.344 1.624-8.639 3.236l-5.184 1.947a8.16 8.16 0 0 0-7.417-11.578H13.384c5.81-2.187 11.5-4.316 11.974-4.467ZM2.334 26.833a5.76 5.76 0 0 1 1.717-4.128 5.617 5.617 0 0 1 2.561-1.487c.03-.01.063-.02.097-.033A5.682 5.682 0 0 1 8.167 21h35a5.84 5.84 0 0 1 5.834 5.833 5.874 5.874 0 0 1-3.163 5.188 1.119 1.119 0 0 0-.1.044c-.798.4-1.679.605-2.57.601h-35a5.84 5.84 0 0 1-5.834-5.833Zm0 14A5.844 5.844 0 0 1 8.167 35h35a5.84 5.84 0 0 1 5.834 5.833 5.874 5.874 0 0 1-3.163 5.188 1.119 1.119 0 0 0-.1.044c-.798.4-1.679.605-2.57.601h-35a5.84 5.84 0 0 1-5.834-5.833Zm5.833 19.833a5.833 5.833 0 0 1 0-11.666h35a5.833 5.833 0 1 1 0 11.666h-35Zm59.5-12.833a5.759 5.759 0 0 1-1.71 4.122c-.42.425-.902.783-1.43 1.062l-13.952 5.232a8.123 8.123 0 0 0-3.104-10.344l15.4-5.777a5.818 5.818 0 0 1 4.796 5.705Zm0-14a5.755 5.755 0 0 1-1.711 4.122c-.397.412-.86.754-1.372 1.01l-.179.097-13.822 5.184a8.139 8.139 0 0 0-3.112-10.34l9.113-3.424c2.662-1 4.73-1.776 6.3-2.363a5.833 5.833 0 0 1 4.783 5.714Z"/><path d="M45.5 26.833c0-.644-.522-1.167-1.166-1.167H7.001A1.167 1.167 0 0 0 7 28h37.333c.644 0 1.167-.523 1.167-1.167ZM45.5 40.833c0-.644-.522-1.167-1.166-1.167H7.001A1.167 1.167 0 0 0 7 42h37.333c.644 0 1.167-.523 1.167-1.167ZM44.334 53.666H7.001A1.167 1.167 0 1 0 7 56h37.333a1.167 1.167 0 1 0 0-2.334ZM11.667 2.333c-.645 0-1.167.523-1.167 1.167v2.333a1.167 1.167 0 1 0 2.333 0V3.5c0-.644-.522-1.167-1.166-1.167ZM10.5 12.833a1.167 1.167 0 0 0 2.333 0V10.5a1.167 1.167 0 1 0-2.333 0v2.333ZM9.334 7H7.001a1.167 1.167 0 1 0 0 2.333h2.333a1.167 1.167 0 0 0 0-2.333ZM14 9.333h2.334a1.167 1.167 0 0 0 0-2.333h-2.333a1.167 1.167 0 1 0 0 2.333ZM67.909 63.925a1.167 1.167 0 0 0-1.65 1.65l1.75 1.75a1.167 1.167 0 0 0 1.65-1.65l-1.75-1.75ZM62.76 62.075a1.167 1.167 0 0 0 1.649-1.65l-1.75-1.75a1.167 1.167 0 0 0-1.65 1.65l1.75 1.75ZM61.009 67.325a1.166 1.166 0 0 0 1.65 0l1.75-1.75a1.167 1.167 0 0 0-1.65-1.65l-1.75 1.75a1.166 1.166 0 0 0 0 1.65ZM68.008 58.675l-1.75 1.75a1.167 1.167 0 1 0 1.65 1.65l1.75-1.75a1.167 1.167 0 0 0-1.65-1.65Z"/></g><defs><clipPath id="aoa"><path fill="#fff" d="M0 0h70v70H0z"/></clipPath></defs></svg><svg fill="none" viewBox="0 0 70 70" id="breathtaking-views" xmlns="http://www.w3.org/2000/svg"><g clip-path="url(#apa)"><path d="M70 32.667a10.492 10.492 0 0 0-3.69-7.993 9.2 9.2 0 0 0 1.356-4.84 9.347 9.347 0 0 0-8.248-9.27 9.21 9.21 0 0 0 .082-1.23A9.312 9.312 0 0 0 42.59 3.926a9.304 9.304 0 0 0-15.182 0 9.32 9.32 0 0 0-16.827 6.638 9.347 9.347 0 0 0-8.248 9.27 9.201 9.201 0 0 0 1.357 4.84c-4.414 3.762-4.943 10.389-1.182 14.803.362.424.757.819 1.182 1.18A9.201 9.201 0 0 0 2.334 45.5a9.344 9.344 0 0 0 9.333 9.334h7v12.833h-3.5a1.167 1.167 0 0 0 0 2.333h39.666a1.167 1.167 0 1 0 0-2.333h-3.5V54.834h7a9.344 9.344 0 0 0 9.333-9.334 9.2 9.2 0 0 0-1.357-4.84A10.492 10.492 0 0 0 70 32.667ZM11.666 52.49a7.007 7.007 0 0 1-7-6.99 6.92 6.92 0 0 1 1.532-4.362 1.167 1.167 0 0 0-.26-1.695 8.167 8.167 0 0 1 0-13.552 1.167 1.167 0 0 0 .26-1.695 6.92 6.92 0 0 1-1.532-4.362 7.007 7.007 0 0 1 7-7l.302.017c.377.018.74-.15.967-.452a1.16 1.16 0 0 0 .195-1.05 7 7 0 0 1 13.03-4.999c0 .012 0 .023-.009.035a9.172 9.172 0 0 0-.336 1.34c-.014.077-.024.157-.036.233a8.795 8.795 0 0 0-.032 2.602 9.347 9.347 0 0 0-8.248 9.274 9.201 9.201 0 0 0 1.357 4.84c-.021.02-.038.039-.06.058l-5.43-5.431a1.167 1.167 0 0 0-1.65 1.65l5.497 5.497a10.488 10.488 0 0 0 1.643 14.212 9.13 9.13 0 0 0-1.022 2.359l-4.177-4.177a1.167 1.167 0 0 0-1.65 1.65l5.518 5.517c.01.162.012.326.029.484.012.11.034.215.049.322.03.216.06.43.106.642.027.126.064.247.096.37.048.188.095.375.155.557.042.13.092.254.14.38.064.171.128.342.203.508.056.126.117.249.179.371a7.654 7.654 0 0 0 .465.817 8.448 8.448 0 0 0 .541.769 10.241 10.241 0 0 0 .613.71c.116.125.246.245.374.364.065.06.124.129.19.187h-9Zm22.166 15.177H21V54.834h12.833v12.833ZM35 15.167c-.644 0-1.167.523-1.167 1.167v8.267l-5.3-5.3a1.167 1.167 0 0 0-1.65 1.65l6.95 6.95v15.95l-5.008-5.009a1.167 1.167 0 0 0-1.65 1.65l6.658 6.658v5.35h-7a7.007 7.007 0 0 1-7-7 6.92 6.92 0 0 1 1.532-4.362 1.167 1.167 0 0 0-.259-1.695 8.167 8.167 0 0 1 0-13.552 1.167 1.167 0 0 0 .26-1.695 6.92 6.92 0 0 1-1.532-4.362 7.007 7.007 0 0 1 7-7l.302.017c.377.02.74-.149.967-.452a1.16 1.16 0 0 0 .194-1.05 6.9 6.9 0 0 1-.175-3.298c0-.016 0-.034.008-.05.084-.421.206-.834.365-1.233A7 7 0 0 1 35 2.334a7 7 0 0 1 6.505 4.434c.159.402.281.817.365 1.241 0 .016 0 .034.007.05a6.881 6.881 0 0 1-.175 3.29c-.11.36-.037.753.195 1.05.227.302.59.471.967.452l.303-.017a7.007 7.007 0 0 1 7 7 6.92 6.92 0 0 1-1.532 4.362 1.167 1.167 0 0 0 .259 1.695 8.167 8.167 0 0 1 0 13.552 1.166 1.166 0 0 0-.26 1.695 6.92 6.92 0 0 1 1.532 4.362 7.007 7.007 0 0 1-7 7h-7V36.57c.088-.043.169-.097.242-.161l7.583-7.583a1.167 1.167 0 0 0-1.65-1.65l-6.174 6.175V16.334c0-.644-.523-1.166-1.167-1.166Zm14 52.5H36.167V54.834H49v12.833Zm14.745-26.604c.018.026.037.05.056.075a6.92 6.92 0 0 1 1.532 4.362 7.007 7.007 0 0 1-7 7h-9c.067-.058.126-.126.19-.186a7.899 7.899 0 0 0 .656-.675c.117-.13.225-.262.331-.4a8.514 8.514 0 0 0 .541-.769c.075-.116.149-.233.218-.35.087-.154.169-.311.248-.466.061-.123.117-.245.179-.371.075-.166.139-.337.203-.508.048-.127.098-.25.14-.38.06-.182.107-.37.155-.557.031-.123.069-.245.096-.37.045-.212.075-.427.106-.642.015-.108.037-.213.049-.322.036-.334.054-.668.055-1.004a9.201 9.201 0 0 0-1.357-4.84 10.48 10.48 0 0 0 3.662-7.482l4.353-4.352a1.167 1.167 0 0 0-1.65-1.65l-2.988 2.988a10.48 10.48 0 0 0-3.377-5.484 9.202 9.202 0 0 0 1.357-4.846 9.347 9.347 0 0 0-8.248-9.27 8.795 8.795 0 0 0-.035-2.603c-.012-.08-.023-.159-.037-.233a9.184 9.184 0 0 0-.336-1.34c0-.011 0-.023-.008-.035a7 7 0 0 1 13.03 5c-.11.36-.038.752.194 1.05.228.3.59.47.967.451l.306-.02a7.007 7.007 0 0 1 7 7 6.92 6.92 0 0 1-1.532 4.362 1.167 1.167 0 0 0 .259 1.695 8.167 8.167 0 0 1 0 13.552 1.166 1.166 0 0 0-.315 1.62Z" fill="#fff"/></g><defs><clipPath id="apa"><path fill="#fff" d="M0 0h70v70H0z"/></clipPath></defs></svg><svg fill="none" viewBox="0 0 35 34" id="circkle-border-plus" xmlns="http://www.w3.org/2000/svg"><circle cx="17.465" cy="17" r="16.65" stroke="#333" stroke-width=".7"/><path stroke="#333" d="M10.179 17.309H24.75M17.465 24.286V9.714"/></svg><svg fill="none" viewBox="0 0 34 34" id="circle-checked" xmlns="http://www.w3.org/2000/svg"><circle cx="17" cy="17" r="17" fill="#5B6460"/><path d="m8 16.5 7.5 7 11-12.5" stroke="#fff"/></svg><svg fill="none" viewBox="0 0 34 34" id="circle-plus" xmlns="http://www.w3.org/2000/svg"><circle cx="17" cy="17" r="17" fill="#fff"/><path stroke="#000" d="M9.714 17.309h14.571M17.31 24.286V9.714"/></svg><svg fill="none" viewBox="0 0 70 70" id="coffee-machine" xmlns="http://www.w3.org/2000/svg"><path d="M64.5 0H17.833c-.644 0-1.166.522-1.166 1.167v11.666a5.84 5.84 0 0 0 5.833 5.834h4.667v3.5H26A1.167 1.167 0 0 0 24.906 21L6.239 19.833A1.167 1.167 0 0 0 5 21v4.667c0 .644.522 1.166 1.167 1.166h.072l18.667-1.166A1.167 1.167 0 0 0 26 24.5h1.167v2.333c0 .645.522 1.167 1.166 1.167h2.334v3.5c0 .644.522 1.167 1.166 1.167H33v1.166a1.167 1.167 0 0 0 2.333 0v-1.166H36.5c.644 0 1.167-.523 1.167-1.167V28H40c.644 0 1.167-.522 1.167-1.167v-8.166H47v32.666H35.333a5.84 5.84 0 0 0 5.834-5.833v-7c0-.644-.523-1.167-1.167-1.167H28.333c-.644 0-1.166.523-1.166 1.167v1.167H26A1.167 1.167 0 1 0 26 42h1.167v3.5A5.84 5.84 0 0 0 33 51.333h-9.333a5.84 5.84 0 0 0-5.834 5.834v11.666c0 .645.523 1.167 1.167 1.167h45.5c.644 0 1.167-.522 1.167-1.167V1.167C65.667.522 65.144 0 64.5 0ZM23.667 23.404 7.333 24.425v-2.184l16.334 1.021v.142ZM29.5 45.5v-5.833h9.333V45.5a3.5 3.5 0 0 1-3.5 3.5H33a3.5 3.5 0 0 1-3.5-3.5ZM47 67.667H20.167v-10.5a3.5 3.5 0 0 1 3.5-3.5H47v14ZM35.333 30.333H33V28h2.333v2.333Zm3.5-4.666H29.5v-7h9.333v7Zm24.5 42h-14V17.5c0-.644-.522-1.167-1.166-1.167H22.5a3.5 3.5 0 0 1-3.5-3.5v-10.5h44.333v65.334Z" fill="#fff"/><path d="M55.166 15.167a5.834 5.834 0 1 0-5.833-5.834 5.84 5.84 0 0 0 5.833 5.834Zm0-7h-3.285a3.5 3.5 0 1 1 0 2.333h3.285a1.167 1.167 0 0 0 0-2.333ZM52.834 25.667c-.645 0-1.167.522-1.167 1.166v2.334a1.167 1.167 0 0 0 2.333 0v-2.334c0-.644-.522-1.166-1.166-1.166ZM52.834 32.667c-.645 0-1.167.522-1.167 1.166v2.334a1.167 1.167 0 0 0 2.333 0v-2.334c0-.644-.522-1.166-1.166-1.166ZM52.834 39.667c-.645 0-1.167.522-1.167 1.166v2.334a1.167 1.167 0 0 0 2.333 0v-2.334c0-.644-.522-1.166-1.166-1.166Z" fill="#fff"/></svg><svg fill="none" viewBox="0 0 51 50" id="facebook" xmlns="http://www.w3.org/2000/svg"><g clip-path="url(#aua)"><path d="M26 50c13.807 0 25-11.193 25-25S39.807 0 26 0 1 11.193 1 25s11.193 25 25 25Z" fill="#5B6460"/><path d="M29.957 25.48H27.19V36h-4.194V25.48H21v-3.698h1.995V19.39c0-1.71.783-4.39 4.232-4.39l3.106.014v3.588H28.08c-.37 0-.89.192-.89 1.008v2.176h3.135l-.367 3.694Z" fill="#E9ECE0"/></g><defs><clipPath id="aua"><path fill="#fff" transform="translate(.758)" d="M0 0h50v50H0z"/></clipPath></defs></svg><svg fill="none" viewBox="0 0 70 70" id="fridge" xmlns="http://www.w3.org/2000/svg"><g clip-path="url(#ava)" fill="#fff"><path d="M54.831 23.453V3.69A3.696 3.696 0 0 0 51.14 0H18.69A3.696 3.696 0 0 0 15 3.69v19.762a3.678 3.678 0 0 0 1.22 2.734A3.679 3.679 0 0 0 15 28.921v33.43a3.695 3.695 0 0 0 3.691 3.692h.502v2.937a.957.957 0 0 0 .957.957h6.836a.957.957 0 0 0 .957-.957v-2.937h13.945v2.937a.957.957 0 0 0 .957.957h6.836a.957.957 0 0 0 .957-.957v-2.937h.502a3.696 3.696 0 0 0 3.691-3.691v-33.43a3.678 3.678 0 0 0-1.22-2.735 3.677 3.677 0 0 0 1.22-2.734ZM26.03 68.023h-4.922v-1.98h4.922v1.98Zm22.695 0h-4.922v-1.98h4.922v1.98Zm4.193-39.102v33.43a1.78 1.78 0 0 1-1.777 1.778H18.69a1.78 1.78 0 0 1-1.777-1.777v-33.43a1.78 1.78 0 0 1 1.777-1.778H51.14a1.78 1.78 0 0 1 1.777 1.777ZM18.691 25.23a1.78 1.78 0 0 1-1.777-1.777V3.69a1.78 1.78 0 0 1 1.777-1.777H51.14a1.78 1.78 0 0 1 1.777 1.777v19.762a1.78 1.78 0 0 1-1.777 1.777H18.69Z"/><path d="M48.485 6.935h-3.554a.957.957 0 0 0-.957.957v11.485a.957.957 0 0 0 .957.957h3.554a.957.957 0 0 0 .957-.957V7.892a.957.957 0 0 0-.957-.957Zm-.957 11.485h-1.64V8.85h1.64v9.57ZM44.93 44.165h3.555a.957.957 0 0 0 .957-.957V31.723a.957.957 0 0 0-.957-.957h-3.554a.957.957 0 0 0-.957.957v11.485a.957.957 0 0 0 .957.957Zm.958-11.485h1.64v9.57h-1.64v-9.57Z"/></g><defs><clipPath id="ava"><path fill="#fff" d="M0 0h70v70H0z"/></clipPath></defs></svg><svg fill="none" viewBox="0 0 25 17" id="gb-flag" xmlns="http://www.w3.org/2000/svg"><path d="M25 .167H0v16.666h25V.167Z" fill="#F0F0F0"/><path d="M14.063.167h-3.126v6.77H0v3.126h10.938v6.771h3.124v-6.771H25V6.938H14.062V.167Z" fill="#D80027"/><path d="M19.229 11.398 25 14.605v-3.207h-5.773ZM15.218 11.398 25 16.833v-1.537l-7.016-3.898h-2.766ZM22.395 16.833l-7.177-3.987v3.987h7.177Z" fill="#0052B4"/><path d="M15.218 11.398 25 16.833v-1.537l-7.016-3.898h-2.766Z" fill="#F0F0F0"/><path d="M15.218 11.398 25 16.833v-1.537l-7.016-3.898h-2.766Z" fill="#D80027"/><path d="M4.411 11.398 0 13.848v-2.45h4.411ZM9.783 12.09v4.743H1.245l8.538-4.744Z" fill="#0052B4"/><path d="M7.016 11.398 0 15.296v1.537l9.783-5.435H7.016Z" fill="#D80027"/><path d="M5.772 5.601 0 2.395V5.6h5.772ZM9.783 5.601 0 .167v1.536l7.016 3.898h2.767ZM2.605.167l7.178 3.987V.167H2.605Z" fill="#0052B4"/><path d="M9.783 5.601 0 .167v1.536l7.016 3.898h2.767Z" fill="#F0F0F0"/><path d="M9.783 5.601 0 .167v1.536l7.016 3.898h2.767Z" fill="#D80027"/><path d="M20.589 5.601 25 3.151V5.6h-4.411ZM15.218 4.91V.167h8.538L15.218 4.91Z" fill="#0052B4"/><path d="M17.984 5.601 25 1.703V.167L15.218 5.6h2.766Z" fill="#D80027"/></svg><svg fill="none" viewBox="0 0 25 17" id="germany-flag" xmlns="http://www.w3.org/2000/svg"><path d="M25 .167H0v16.665h25V.167Z" fill="#D80027"/><path d="M25 .167H0v5.555h25V.167Z" fill="#000"/><path d="M25 11.277H0v5.556h25v-5.556Z" fill="#FFDA44"/></svg><svg fill="none" viewBox="0 0 70 70" id="heating" xmlns="http://www.w3.org/2000/svg"><path d="M30.626 70c-8.847 0-16.042-7.198-16.042-16.042 0-4.765 2.167-9.336 5.833-12.372V10.208C20.417 4.58 24.997 0 30.626 0s10.208 4.58 10.208 10.208v31.378c3.666 3.036 5.833 7.607 5.833 12.372C46.667 62.802 39.472 70 30.626 70Zm0-67.083c-4.02 0-7.292 3.272-7.292 7.291v32.084c0 .458-.216.89-.58 1.163-3.29 2.477-5.253 6.403-5.253 10.503 0 7.237 5.888 13.125 13.125 13.125 7.236 0 13.125-5.888 13.125-13.125 0-4.1-1.963-8.026-5.253-10.503a1.457 1.457 0 0 1-.58-1.163V10.208c0-4.019-3.273-7.291-7.292-7.291Z" fill="#fff"/><path d="M30.626 61.25c-4.02 0-7.292-3.27-7.292-7.292s3.273-7.291 7.292-7.291 7.291 3.27 7.291 7.291c0 4.022-3.272 7.292-7.291 7.292Zm0-11.667a4.38 4.38 0 0 0-4.375 4.375 4.38 4.38 0 0 0 4.375 4.375A4.38 4.38 0 0 0 35 53.958a4.38 4.38 0 0 0-4.375-4.375Z" fill="#fff"/><path d="M30.624 49.583a1.459 1.459 0 0 1-1.458-1.458V16.042a1.459 1.459 0 0 1 2.917 0v32.083c0 .805-.654 1.458-1.459 1.458ZM53.958 11.667h-5.834a1.459 1.459 0 0 1 0-2.917h5.834a1.459 1.459 0 0 1 0 2.917ZM53.958 23.333h-5.834a1.459 1.459 0 0 1 0-2.916h5.834a1.459 1.459 0 0 1 0 2.916ZM53.958 35h-5.834a1.459 1.459 0 0 1 0-2.917h5.834a1.459 1.459 0 0 1 0 2.917Z" fill="#fff"/></svg><svg fill="none" viewBox="0 0 50 50" id="instagram" xmlns="http://www.w3.org/2000/svg"><g clip-path="url(#aza)"><path d="M25 50c13.807 0 25-11.193 25-25S38.807 0 25 0 0 11.193 0 25s11.193 25 25 25Z" fill="#5B6460"/><g clip-path="url(#azb)" fill="#E9ECE0"><path d="M24.503 20.108a5.388 5.388 0 1 0 0 10.777 5.388 5.388 0 1 0 0-10.777Zm0 8.886A3.497 3.497 0 1 1 28 25.497a3.496 3.496 0 0 1-3.497 3.497Z"/><path d="M28.83 15.066c-1.932-.09-6.718-.085-8.651 0-1.7.08-3.199.49-4.407 1.699-2.02 2.02-1.761 4.74-1.761 8.732 0 4.084-.228 6.742 1.761 8.731 2.027 2.027 4.788 1.761 8.732 1.761 4.046 0 5.442.003 6.873-.55 1.945-.756 3.413-2.495 3.557-5.617.09-1.933.085-6.718 0-8.651-.174-3.687-2.152-5.922-6.104-6.104Zm3.058 17.826c-1.324 1.324-3.16 1.206-7.41 1.206-4.375 0-6.13.065-7.41-1.22-1.474-1.466-1.207-3.823-1.207-7.395 0-4.835-.496-8.317 4.356-8.565 1.115-.04 1.443-.052 4.25-.052l.038.026c4.663 0 8.322-.488 8.541 4.363.05 1.106.062 1.439.062 4.24-.001 4.325.08 6.09-1.22 7.397Z"/><path d="M30.105 21.155a1.26 1.26 0 1 0 0-2.519 1.26 1.26 0 0 0 0 2.519Z"/></g></g><defs><clipPath id="aza"><path fill="#fff" d="M0 0h50v50H0z"/></clipPath><clipPath id="azb"><path fill="#fff" transform="translate(14 15)" d="M0 0h21v21H0z"/></clipPath></defs></svg><svg fill="none" viewBox="0 0 70 70" id="kettle" xmlns="http://www.w3.org/2000/svg"><path d="m66.981 36.788-3.088-9.503a29.303 29.303 0 0 0-8.054-12.522 29.301 29.301 0 0 0-13.174-6.935L35.882 6.26l-18.82-4.094a1.027 1.027 0 1 0-.437 2.007L35.42 8.262l.04.009c4.288.945 7.459 4.5 7.894 8.855.533 5.325 1.687 11.245 3.43 17.596 2.319 8.45 2.206 15.514 1.703 19.952-.396 3.49-1.088 5.946-1.443 7.045H33.327a1.027 1.027 0 1 0 0 2.055H47.19l2.174 3.645c.09.152.041.285.004.35a.337.337 0 0 1-.303.176H5.407a.337.337 0 0 1-.303-.176.337.337 0 0 1 .004-.35l2.174-3.645h21.937a1.027 1.027 0 1 0 0-2.055H7.458c-1.657-5.48-2.288-10.358-1.98-15.287.288-4.59 1.352-8.656 2.478-12.961 1.402-5.362 2.852-10.906 2.998-18.068.08-3.964-2.334-9.13-4.374-12.765-.139-.346.045-.591.417-.56L12.612 3.3a1.027 1.027 0 1 0 .437-2.007L7.435.07C5.459-.437 3.725 1.9 4.789 3.643c1.568 2.794 4.187 8.032 4.112 11.718-.14 6.919-1.56 12.343-2.932 17.59-2.246 8.59-4.37 16.71-.387 29.662l-2.239 3.754a2.376 2.376 0 0 0-.025 2.417A2.376 2.376 0 0 0 5.407 70h43.658c.876 0 1.657-.454 2.09-1.216a2.376 2.376 0 0 0-.026-2.417l-2.224-3.73c.355-1.041 1.157-3.702 1.612-7.643.534-4.635.664-12.009-1.753-20.816-1.547-5.638-2.62-10.92-3.197-15.73a15.707 15.707 0 0 1 9.55 9.354c.455 1.26 2.407.52 1.925-.718A17.759 17.759 0 0 0 45.303 16.21a12.101 12.101 0 0 0-3.129-6.387l.029.007a27.247 27.247 0 0 1 12.248 6.448A27.245 27.245 0 0 1 61.94 27.92l3.089 9.503c.194.597.094 1.23-.275 1.738-.37.508-.94.799-1.568.799a1.946 1.946 0 0 1-1.816-1.261l-3.06-8.216a1.028 1.028 0 0 0-1.926.718l3.06 8.215a4.01 4.01 0 0 0 3.742 2.598c1.293 0 2.47-.6 3.23-1.646.76-1.045.966-2.35.566-3.58Z" fill="#fff"/><path d="M32.523 50.892a4.509 4.509 0 0 0 4.503-4.504v-22.92a4.509 4.509 0 0 0-4.504-4.504 4.509 4.509 0 0 0-4.503 4.504v22.92a4.509 4.509 0 0 0 4.504 4.504Zm0-29.877c1.352 0 2.453 1.1 2.453 2.453v22.92c0 1.352-1.101 2.453-2.453 2.453a2.456 2.456 0 0 1-2.454-2.453v-1.085h1.69a1.025 1.025 0 1 0 0-2.05h-1.69v-3.731h1.69a1.025 1.025 0 1 0 0-2.05h-1.69V33.74h1.69a1.025 1.025 0 1 0 0-2.051h-1.69v-3.73h1.69a1.025 1.025 0 1 0 0-2.051h-1.69v-2.441c0-1.353 1.1-2.453 2.454-2.453Z" fill="#fff"/></svg><svg fill="none" viewBox="0 0 70 70" id="kitchenette" xmlns="http://www.w3.org/2000/svg"><g clip-path="url(#bba)" fill="#fff"><path d="M68.833 15.167H43.167c-.645 0-1.167.522-1.167 1.166v28h-5.833v-1.166h1.166a1.167 1.167 0 0 0 0-2.334H25.667a1.167 1.167 0 1 0 0 2.334h1.166v1.166H15.167v-1.166h1.166a1.167 1.167 0 0 0 0-2.334H4.667a1.167 1.167 0 1 0 0 2.334h1.166v1.166H1.167C.522 44.333 0 44.856 0 45.5v23.333C0 69.478.522 70 1.167 70h67.666c.645 0 1.167-.522 1.167-1.167v-52.5c0-.644-.522-1.166-1.167-1.166Zm-39.666 28h4.666v1.166h-4.666v-1.166Zm-21 0h4.666v1.166H8.167v-1.166Zm10.5 24.5H2.333v-14h16.334v14Zm0-16.334H2.333v-4.666h16.334v4.666ZM42 67.667H21v-21h21v21Zm25.667 0H44.333v-31.5h23.334v31.5Zm0-33.834H44.333V17.5h23.334v16.333Z"/><path d="M24.5 65.333h14c.644 0 1.166-.522 1.166-1.166v-14c0-.645-.522-1.167-1.166-1.167h-14c-.645 0-1.167.522-1.167 1.167v14c0 .644.522 1.166 1.167 1.166Zm1.166-14h11.667V63H25.666V51.333ZM46.667 32.667c.644 0 1.166-.523 1.166-1.167v-4.667a1.167 1.167 0 1 0-2.333 0V31.5c0 .644.522 1.167 1.167 1.167ZM46.667 44.333c.644 0 1.166-.522 1.166-1.166V38.5a1.167 1.167 0 1 0-2.333 0v4.667c0 .644.522 1.166 1.167 1.166ZM2.75 20.729c.211.175.476.271.75.271h35a1.167 1.167 0 0 0 .898-1.915l-11.667-14a1.167 1.167 0 0 0-.897-.418h-1.167v-3.5C25.667.522 25.145 0 24.5 0h-7c-.644 0-1.166.522-1.166 1.167v3.5h-1.167c-.346 0-.675.153-.897.418l-11.667 14a1.167 1.167 0 0 0 .148 1.644ZM18.668 2.333h4.667v2.334h-4.667V2.333ZM15.714 7h10.573l9.723 11.667H5.99L15.714 7Z"/></g><defs><clipPath id="bba"><path fill="#fff" d="M0 0h70v70H0z"/></clipPath></defs></svg><svg fill="none" viewBox="0 0 71 66" id="logo" xmlns="http://www.w3.org/2000/svg"><path d="M4.228 59.849v-.82H0v.82h1.657v5.2h.914v-5.2h1.657ZM9.873 65.05v-6.021H8.96v2.57H6.516v-2.57h-.913v6.02h.913v-2.63H8.96v2.63h.913ZM15.636 65.05v-.82H12.7v-1.81h2.503v-.812h-2.503v-1.76h2.935v-.82h-3.848v6.021h3.848ZM23.735 62.715v-.921h-2.199v.778h1.286v.338c0 .197-.023.372-.068.524a1.197 1.197 0 0 1-.668.736c-.169.073-.352.11-.55.11a1.31 1.31 0 0 1-.498-.093 1.204 1.204 0 0 1-.576-.524 1.573 1.573 0 0 1-.11-.347 5.166 5.166 0 0 1-.05-.516 14.12 14.12 0 0 1-.017-.761c0-.304.006-.555.017-.753.011-.203.028-.372.05-.507.029-.14.065-.257.11-.347.051-.096.113-.183.186-.262a1.205 1.205 0 0 1 .888-.372c.339 0 .615.093.83.28.213.18.36.436.439.769h.922a2.622 2.622 0 0 0-.237-.728 2.006 2.006 0 0 0-1.1-.989 2.24 2.24 0 0 0-.854-.152c-.32 0-.614.056-.879.169-.26.107-.493.265-.702.474-.146.146-.26.301-.338.465a2.28 2.28 0 0 0-.178.532 4.319 4.319 0 0 0-.059.643 32.412 32.412 0 0 0 0 1.564c.006.232.025.443.06.635.039.191.098.369.177.532.079.164.191.319.338.466.209.208.446.369.71.482.265.107.556.16.871.16.322 0 .62-.053.897-.16a2.1 2.1 0 0 0 .76-.525 1.82 1.82 0 0 0 .415-.719c.085-.264.127-.591.127-.98ZM29.235 65.05v-.82h-2.9v-5.202h-.914v6.021h3.814ZM35.047 65.05l-2.207-6.021h-.736l-2.207 6.02h.972l.415-1.209h2.376l.414 1.21h.973Zm-1.64-1.988h-1.853l.939-2.672.913 2.672ZM40.002 63.333c0-.26-.042-.493-.127-.702a1.344 1.344 0 0 0-.363-.533 1.56 1.56 0 0 0-.449-.27 2.892 2.892 0 0 0-.676-.178l-.685-.102c-.293-.045-.519-.138-.676-.279a.738.738 0 0 1-.178-.245.934.934 0 0 1-.05-.313c0-.27.092-.493.278-.668.192-.18.465-.27.82-.27.254 0 .488.033.702.101.22.062.423.183.61.364l.583-.575a2.441 2.441 0 0 0-.829-.524 3.03 3.03 0 0 0-1.04-.161c-.316 0-.598.042-.846.127-.248.084-.46.205-.634.363-.17.158-.302.347-.397.567-.09.214-.136.45-.136.71 0 .49.147.874.44 1.15.27.254.651.415 1.142.482l.71.102c.18.028.316.059.406.093a.77.77 0 0 1 .254.16c.157.141.236.35.236.626 0 .293-.11.522-.33.685-.214.158-.518.237-.913.237-.31 0-.589-.04-.837-.118a1.836 1.836 0 0 1-.702-.457l-.609.6c.288.293.6.5.939.618.338.118.736.177 1.192.177.316 0 .606-.04.871-.118a2.01 2.01 0 0 0 .685-.347 1.597 1.597 0 0 0 .61-1.302ZM45.246 63.333c0-.26-.042-.493-.127-.702a1.343 1.343 0 0 0-.364-.533 1.562 1.562 0 0 0-.448-.27 2.893 2.893 0 0 0-.676-.178l-.685-.102c-.293-.045-.519-.138-.677-.279a.738.738 0 0 1-.177-.245.934.934 0 0 1-.051-.313c0-.27.093-.493.279-.668.192-.18.465-.27.82-.27.254 0 .488.033.702.101.22.062.423.183.609.364l.583-.575a2.44 2.44 0 0 0-.828-.524 3.03 3.03 0 0 0-1.04-.161c-.316 0-.598.042-.846.127-.248.084-.46.205-.634.363-.17.158-.302.347-.398.567-.09.214-.135.45-.135.71 0 .49.147.874.44 1.15.27.254.65.415 1.141.482l.71.102c.181.028.316.059.406.093a.77.77 0 0 1 .254.16c.158.141.237.35.237.626 0 .293-.11.522-.33.685-.214.158-.519.237-.913.237-.31 0-.59-.04-.837-.118a1.836 1.836 0 0 1-.702-.457l-.609.6c.287.293.6.5.939.618.338.118.735.177 1.192.177.316 0 .606-.04.871-.118.265-.08.493-.195.685-.347a1.597 1.597 0 0 0 .609-1.302ZM53.45 65.05v-6.021h-.914v2.57h-2.444v-2.57h-.913v6.02h.913v-2.63h2.444v2.63h.913ZM59.592 63.02v-3.992h-.913v3.95c0 .406-.116.724-.347.955-.225.231-.527.347-.905.347-.377 0-.68-.116-.905-.347-.225-.23-.338-.55-.338-.955v-3.95h-.913v3.992c0 .31.053.595.16.854.113.254.266.47.457.651.192.18.42.322.685.423.265.102.55.152.854.152.305 0 .59-.05.854-.152.265-.101.494-.242.685-.423.198-.18.35-.397.457-.65.113-.26.17-.545.17-.855ZM65.104 59.849v-.82h-4.228v.82h1.657v5.2h.914v-5.2h1.657ZM70.242 63.333c0-.26-.042-.493-.127-.702a1.343 1.343 0 0 0-.364-.533 1.56 1.56 0 0 0-.448-.27 2.892 2.892 0 0 0-.676-.178l-.685-.102c-.293-.045-.519-.138-.677-.279a.738.738 0 0 1-.177-.245.934.934 0 0 1-.051-.313c0-.27.093-.493.279-.668.192-.18.465-.27.82-.27.254 0 .488.033.702.101.22.062.423.183.609.364l.584-.575a2.442 2.442 0 0 0-.83-.524 3.03 3.03 0 0 0-1.04-.161c-.315 0-.597.042-.845.127-.248.084-.46.205-.634.363-.17.158-.302.347-.398.567-.09.214-.135.45-.135.71 0 .49.147.874.44 1.15.27.254.65.415 1.141.482l.71.102c.181.028.316.059.407.093.09.034.174.087.253.16.158.141.237.35.237.626 0 .293-.11.522-.33.685-.214.158-.518.237-.913.237-.31 0-.59-.04-.837-.118a1.836 1.836 0 0 1-.702-.457l-.609.6c.288.293.6.5.939.618.338.118.735.177 1.192.177.316 0 .606-.04.871-.118.265-.08.493-.195.685-.347a1.597 1.597 0 0 0 .609-1.302Z" fill="#333"/><path fill-rule="evenodd" clip-rule="evenodd" d="M37.728 45.144 69.48 49.96V21.426L37.049 5.02 16.895.84.787 13.892V49.12l36.941-3.976ZM.007 49.989V13.52L16.69 0 37.31 4.278 70.26 20.946v29.923L37.711 45.93.007 49.989Z" fill="#333"/><path fill-rule="evenodd" clip-rule="evenodd" d="m66.69 24.209-6.504 6.765-.563-.541 6.505-6.765.563.54ZM48.694 32.736l5.724 4.424-.477.617-5.724-4.423.477-.618Z" fill="#333"/><path fill-rule="evenodd" clip-rule="evenodd" d="M59.389 49.178V8.196h.78v40.982h-.78ZM53.713 26.82V1.04h.78v25.78h-.78Z" fill="#333"/><path fill-rule="evenodd" clip-rule="evenodd" d="M53.713 54.902V24.068h.78v30.834h-.78ZM67.45 27.971h-4.424v-.78h4.424v.78ZM16.4 47.746V.521h.78v47.225h-.78ZM36.955 45.665V4.684h.78v40.98h-.78Z" fill="#333"/></svg><svg fill="none" viewBox="0 0 49 49" id="mastercard" xmlns="http://www.w3.org/2000/svg"><g clip-path="url(#bda)" fill="#E9ECE0"><path d="M33.933 9.716a14.433 14.433 0 0 0-9.721 3.748 14.442 14.442 0 0 0-9.717-3.745h-.093C6.444 9.771 0 16.245 0 24.214c0 8.001 6.494 14.494 14.494 14.494 3.737 0 7.145-1.417 9.716-3.745a14.336 14.336 0 0 1-1.482-1.584h2.993a14.492 14.492 0 0 1-1.472 1.553h-.002c-.012.013-.025.021-.037.032a14.44 14.44 0 0 0 9.728 3.75c8.005-.004 14.492-6.496 14.49-14.5v-.007c.001-8.004-6.49-14.493-14.495-14.49Zm-11.039 5.245h2.755c.406.492.783 1.01 1.125 1.552h-4.915a21.68 21.68 0 0 1 1.035-1.552Zm-1.891 3.074h6.607c.235.502.443 1.021.625 1.553H20.22c.08-.15.36-.754.783-1.553ZM5.917 27.906l.879-5.542-1.983 5.542H3.75l-.138-5.542-.939 5.542H1.184l1.234-7.35H4.67l.079 4.51 1.521-4.51h2.443l-1.217 7.35H5.917Zm5.265-.012.051-.587c-.024.003-.494.71-1.583.71-.57 0-1.49-.312-1.49-1.664 0-1.719 1.402-2.289 2.737-2.289.21 0 .663.038.663.038s.051-.105.051-.389c0-.467-.42-.53-.995-.53-1.013 0-1.682.27-1.682.27l.224-1.33s.812-.34 1.869-.34c.547 0 2.12.058 2.12 1.861l-.606 4.25h-1.359Zm5.743-1.872c0 2.051-1.987 1.963-2.334 1.963-1.295 0-1.695-.179-1.732-.189l.206-1.35c.002-.012.65.235 1.371.235.416 0 .956-.04.956-.538 0-.744-1.932-.566-1.932-2.333 0-1.559 1.158-2.015 2.3-2.015.882 0 1.424.121 1.424.121l-.195 1.362s-.837-.069-1.054-.069c-.549 0-.848.12-.848.504-.001.772 1.838.394 1.838 2.31Zm2.386.538c.137 0 .292-.047.398-.047l-.193 1.311c-.155.043-.594.2-1.157.203-.719.006-1.23-.396-1.23-1.308 0-.612.877-5.655.911-5.688h1.543l-.157.902h.77l-.197 1.453h-.817l-.434 2.677c-.033.213.026.497.563.497Zm3.394-4.797c1.694 0 2.201 1.24 2.201 2.257 0 .407-.204 1.407-.204 1.407h-3.136s-.29 1.235 1.367 1.235c.777 0 1.639-.38 1.639-.38L24.3 27.77s-.498.254-1.63.254c-1.227 0-2.666-.519-2.666-2.699.001-1.889 1.149-3.56 2.701-3.56Zm4.087 10.123H21.65c-.313-.5-.605-1.013-.856-1.552h6.843a14.886 14.886 0 0 1-.845 1.552Zm-.345-3.969h-1.584l.963-5.982h1.437l-.138.867s.512-.943 1.203-.943c.201 0 .298.02.298.02-.205.418-.386.801-.574 1.79-1.072-.38-1.154 1.693-1.605 4.248Zm6.035-.093s-.83.212-1.35.212c-1.842 0-2.777-1.27-2.777-3.196 0-2.903 1.733-4.449 3.514-4.449.805 0 1.738.378 1.738.378l-.252 1.635s-.631-.44-1.416-.44c-1.05 0-1.992 1.001-1.992 2.822 0 .897.439 1.733 1.535 1.733.521 0 1.276-.379 1.276-.379l-.276 1.684Zm3.715.073.052-.59c-.025.002-.495.708-1.583.708-.57 0-1.49-.31-1.49-1.663 0-1.719 1.402-2.289 2.736-2.289.21 0 .664.038.664.038s.052-.104.052-.388c0-.467-.42-.53-.996-.53-1.013 0-1.681.27-1.681.27l.224-1.33s.812-.34 1.87-.34c.546 0 2.12.058 2.119 1.861l-.606 4.25c-.001.003-1.361.003-1.361.003Zm3.207.02H37.82l.963-5.982h1.438l-.138.867s.513-.943 1.204-.943c.201 0 .297.02.297.02-.204.418-.387.801-.574 1.79-1.073-.38-1.155 1.693-1.606 4.248Zm4.729-.016.067-.55s-.512.645-1.438.645c-1.283 0-1.912-1.239-1.912-2.505 0-1.958 1.178-3.665 2.592-3.665.91.002 1.491.805 1.491.805l.334-2.065 1.547-.003-1.18 7.338h-1.501Zm3.052-.207a.461.461 0 0 1-.406.237.471.471 0 0 1-.404-.237.464.464 0 0 1 0-.466.475.475 0 0 1 .404-.236c.08 0 .156.021.23.062a.461.461 0 0 1 .176.64ZM47.06 32.117c-.01-.007-.018-.018-.034-.024a.244.244 0 0 0-.08-.009h-.094v.15h.1c.047 0 .078-.004.096-.021a.066.066 0 0 0 .025-.055.075.075 0 0 0-.012-.041Z"/><path d="M47.384 32.027a.43.43 0 0 0-.177-.174.472.472 0 0 0-.23-.062.467.467 0 0 0-.23.062.434.434 0 0 0-.175.174.472.472 0 0 0 .408.701.468.468 0 0 0 .404-.701Zm-.288.492-.044-.079a.418.418 0 0 0-.086-.119.11.11 0 0 0-.064-.018h-.047v.215h-.082v-.505h.174c.06 0 .103.005.127.015.027.01.05.024.064.049a.127.127 0 0 1 .023.074.144.144 0 0 1-.04.097.162.162 0 0 1-.104.046.11.11 0 0 1 .043.027.59.59 0 0 1 .075.099l.062.099h-.101ZM11.022 25.21c-1.13 0-1.36.509-1.36.932 0 .218.125.582.604.582.93 0 1.122-1.218 1.092-1.477-.044-.01-.072-.035-.336-.036ZM22.711 23.144c-.841 0-1.003.957-1.003 1.058h1.713c0-.077.161-1.058-.71-1.058ZM43.71 23.311c-.68 0-1.217.788-1.216 1.985 0 .73.26 1.198.816 1.198.836 0 1.24-1.091 1.24-1.904 0-.897-.286-1.279-.84-1.279ZM47.115 27.268a.377.377 0 0 0-.146-.145.381.381 0 0 0-.528.145.403.403 0 0 0-.053.195c0 .067.018.133.05.194a.409.409 0 0 0 .34.2c.067 0 .133-.02.193-.054a.388.388 0 0 0 .144-.535Zm-.217.452-.045-.078a.404.404 0 0 0-.084-.118.102.102 0 0 0-.066-.019h-.046v.214h-.084v-.504h.175c.059 0 .103.005.128.016a.143.143 0 0 1 .064.048.116.116 0 0 1 .023.074.136.136 0 0 1-.04.096c-.026.029-.062.041-.104.046.02.008.033.017.043.026a.51.51 0 0 1 .074.099l.062.1h-.1ZM36.039 25.21c-1.131 0-1.36.509-1.36.932 0 .218.124.582.604.582.929 0 1.12-1.218 1.092-1.477-.045-.01-.073-.035-.336-.036Z"/><path d="M46.864 27.318a.091.091 0 0 0-.034-.025.283.283 0 0 0-.082-.01v.001h-.09v.152h.098c.047 0 .078-.006.097-.021a.078.078 0 0 0 .024-.056.067.067 0 0 0-.013-.041Z"/></g><defs><clipPath id="bda"><path fill="#fff" d="M0 0h48.428v48.428H0z"/></clipPath></defs></svg><svg fill="none" viewBox="0 0 25 17" id="norway-flag" xmlns="http://www.w3.org/2000/svg"><path d="M25 .167H0v16.666h25V.167Z" fill="#D80027"/><path d="M9.375.167H6.25v6.77H0v3.126h6.25v6.771h3.125v-6.771H25V6.938H9.375V.167Z" fill="#F0F0F0"/></svg><svg fill="none" viewBox="0 0 70 70" id="parking" xmlns="http://www.w3.org/2000/svg"><g clip-path="url(#bfa)" fill="#fff"><path d="M35 0C20.205 0 8.167 12.665 8.167 28.233c0 15.257 24.947 40.364 26.008 41.426a1.168 1.168 0 0 0 1.65 0c1.062-1.062 26.009-26.169 26.009-41.426C61.834 12.665 49.796 0 35 0Zm0 67.163c-4.362-4.525-24.5-26.114-24.5-38.93 0-14.28 10.992-25.9 24.5-25.9 13.51 0 24.5 11.62 24.5 25.9 0 12.81-20.139 34.404-24.5 38.93Z"/><path d="M35 5.833c-11.58 0-21 9.421-21 21 0 11.58 9.42 21 21 21s21-9.42 21-21c0-11.579-9.42-21-21-21ZM35 45.5c-10.294 0-18.667-8.374-18.667-18.667 0-10.292 8.373-18.666 18.667-18.666 10.294 0 18.667 8.374 18.667 18.666C53.667 37.126 45.294 45.5 35 45.5ZM35 57.167c-.643 0-1.166.522-1.166 1.166v10.5a1.167 1.167 0 0 0 2.333 0v-10.5c0-.644-.522-1.166-1.166-1.166Z"/><path d="M37.333 18.667h-4.666c-.644 0-1.167.522-1.167 1.166V24.5c0 .644.523 1.167 1.167 1.167h4.666c1.93 0 3.5-1.57 3.5-3.5s-1.57-3.5-3.5-3.5Zm0 4.666h-3.5V21h3.5a1.168 1.168 0 0 1 0 2.333Z"/><path d="M37.333 14H28c-.644 0-1.167.523-1.167 1.167V38.5c0 .644.523 1.167 1.167 1.167h4.666c.644 0 1.167-.523 1.167-1.167v-8.167h3.5c4.503 0 8.166-3.663 8.166-8.166 0-4.504-3.663-8.167-8.166-8.167Zm0 14h-4.667c-.644 0-1.166.523-1.166 1.167v8.166h-2.334v-21h8.167a5.84 5.84 0 0 1 5.833 5.834A5.84 5.84 0 0 1 37.333 28ZM68.833 67.667h-4.666a1.167 1.167 0 0 0 0 2.333h4.666a1.167 1.167 0 0 0 0-2.333ZM28 67.667H1.167a1.167 1.167 0 0 0 0 2.333H28a1.167 1.167 0 0 0 0-2.333ZM56 67.667H42A1.167 1.167 0 0 0 42 70h14a1.167 1.167 0 0 0 0-2.333Z"/></g><defs><clipPath id="bfa"><path fill="#fff" d="M0 0h70v70H0z"/></clipPath></defs></svg><svg fill="none" viewBox="0 0 51 51" id="paypal" xmlns="http://www.w3.org/2000/svg"><g clip-path="url(#bga)" fill="#E9ECE0"><path d="M9.035 20.604a2.043 2.043 0 0 0-.75-.809 3.513 3.513 0 0 0-1.193-.438 9.75 9.75 0 0 0-1.621-.128l-2.867.002a.718.718 0 0 0-.66.524l-1.93 8.402c-.07.284.118.522.416.522h1.373a.703.703 0 0 0 .659-.522l.47-2.04a.703.703 0 0 1 .659-.521h.393c1.679-.002 2.979-.345 3.913-1.032.939-.688 1.402-1.597 1.402-2.723-.001-.493-.082-.907-.264-1.237Zm-2.961 2.745c-.415.304-.992.456-1.736.456h-.336c-.3 0-.482-.236-.417-.524l.413-1.784c.058-.286.359-.523.654-.521l.45-.003c.525 0 .926.091 1.194.267.265.174.398.451.396.818.008.558-.205.987-.618 1.291ZM48.175 19.887l-.086.026-.115.016-.141-.022-.072-.07-.033-.11-.002-.165v-.61h.459v-.19h-.46v-.38H47.5v.38h-.154v.19h.154v.71l.106.352.312.112.13-.01.14-.028v-.2h-.012ZM50.304 18.86l-.328-.136-.242.05-.246.165-.143-.159-.232-.055-.223.05-.21.135v-.148h-.224v1.335h.222V19.1l.187-.116.186-.046.152.027.075.077.033.128.011.165v.763h.223v-.854l-.004-.07-.004-.066.19-.12.188-.048.147.027.08.077.028.13.015.162v.763h.224v-.867l-.105-.373ZM15.656 21.805c-.518-.292-1.336-.438-2.454-.438-.553 0-1.104.043-1.66.129-.412.063-.452.075-.705.13-.522.114-.604.635-.604.635l-.168.69c-.095.442.16.425.265.388.228-.068.355-.138.821-.242.445-.101.914-.177 1.286-.172.55 0 .97.058 1.25.176.275.12.413.326.413.624l-.024.194-.198.122c-.779.049-1.342.12-2.025.22-.668.093-1.254.256-1.74.479-.524.23-.912.539-1.183.932-.262.395-.393.874-.393 1.436 0 .529.19.966.56 1.304.37.332.86.494 1.446.494.371-.002.658-.031.862-.08l.665-.23.563-.311.518-.342.007.01-.052.22-.003.009v.002c-.056.268.106.488.367.514l.005.006h1.275l.018-.008a.71.71 0 0 0 .591-.514l1.001-4.333.052-.353.024-.331c.004-.614-.26-1.07-.78-1.36Zm-2.214 4.872-.214.282-.54.279a1.923 1.923 0 0 1-.718.155c-.338 0-.603-.05-.782-.15l-.265-.514c0-.28.064-.5.201-.67l.582-.396c.25-.084.553-.155.905-.204.314-.04.934-.11 1.015-.112l.095.167c-.019.095-.195.83-.279 1.163ZM40.594 21.811c-.521-.292-1.338-.439-2.453-.439-.553 0-1.105.043-1.66.132-.412.06-.453.073-.707.127-.521.113-.602.636-.602.636l-.168.69c-.094.441.154.421.27.387.229-.068.352-.135.814-.243.443-.1.916-.174 1.289-.172.547 0 .967.06 1.246.177.278.12.414.328.414.623l-.021.193-.196.125c-.787.047-1.351.12-2.027.218-.666.093-1.254.255-1.742.48-.521.23-.914.54-1.182.933-.265.395-.394.873-.394 1.43 0 .533.188.97.562 1.306.373.331.858.497 1.444.497.369-.004.656-.028.86-.08l.664-.227.568-.312.514-.346.009.011-.047.222-.005.004.002.004c-.062.268.1.49.365.514l.002.005h1.274l.02-.007a.703.703 0 0 0 .585-.518l1.004-4.327.053-.355.029-.332c0-.612-.261-1.065-.784-1.356Zm-2.21 4.872-.222.285-.535.277a1.945 1.945 0 0 1-.715.155c-.35 0-.607-.05-.781-.15l-.268-.513c0-.28.065-.499.196-.672.133-.163.336-.297.588-.395a5.1 5.1 0 0 1 .904-.203c.312-.039.93-.112 1.01-.113l.097.167c-.014.095-.191.828-.273 1.162ZM33.969 20.635a2.124 2.124 0 0 0-.756-.812 3.37 3.37 0 0 0-1.193-.438 9.44 9.44 0 0 0-1.615-.126l-2.871.002a.713.713 0 0 0-.655.522l-1.931 8.406c-.07.285.122.521.414.521l1.375-.002a.712.712 0 0 0 .66-.52l.465-2.041a.712.712 0 0 1 .66-.521h.393c1.681 0 2.984-.346 3.922-1.031.927-.693 1.396-1.6 1.396-2.727-.005-.491-.09-.906-.264-1.233Zm-2.961 2.749c-.414.298-.992.45-1.732.45h-.342a.411.411 0 0 1-.42-.523l.416-1.781a.698.698 0 0 1 .656-.521l.445-.003c.528.003.924.09 1.194.266.269.176.396.452.399.818.003.558-.204.988-.616 1.294ZM45.742 19.85c.063-.287-.117-.52-.412-.516H44.1c-.252 0-.479.187-.59.417l-.068.106-.062.272-1.719 7.814-.056.24.002.006c-.057.257.101.451.345.488l.021.029h1.277c.25 0 .485-.19.592-.424l.066-.1 1.838-8.331-.004-.001ZM24.986 21.472c-.325.004-1.646 0-1.646 0-.296 0-.676.239-.864.524 0 0-1.966 3.374-2.157 3.713l-.228-.003-.612-3.687c-.068-.29-.37-.538-.748-.538l-1.23.002c-.296 0-.478.236-.41.524 0 0 .933 5.315 1.12 6.566.087.69-.01.813-.01.813l-1.217 2.118c-.18.288-.083.523.212.523l1.422-.002c.296 0 .685-.233.861-.522l5.47-9.252c0 .001.526-.79.037-.779Z"/></g><defs><clipPath id="bga"><path fill="#fff" d="M0 0h50.409v50.409H0z"/></clipPath></defs></svg><svg fill="none" viewBox="0 0 70 70" id="shower" xmlns="http://www.w3.org/2000/svg"><path d="M58.916 0a3.5 3.5 0 0 0-3.5 3.5v1.167H29.75a5.84 5.84 0 0 0-5.834 5.833v5.833h-2.333a3.5 3.5 0 0 0-3.5 3.5v4.02A17.183 17.183 0 0 0 9.916 38.5v1.381a3.5 3.5 0 0 0-2.333 3.286V45.5c0 .644.522 1.167 1.167 1.167h37.333c.644 0 1.167-.523 1.167-1.167v-2.333a3.5 3.5 0 0 0-2.334-3.286V38.5a17.43 17.43 0 0 0-5.133-12.38 15.74 15.74 0 0 0-3.033-2.287v-4a3.5 3.5 0 0 0-3.5-3.5h-2.334v-3.5c0-.644.523-1.166 1.167-1.166h23.333V14a3.5 3.5 0 0 0 3.5 3.5h3.5V0h-3.5Zm-14 43.167v1.166h-35v-1.166c0-.645.523-1.167 1.167-1.167H43.75c.644 0 1.166.522 1.166 1.167ZM38.14 27.774A15.106 15.106 0 0 1 42.583 38.5v1.167H12.25V38.5a14.892 14.892 0 0 1 7.318-12.833h15.705a13.598 13.598 0 0 1 2.866 2.107Zm-4.89-9.107c.645 0 1.167.522 1.167 1.166v3.5h-14v-3.5c0-.644.523-1.166 1.167-1.166H33.25Zm22.167-9.334H32.083a3.5 3.5 0 0 0-3.5 3.5v3.5H26.25V10.5a3.5 3.5 0 0 1 3.5-3.5h25.666v2.333Zm4.667 5.834h-1.167A1.167 1.167 0 0 1 57.75 14V3.5c0-.644.522-1.167 1.166-1.167h1.167v12.834ZM27.417 49c-.645 0-1.167.522-1.167 1.167v4.666a1.167 1.167 0 0 0 2.333 0v-4.666c0-.645-.522-1.167-1.166-1.167ZM27.417 58.333c-.645 0-1.167.523-1.167 1.167v4.667a1.167 1.167 0 0 0 2.333 0V59.5c0-.644-.522-1.167-1.166-1.167ZM41.417 53.667c-.645 0-1.167.522-1.167 1.166V59.5a1.167 1.167 0 0 0 2.333 0v-4.667c0-.644-.522-1.166-1.166-1.166ZM32.084 53.667c-.645 0-1.167.522-1.167 1.166V59.5a1.167 1.167 0 0 0 2.333 0v-4.667c0-.644-.522-1.166-1.166-1.166ZM22.75 53.667c-.645 0-1.167.522-1.167 1.166V59.5a1.167 1.167 0 0 0 2.333 0v-4.667c0-.644-.522-1.166-1.166-1.166ZM13.417 53.667c-.645 0-1.167.522-1.167 1.166V59.5a1.167 1.167 0 0 0 2.333 0v-4.667c0-.644-.522-1.166-1.166-1.166ZM18.084 49c-.645 0-1.167.522-1.167 1.167v4.666a1.167 1.167 0 0 0 2.333 0v-4.666c0-.645-.522-1.167-1.166-1.167ZM36.75 49c-.645 0-1.167.522-1.167 1.167v4.666a1.167 1.167 0 0 0 2.333 0v-4.666c0-.645-.522-1.167-1.166-1.167ZM36.75 58.333c-.645 0-1.167.523-1.167 1.167v4.667a1.167 1.167 0 0 0 2.333 0V59.5c0-.644-.522-1.167-1.166-1.167ZM18.084 58.333c-.645 0-1.167.523-1.167 1.167v4.667a1.167 1.167 0 0 0 2.333 0V59.5c0-.644-.522-1.167-1.166-1.167ZM22.75 63c-.645 0-1.167.522-1.167 1.167v4.666a1.167 1.167 0 0 0 2.333 0v-4.666c0-.645-.522-1.167-1.166-1.167ZM32.084 63c-.645 0-1.167.522-1.167 1.167v4.666a1.167 1.167 0 0 0 2.333 0v-4.666c0-.645-.522-1.167-1.166-1.167Z" fill="#fff"/></svg><svg fill="none" viewBox="0 0 70 70" id="soket" xmlns="http://www.w3.org/2000/svg"><g clip-path="url(#bia)" fill="#fff"><path d="M57.633 52.486a3.5 3.5 0 0 0-.127-4.793l-3.459-3.46a15.18 15.18 0 0 0-1.29-19.956L37.817 9.333l.3-.301a5.291 5.291 0 0 0-7.482-7.483L24.5 7.684l-6.617-6.617a3.641 3.641 0 0 0-5.15 5.15l6.618 6.617-6.517 6.517-6.618-6.617a3.641 3.641 0 0 0-5.15 5.15L7.685 24.5 1.55 30.636a5.291 5.291 0 0 0 7.483 7.483l.3-.301 14.943 14.942a15.156 15.156 0 0 0 19.957 1.29l3.46 3.46a3.478 3.478 0 0 0 4.793.127L64.85 70H70v-5.15L57.633 52.487ZM14.383 4.567a1.308 1.308 0 1 1 1.85-1.85l6.618 6.617-1.85 1.85-6.618-6.617ZM2.716 16.233a1.308 1.308 0 1 1 1.85-1.85L11.185 21l-1.85 1.85-6.618-6.617Zm4.968 19.934-.301.301a2.959 2.959 0 0 1-4.184-4.184l6.135-6.134 5.15-5.15L21 14.484l5.15-5.15L32.284 3.2a2.959 2.959 0 0 1 4.184 4.183l-.301.301L7.684 36.167ZM44.076 51.11c-5.016 5.004-13.135 5.004-18.15 0L10.983 36.167l25.184-25.183 14.942 14.942c5.004 5.015 5.004 13.135 0 18.15l-7.033 7.034Zm6.916 4.75a1.167 1.167 0 0 1-1.65 0l-3.359-3.36 6.517-6.517 3.359 3.36a1.167 1.167 0 0 1 0 1.649l-4.867 4.867Zm16.675 11.807h-1.85L54.15 56 56 54.15l11.667 11.667v1.85Z"/><path d="m43.146 42.951-3.5-18.666a1.167 1.167 0 0 0-1.97-.61l-3.416 3.416-1.677-4.19a1.167 1.167 0 0 0-1.909-.392l-5.833 5.833c-.33.33-.432.825-.259 1.258l4.667 11.666a1.167 1.167 0 0 0 1.908.392L35 37.817l6.175 6.175a1.167 1.167 0 0 0 1.971-1.04Zm-7.32-7.609a1.167 1.167 0 0 0-1.65 0l-3.416 3.416-3.723-9.309 4.038-4.039 1.676 4.191a1.167 1.167 0 0 0 1.909.392l3.102-3.102 2.398 12.785-4.335-4.334Z"/></g><defs><clipPath id="bia"><path fill="#fff" d="M0 0h70v70H0z"/></clipPath></defs></svg><svg fill="none" viewBox="0 0 70 70" id="toilets" xmlns="http://www.w3.org/2000/svg"><g clip-path="url(#bja)" fill="#fff"><path d="M50.167 32.667H49v-2.334h1.167a3.5 3.5 0 0 0 3.5-3.5V6.785A3.492 3.492 0 0 0 52.5 0h-35a3.492 3.492 0 0 0-1.167 6.785v20.048a3.5 3.5 0 0 0 3.5 3.5H21v2.334h-1.167A5.84 5.84 0 0 0 14 38.5c0 .644.522 1.167 1.167 1.167a19.717 19.717 0 0 0 11.666 18.056v11.11c0 .645.523 1.167 1.167 1.167h14c.644 0 1.167-.522 1.167-1.167v-11.11a19.722 19.722 0 0 0 11.666-18.056c.645 0 1.167-.523 1.167-1.167a5.84 5.84 0 0 0-5.833-5.833ZM16.333 3.5c0-.644.523-1.167 1.167-1.167h35a1.167 1.167 0 0 1 0 2.334h-35A1.167 1.167 0 0 1 16.333 3.5Zm3.5 24.5a1.167 1.167 0 0 1-1.166-1.167V7h32.666v19.833c0 .645-.522 1.167-1.166 1.167H19.833Zm26.834 2.333v2.334H23.333v-2.334h23.334Zm-17.5 37.334v-9.04l.108.03c.117.034.234.061.35.094.427.121.858.228 1.294.32.209.044.419.08.629.116.36.063.723.117 1.088.158.222.027.441.055.665.073.476.04.952.063 1.43.068.088 0 .175.013.263.013.089 0 .176-.012.265-.013a19.86 19.86 0 0 0 1.428-.068c.224-.018.446-.048.669-.073.361-.043.72-.095 1.079-.157.213-.037.427-.075.639-.116.425-.088.843-.194 1.259-.31.13-.037.261-.066.39-.104l.105-.028.005 9.037H29.167Zm12.39-11.778a17.56 17.56 0 0 1-9.904.954 16.919 16.919 0 0 1-3.217-.957A17.413 17.413 0 0 1 17.5 39.666h35A17.416 17.416 0 0 1 41.557 55.89ZM16.533 37.333a3.507 3.507 0 0 1 3.3-2.333h30.334a3.507 3.507 0 0 1 3.3 2.333H16.533Z"/><path d="M30.334 10.5h-3.715a3.5 3.5 0 1 0 0 2.333h3.715a1.167 1.167 0 0 0 0-2.333Zm-7 2.333a1.167 1.167 0 1 1 0-2.333 1.167 1.167 0 0 1 0 2.333Z"/></g><defs><clipPath id="bja"><path fill="#fff" d="M0 0h70v70H0z"/></clipPath></defs></svg><svg fill="none" viewBox="0 0 50 50" id="twitter" xmlns="http://www.w3.org/2000/svg"><g clip-path="url(#bka)"><path d="M25.046 50c13.807 0 25-11.193 25-25s-11.193-25-25-25-25 11.193-25 25 11.193 25 25 25Z" fill="#5B6460"/><path d="M35.046 19.02a8.594 8.594 0 0 1-2.475.678 4.32 4.32 0 0 0 1.895-2.383 8.625 8.625 0 0 1-2.736 1.045 4.31 4.31 0 0 0-7.342 3.93 12.23 12.23 0 0 1-8.88-4.502 4.308 4.308 0 0 0 1.333 5.752 4.278 4.278 0 0 1-1.952-.539v.055a4.31 4.31 0 0 0 3.456 4.224 4.291 4.291 0 0 1-1.945.074 4.313 4.313 0 0 0 4.024 2.992 8.645 8.645 0 0 1-5.35 1.845c-.348 0-.692-.02-1.028-.06a12.187 12.187 0 0 0 6.604 1.935c7.924 0 12.258-6.565 12.258-12.259 0-.186-.004-.372-.012-.557a8.737 8.737 0 0 0 2.15-2.23Z" fill="#E9ECE0"/></g><defs><clipPath id="bka"><path fill="#fff" d="M0 0h50v50H0z"/></clipPath></defs></svg><svg fill="none" viewBox="0 0 48 48" id="visa" xmlns="http://www.w3.org/2000/svg"><g clip-path="url(#bla)" fill="#E9ECE0"><path d="m19.153 16.8-2.431 14.265h3.888L23.043 16.8h-3.89ZM13.462 16.815l-3.808 9.729-.406-1.469c-.75-1.77-2.883-4.312-5.386-5.914l3.482 11.897 4.114-.007 6.123-14.239-4.119.003Z"/><path d="M7.772 17.836c-.226-.869-.881-1.128-1.694-1.159H.05l-.05.284c4.691 1.138 7.795 3.88 9.083 7.177l-1.311-6.302ZM30.923 19.534a7.178 7.178 0 0 1 2.91.546l.351.165.526-3.092c-.77-.289-1.977-.599-3.483-.599-3.842 0-6.55 1.935-6.571 4.708-.025 2.049 1.929 3.193 3.405 3.876 1.515.7 2.023 1.145 2.016 1.77-.012.955-1.208 1.393-2.325 1.393-1.557 0-2.384-.215-3.661-.747l-.501-.228-.547 3.193c.91.399 2.589.742 4.332.76 4.087 0 6.743-1.912 6.771-4.875.017-1.621-1.02-2.858-3.267-3.873-1.36-.662-2.192-1.102-2.184-1.77 0-.593.706-1.227 2.228-1.227ZM44.688 16.815h-3.004c-.933 0-1.627.254-2.037 1.184l-5.773 13.074h4.083s.666-1.758.817-2.143l4.979.006c.116.498.474 2.137.474 2.137h3.607l-3.146-14.258Zm-4.795 9.195c.32-.82 1.549-3.987 1.549-3.987-.021.039.317-.825.518-1.362l.262 1.23.901 4.119h-3.23Z"/></g><defs><clipPath id="bla"><path fill="#fff" d="M0 0h47.834v47.834H0z"/></clipPath></defs></svg><svg fill="none" viewBox="0 0 71 70" id="wifi" xmlns="http://www.w3.org/2000/svg"><g clip-path="url(#bma)" fill="#fff"><path d="M48.56 40.98c-3.629-3.494-8.42-5.419-13.491-5.419-5.073 0-9.864 1.926-13.493 5.422a19.668 19.668 0 0 0-1.864 2.07c-1.33 1.708-1.17 4.159.369 5.706l.008.008a4.293 4.293 0 0 0 3.054 1.267 4.372 4.372 0 0 0 3.456-1.686c.264-.336.552-.661.857-.965a10.692 10.692 0 0 1 7.613-3.146c2.88 0 5.584 1.117 7.613 3.145.303.304.591.629.856.966a4.373 4.373 0 0 0 3.456 1.686 4.291 4.291 0 0 0 3.063-1.275c1.539-1.547 1.698-3.998.368-5.706a19.658 19.658 0 0 0-1.865-2.072Zm.036 6.333-.006.007c-.428.425-.995.66-1.597.66a2.33 2.33 0 0 1-1.84-.902c-.315-.401-.658-.787-1.02-1.148a12.73 12.73 0 0 0-9.064-3.747c-3.43 0-6.65 1.33-9.066 3.747-.362.362-.705.748-1.02 1.148a2.33 2.33 0 0 1-1.84.901 2.252 2.252 0 0 1-1.602-.665c-.815-.815-.904-2.104-.208-2.999a17.668 17.668 0 0 1 1.669-1.853c3.243-3.125 7.53-4.846 12.067-4.846s8.822 1.72 12.065 4.845c.6.578 1.162 1.202 1.67 1.854.697.895.607 2.184-.208 2.998Z"/><path d="M35.068 48.807a6.148 6.148 0 0 0-4.376 1.812 6.147 6.147 0 0 0-1.812 4.376c0 1.653.644 3.207 1.812 4.376a6.148 6.148 0 0 0 4.376 1.812 6.147 6.147 0 0 0 4.376-1.812 6.195 6.195 0 0 0 0-8.752 6.147 6.147 0 0 0-4.376-1.812Zm2.923 9.11a4.107 4.107 0 0 1-2.923 1.212 4.107 4.107 0 0 1-2.923-1.211 4.107 4.107 0 0 1-1.21-2.923c0-1.104.43-2.142 1.21-2.923a4.107 4.107 0 0 1 2.923-1.211c1.104 0 2.142.43 2.923 1.21a4.139 4.139 0 0 1 0 5.847ZM69.003 23.967c-.46-.502-.94-1.004-1.425-1.49-6.687-6.683-15.1-11.098-24.33-12.765a45.756 45.756 0 0 0-26.593 3.118 1.027 1.027 0 1 0 .825 1.881c16.65-7.296 35.745-3.677 48.645 9.22.464.464.923.943 1.362 1.423a2.275 2.275 0 0 1-.082 3.15 2.273 2.273 0 0 1-1.676.673 2.24 2.24 0 0 1-1.618-.732c-.395-.43-.805-.86-1.219-1.274-7.415-7.415-17.295-11.497-27.824-11.497h-.002c-10.53 0-20.411 4.085-27.825 11.501-.414.415-.823.842-1.215 1.27-.42.459-.994.719-1.618.732a2.27 2.27 0 0 1-1.676-.672 2.275 2.275 0 0 1-.083-3.15c.439-.48.896-.957 1.36-1.42a44.205 44.205 0 0 1 10.081-7.56 1.027 1.027 0 1 0-.984-1.803 46.248 46.248 0 0 0-11.972 9.395 4.326 4.326 0 0 0 .145 5.99 4.314 4.314 0 0 0 3.174 1.274 4.277 4.277 0 0 0 3.09-1.4c.37-.405.758-.81 1.15-1.203 7.027-7.028 16.393-10.899 26.373-10.9h.002c9.98 0 19.345 3.87 26.371 10.896.393.393.782.8 1.156 1.208a4.277 4.277 0 0 0 3.089 1.4 4.369 4.369 0 0 0 3.174-1.274 4.326 4.326 0 0 0 .145-5.99Z"/><path d="M57.628 31.3a32.675 32.675 0 0 0-20.583-8.94 1.027 1.027 0 1 0-.122 2.052 30.617 30.617 0 0 1 21.185 10.35 2.298 2.298 0 0 1-.097 3.136 2.26 2.26 0 0 1-1.687.667 2.283 2.283 0 0 1-1.657-.783 26.734 26.734 0 0 0-1.478-1.55c-4.87-4.706-11.305-7.297-18.12-7.298-6.815 0-13.25 2.592-18.12 7.297a26.439 26.439 0 0 0-1.48 1.551 2.282 2.282 0 0 1-1.657.783 2.289 2.289 0 0 1-1.796-3.789 30.598 30.598 0 0 1 21.2-10.363 1.028 1.028 0 0 0-.125-2.05 32.651 32.651 0 0 0-22.62 11.057c-1.502 1.711-1.414 4.316.2 5.93a4.293 4.293 0 0 0 3.207 1.269 4.375 4.375 0 0 0 3.134-1.48c.431-.492.89-.973 1.364-1.43 9.205-8.894 24.181-8.894 33.385 0 .473.457.931.938 1.364 1.43a4.376 4.376 0 0 0 3.133 1.48 4.292 4.292 0 0 0 3.206-1.269 4.357 4.357 0 0 0 .186-5.946 33.397 33.397 0 0 0-2.022-2.103Z"/></g><defs><clipPath id="bma"><path fill="#fff" d="M0 0h70.137v70H0z"/></clipPath></defs></svg></svg>