<?xml version="1.0" encoding="utf-8"?><svg viewBox="0 0 71 66" xmlns="http://www.w3.org/2000/svg" xmlns:xlink="http://www.w3.org/1999/xlink"><style>:root>svg{display:none}:root>svg:target{display:block}</style><svg fill="none" viewBox="0 0 34 17" id="arrow-right" xmlns="http://www.w3.org/2000/svg"><path d="M.62 9.182h31.76c.342 0 .62-.306.62-.682 0-.376-.278-.682-.62-.682H.62c-.342 0-.62.306-.62.682 0 .376.278.682.62.682Z" fill="#EFEFEF"/><path d="M25.154 16a.312.312 0 0 0 .214-.084l7.577-7.214a.283.283 0 0 0 .088-.204.283.283 0 0 0-.088-.203l-7.578-7.21a.313.313 0 0 0-.427 0 .278.278 0 0 0 0 .406l7.364 7.007-7.364 7.01a.278.278 0 0 0 0 .407.31.31 0 0 0 .214.085Z" fill="#EFEFEF" stroke="#EFEFEF" stroke-width=".682"/></svg><svg fill="none" viewBox="0 0 32 32" id="bank-transfer" xmlns="http://www.w3.org/2000/svg"><g clip-path="url(#ba)" fill="#E9ECE0"><path d="M5.853 22.202c.334-.167.982-.49.982-1.64 0-.827-.502-2.056-2.467-2.056H.475v8.013h3.393c1.64 0 2.076-.279 2.533-.728.422-.41.69-1.015.69-1.648 0-.793-.256-1.574-1.238-1.94Zm-3.77-2.309h1.92c.758 0 1.227.2 1.227.858 0 .638-.523.894-1.184.894H2.083v-1.752Zm2.05 5.242h-2.05v-2.143h2.13c.605 0 1.206.271 1.206.971-.002.813-.471 1.172-1.285 1.172ZM.476 27.788v.728h1.24v3.377h.855v-3.377h1.243v-.728H.476ZM28.066 21.787l3.27-3.282h-2.164l-3.058 3.257v-3.257H24.44v8.01h1.674v-2.71l.781-.804 2.476 3.515h2.154l-3.459-4.73ZM12.361 18.505h-1.93l-2.854 8.012H9.34l.557-1.65h2.957l.514 1.649h1.818l-2.824-8.011Zm-2.019 4.976 1.027-3.168h.023l.992 3.168h-2.042ZM19.83 2.805a10.05 10.05 0 0 0-1.706-1.625 7.86 7.86 0 0 0-1.043-.665C16.701.319 16.312.13 15.847 0a6 6 0 0 0 .191 1.324c.094.404.221.783.37 1.147-.355.104-.785.25-1.269.438-.313.14-.656.266-1.002.453-.35.168-.707.372-1.068.6-.367.207-.709.501-1.068.755-.327.311-.686.58-.977.933-.3.338-.595.676-.822 1.06-.115.187-.248.36-.344.551-.092.194-.18.387-.266.575-.195.364-.284.756-.386 1.113A4.516 4.516 0 0 0 9.01 9.97c-.027.319-.094.601-.078.861l.02.662c.011.363.014.57.014.57s.04-.205.105-.562l.121-.636c.037-.245.164-.505.252-.792.094-.287.203-.593.383-.887.164-.299.313-.622.555-.901.11-.143.221-.291.332-.438.117-.143.267-.266.396-.4.254-.277.564-.501.871-.723.293-.233.65-.39.96-.581.351-.141.661-.317 1.007-.419.33-.12.655-.221.973-.293.31-.09.62-.13.891-.188.174-.025.334-.046.488-.065-.018.046-.037.09-.053.137a8.211 8.211 0 0 0-.367 1.367c-.039.243-.07.489-.096.74-.02.255-.024.519-.006.797.261-.1.498-.213.723-.336a8.132 8.132 0 0 0 1.727-1.295 10.267 10.267 0 0 0 1.674-2.13l.06-.098a1.347 1.347 0 0 0-.132-1.555ZM7.578 30.965c0-.766-.184-.892-.52-1.04.405-.137.634-.524.634-.979 0-.354-.199-1.159-1.29-1.159H4.324v4.103h.842v-1.605h.885c.635 0 .67.218.67.776 0 .422.033.636.09.828h.95v-.107c-.184-.068-.184-.218-.184-.817ZM6.17 29.596H5.166v-1.1h1.068c.502 0 .6.318.6.537 0 .404-.217.563-.665.563ZM23.339 28.516v-.728h-2.92v4.106h.858v-1.726h1.806v-.726h-1.806v-.926h2.062ZM24.755 31.165v-1.06h2v-.726h-2v-.862h2.179v-.727h-3.019v4.103h3.115v-.728h-2.275ZM18.69 29.553l-.998-.246c-.172-.041-.436-.11-.436-.43 0-.371.392-.49.715-.49.75 0 .82.433.843.616h.82c-.006-.503-.343-1.325-1.6-1.325-1.332 0-1.578.805-1.578 1.262 0 .904.64 1.055 1.303 1.207l.44.104c.432.105.742.189.742.511 0 .429-.453.529-.855.529-.75 0-.865-.434-.871-.663h-.82c0 .511.255 1.372 1.753 1.372.358 0 1.617-.112 1.617-1.343-.002-.737-.515-.968-1.075-1.104ZM30.982 30.965c0-.766-.186-.892-.52-1.04.403-.137.636-.524.636-.979 0-.354-.2-1.159-1.293-1.159h-2.074v4.103h.842v-1.605h.885c.633 0 .67.218.67.776 0 .422.033.636.091.828h.946v-.107c-.183-.068-.183-.218-.183-.817Zm-1.406-1.369h-1.004v-1.1h1.066c.504 0 .602.318.602.537 0 .404-.217.563-.664.563ZM21.145 18.508v5.578h-.021l-3.181-5.578H16.18v8.012h1.562l.002-5.712h.02l3.27 5.713h1.673v-8.013h-1.562ZM10.473 27.788h-.99L8.02 31.891h.904l.285-.847h1.514l.263.847h.932l-1.444-4.103ZM9.44 30.336l.527-1.622h.008l.511 1.622H9.44ZM14.976 27.788l-.001 2.856h-.01l-1.631-2.856h-.902v4.103h.799v-2.927h.013l1.674 2.927h.859v-4.103h-.801ZM21.957 5.66a25.247 25.247 0 0 0-.035-.568s-.029.205-.09.564c-.029.177-.062.392-.1.639-.03.246-.15.509-.23.799-.082.29-.181.598-.354.898-.154.304-.293.63-.526.917-.105.147-.212.297-.317.449-.116.145-.26.273-.389.411-.244.283-.547.518-.848.748-.283.242-.637.408-.94.609-.346.151-.651.337-.994.448a7.73 7.73 0 0 1-.965.322c-.305.1-.613.149-.883.214a18.02 18.02 0 0 1-.486.08c.014-.047.034-.091.05-.138.143-.439.254-.897.325-1.378.031-.244.054-.491.072-.743.014-.255.01-.52-.015-.796a5.578 5.578 0 0 0-.713.357c-.216.133-.42.271-.621.413-.393.289-.746.6-1.064.933a10.261 10.261 0 0 0-1.61 2.179l-.056.098a1.346 1.346 0 0 0 .178 1.551 10.15 10.15 0 0 0 1.752 1.573c.327.233.678.445 1.063.633.383.186.777.364 1.248.479-.025-.481-.123-.903-.23-1.316a7.58 7.58 0 0 0-.404-1.136 16.37 16.37 0 0 0 1.254-.475c.308-.148.648-.286.988-.483a9.843 9.843 0 0 0 1.046-.631c.36-.218.694-.522 1.047-.787.317-.319.668-.601.948-.961.291-.347.573-.692.79-1.083.11-.191.235-.368.326-.562.085-.197.169-.392.248-.583.184-.37.262-.765.354-1.124a4.55 4.55 0 0 0 .166-1.025c.021-.319.076-.604.055-.863-.017-.255-.03-.478-.04-.662Z"/></g><defs><clipPath id="ba"><path fill="#fff" d="M0 0h32v32H0z"/></clipPath></defs></svg><svg fill="none" viewBox="0 0 25 17" id="gb-flag" xmlns="http://www.w3.org/2000/svg"><path d="M25 .167H0v16.666h25V.167Z" fill="#F0F0F0"/><path d="M14.063.167h-3.126v6.77H0v3.126h10.938v6.771h3.124v-6.771H25V6.938H14.062V.167Z" fill="#D80027"/><path d="M19.229 11.398 25 14.605v-3.207h-5.773ZM15.218 11.398 25 16.833v-1.537l-7.016-3.898h-2.766ZM22.395 16.833l-7.177-3.987v3.987h7.177Z" fill="#0052B4"/><path d="M15.218 11.398 25 16.833v-1.537l-7.016-3.898h-2.766Z" fill="#F0F0F0"/><path d="M15.218 11.398 25 16.833v-1.537l-7.016-3.898h-2.766Z" fill="#D80027"/><path d="M4.411 11.398 0 13.848v-2.45h4.411ZM9.783 12.09v4.743H1.245l8.538-4.744Z" fill="#0052B4"/><path d="M7.016 11.398 0 15.296v1.537l9.783-5.435H7.016Z" fill="#D80027"/><path d="M5.772 5.601 0 2.395V5.6h5.772ZM9.783 5.601 0 .167v1.536l7.016 3.898h2.767ZM2.605.167l7.178 3.987V.167H2.605Z" fill="#0052B4"/><path d="M9.783 5.601 0 .167v1.536l7.016 3.898h2.767Z" fill="#F0F0F0"/><path d="M9.783 5.601 0 .167v1.536l7.016 3.898h2.767Z" fill="#D80027"/><path d="M20.589 5.601 25 3.151V5.6h-4.411ZM15.218 4.91V.167h8.538L15.218 4.91Z" fill="#0052B4"/><path d="M17.984 5.601 25 1.703V.167L15.218 5.6h2.766Z" fill="#D80027"/></svg><svg fill="none" viewBox="0 0 25 17" id="germany-flag" xmlns="http://www.w3.org/2000/svg"><path d="M25 .167H0v16.665h25V.167Z" fill="#D80027"/><path d="M25 .167H0v5.555h25V.167Z" fill="#000"/><path d="M25 11.277H0v5.556h25v-5.556Z" fill="#FFDA44"/></svg><svg fill="none" viewBox="0 0 71 66" id="logo" xmlns="http://www.w3.org/2000/svg"><path d="M4.228 59.849v-.82H0v.82h1.657v5.2h.914v-5.2h1.657ZM9.873 65.05v-6.021H8.96v2.57H6.516v-2.57h-.913v6.02h.913v-2.63H8.96v2.63h.913ZM15.636 65.05v-.82H12.7v-1.81h2.503v-.812h-2.503v-1.76h2.935v-.82h-3.848v6.021h3.848ZM23.735 62.715v-.921h-2.199v.778h1.286v.338c0 .197-.023.372-.068.524a1.197 1.197 0 0 1-.668.736c-.169.073-.352.11-.55.11a1.31 1.31 0 0 1-.498-.093 1.204 1.204 0 0 1-.576-.524 1.573 1.573 0 0 1-.11-.347 5.166 5.166 0 0 1-.05-.516 14.12 14.12 0 0 1-.017-.761c0-.304.006-.555.017-.753.011-.203.028-.372.05-.507.029-.14.065-.257.11-.347.051-.096.113-.183.186-.262a1.205 1.205 0 0 1 .888-.372c.339 0 .615.093.83.28.213.18.36.436.439.769h.922a2.622 2.622 0 0 0-.237-.728 2.006 2.006 0 0 0-1.1-.989 2.24 2.24 0 0 0-.854-.152c-.32 0-.614.056-.879.169-.26.107-.493.265-.702.474-.146.146-.26.301-.338.465a2.28 2.28 0 0 0-.178.532 4.319 4.319 0 0 0-.059.643 32.412 32.412 0 0 0 0 1.564c.006.232.025.443.06.635.039.191.098.369.177.532.079.164.191.319.338.466.209.208.446.369.71.482.265.107.556.16.871.16.322 0 .62-.053.897-.16a2.1 2.1 0 0 0 .76-.525 1.82 1.82 0 0 0 .415-.719c.085-.264.127-.591.127-.98ZM29.235 65.05v-.82h-2.9v-5.202h-.914v6.021h3.814ZM35.047 65.05l-2.207-6.021h-.736l-2.207 6.02h.972l.415-1.209h2.376l.414 1.21h.973Zm-1.64-1.988h-1.853l.939-2.672.913 2.672ZM40.002 63.333c0-.26-.042-.493-.127-.702a1.344 1.344 0 0 0-.363-.533 1.56 1.56 0 0 0-.449-.27 2.892 2.892 0 0 0-.676-.178l-.685-.102c-.293-.045-.519-.138-.676-.279a.738.738 0 0 1-.178-.245.934.934 0 0 1-.05-.313c0-.27.092-.493.278-.668.192-.18.465-.27.82-.27.254 0 .488.033.702.101.22.062.423.183.61.364l.583-.575a2.441 2.441 0 0 0-.829-.524 3.03 3.03 0 0 0-1.04-.161c-.316 0-.598.042-.846.127-.248.084-.46.205-.634.363-.17.158-.302.347-.397.567-.09.214-.136.45-.136.71 0 .49.147.874.44 1.15.27.254.651.415 1.142.482l.71.102c.18.028.316.059.406.093a.77.77 0 0 1 .254.16c.157.141.236.35.236.626 0 .293-.11.522-.33.685-.214.158-.518.237-.913.237-.31 0-.589-.04-.837-.118a1.836 1.836 0 0 1-.702-.457l-.609.6c.288.293.6.5.939.618.338.118.736.177 1.192.177.316 0 .606-.04.871-.118a2.01 2.01 0 0 0 .685-.347 1.597 1.597 0 0 0 .61-1.302ZM45.246 63.333c0-.26-.042-.493-.127-.702a1.343 1.343 0 0 0-.364-.533 1.562 1.562 0 0 0-.448-.27 2.893 2.893 0 0 0-.676-.178l-.685-.102c-.293-.045-.519-.138-.677-.279a.738.738 0 0 1-.177-.245.934.934 0 0 1-.051-.313c0-.27.093-.493.279-.668.192-.18.465-.27.82-.27.254 0 .488.033.702.101.22.062.423.183.609.364l.583-.575a2.44 2.44 0 0 0-.828-.524 3.03 3.03 0 0 0-1.04-.161c-.316 0-.598.042-.846.127-.248.084-.46.205-.634.363-.17.158-.302.347-.398.567-.09.214-.135.45-.135.71 0 .49.147.874.44 1.15.27.254.65.415 1.141.482l.71.102c.181.028.316.059.406.093a.77.77 0 0 1 .254.16c.158.141.237.35.237.626 0 .293-.11.522-.33.685-.214.158-.519.237-.913.237-.31 0-.59-.04-.837-.118a1.836 1.836 0 0 1-.702-.457l-.609.6c.287.293.6.5.939.618.338.118.735.177 1.192.177.316 0 .606-.04.871-.118.265-.08.493-.195.685-.347a1.597 1.597 0 0 0 .609-1.302ZM53.45 65.05v-6.021h-.914v2.57h-2.444v-2.57h-.913v6.02h.913v-2.63h2.444v2.63h.913ZM59.592 63.02v-3.992h-.913v3.95c0 .406-.116.724-.347.955-.225.231-.527.347-.905.347-.377 0-.68-.116-.905-.347-.225-.23-.338-.55-.338-.955v-3.95h-.913v3.992c0 .31.053.595.16.854.113.254.266.47.457.651.192.18.42.322.685.423.265.102.55.152.854.152.305 0 .59-.05.854-.152.265-.101.494-.242.685-.423.198-.18.35-.397.457-.65.113-.26.17-.545.17-.855ZM65.104 59.849v-.82h-4.228v.82h1.657v5.2h.914v-5.2h1.657ZM70.242 63.333c0-.26-.042-.493-.127-.702a1.343 1.343 0 0 0-.364-.533 1.56 1.56 0 0 0-.448-.27 2.892 2.892 0 0 0-.676-.178l-.685-.102c-.293-.045-.519-.138-.677-.279a.738.738 0 0 1-.177-.245.934.934 0 0 1-.051-.313c0-.27.093-.493.279-.668.192-.18.465-.27.82-.27.254 0 .488.033.702.101.22.062.423.183.609.364l.584-.575a2.442 2.442 0 0 0-.83-.524 3.03 3.03 0 0 0-1.04-.161c-.315 0-.597.042-.845.127-.248.084-.46.205-.634.363-.17.158-.302.347-.398.567-.09.214-.135.45-.135.71 0 .49.147.874.44 1.15.27.254.65.415 1.141.482l.71.102c.181.028.316.059.407.093.09.034.174.087.253.16.158.141.237.35.237.626 0 .293-.11.522-.33.685-.214.158-.518.237-.913.237-.31 0-.59-.04-.837-.118a1.836 1.836 0 0 1-.702-.457l-.609.6c.288.293.6.5.939.618.338.118.735.177 1.192.177.316 0 .606-.04.871-.118.265-.08.493-.195.685-.347a1.597 1.597 0 0 0 .609-1.302Z" fill="#333"/><path fill-rule="evenodd" clip-rule="evenodd" d="M37.728 45.144 69.48 49.96V21.426L37.049 5.02 16.895.84.787 13.892V49.12l36.941-3.976ZM.007 49.989V13.52L16.69 0 37.31 4.278 70.26 20.946v29.923L37.711 45.93.007 49.989Z" fill="#333"/><path fill-rule="evenodd" clip-rule="evenodd" d="m66.69 24.209-6.504 6.765-.563-.541 6.505-6.765.563.54ZM48.694 32.736l5.724 4.424-.477.617-5.724-4.423.477-.618Z" fill="#333"/><path fill-rule="evenodd" clip-rule="evenodd" d="M59.389 49.178V8.196h.78v40.982h-.78ZM53.713 26.82V1.04h.78v25.78h-.78Z" fill="#333"/><path fill-rule="evenodd" clip-rule="evenodd" d="M53.713 54.902V24.068h.78v30.834h-.78ZM67.45 27.971h-4.424v-.78h4.424v.78ZM16.4 47.746V.521h.78v47.225h-.78ZM36.955 45.665V4.684h.78v40.98h-.78Z" fill="#333"/></svg><svg fill="none" viewBox="0 0 49 49" id="mastercard" xmlns="http://www.w3.org/2000/svg"><g clip-path="url(#fa)" fill="#E9ECE0"><path d="M33.933 9.716a14.433 14.433 0 0 0-9.721 3.748 14.442 14.442 0 0 0-9.717-3.745h-.093C6.444 9.771 0 16.245 0 24.214c0 8.001 6.494 14.494 14.494 14.494 3.737 0 7.145-1.417 9.716-3.745a14.336 14.336 0 0 1-1.482-1.584h2.993a14.492 14.492 0 0 1-1.472 1.553h-.002c-.012.013-.025.021-.037.032a14.44 14.44 0 0 0 9.728 3.75c8.005-.004 14.492-6.496 14.49-14.5v-.007c.001-8.004-6.49-14.493-14.495-14.49Zm-11.039 5.245h2.755c.406.492.783 1.01 1.125 1.552h-4.915a21.68 21.68 0 0 1 1.035-1.552Zm-1.891 3.074h6.607c.235.502.443 1.021.625 1.553H20.22c.08-.15.36-.754.783-1.553ZM5.917 27.906l.879-5.542-1.983 5.542H3.75l-.138-5.542-.939 5.542H1.184l1.234-7.35H4.67l.079 4.51 1.521-4.51h2.443l-1.217 7.35H5.917Zm5.265-.012.051-.587c-.024.003-.494.71-1.583.71-.57 0-1.49-.312-1.49-1.664 0-1.719 1.402-2.289 2.737-2.289.21 0 .663.038.663.038s.051-.105.051-.389c0-.467-.42-.53-.995-.53-1.013 0-1.682.27-1.682.27l.224-1.33s.812-.34 1.869-.34c.547 0 2.12.058 2.12 1.861l-.606 4.25h-1.359Zm5.743-1.872c0 2.051-1.987 1.963-2.334 1.963-1.295 0-1.695-.179-1.732-.189l.206-1.35c.002-.012.65.235 1.371.235.416 0 .956-.04.956-.538 0-.744-1.932-.566-1.932-2.333 0-1.559 1.158-2.015 2.3-2.015.882 0 1.424.121 1.424.121l-.195 1.362s-.837-.069-1.054-.069c-.549 0-.848.12-.848.504-.001.772 1.838.394 1.838 2.31Zm2.386.538c.137 0 .292-.047.398-.047l-.193 1.311c-.155.043-.594.2-1.157.203-.719.006-1.23-.396-1.23-1.308 0-.612.877-5.655.911-5.688h1.543l-.157.902h.77l-.197 1.453h-.817l-.434 2.677c-.033.213.026.497.563.497Zm3.394-4.797c1.694 0 2.201 1.24 2.201 2.257 0 .407-.204 1.407-.204 1.407h-3.136s-.29 1.235 1.367 1.235c.777 0 1.639-.38 1.639-.38L24.3 27.77s-.498.254-1.63.254c-1.227 0-2.666-.519-2.666-2.699.001-1.889 1.149-3.56 2.701-3.56Zm4.087 10.123H21.65c-.313-.5-.605-1.013-.856-1.552h6.843a14.886 14.886 0 0 1-.845 1.552Zm-.345-3.969h-1.584l.963-5.982h1.437l-.138.867s.512-.943 1.203-.943c.201 0 .298.02.298.02-.205.418-.386.801-.574 1.79-1.072-.38-1.154 1.693-1.605 4.248Zm6.035-.093s-.83.212-1.35.212c-1.842 0-2.777-1.27-2.777-3.196 0-2.903 1.733-4.449 3.514-4.449.805 0 1.738.378 1.738.378l-.252 1.635s-.631-.44-1.416-.44c-1.05 0-1.992 1.001-1.992 2.822 0 .897.439 1.733 1.535 1.733.521 0 1.276-.379 1.276-.379l-.276 1.684Zm3.715.073.052-.59c-.025.002-.495.708-1.583.708-.57 0-1.49-.31-1.49-1.663 0-1.719 1.402-2.289 2.736-2.289.21 0 .664.038.664.038s.052-.104.052-.388c0-.467-.42-.53-.996-.53-1.013 0-1.681.27-1.681.27l.224-1.33s.812-.34 1.87-.34c.546 0 2.12.058 2.119 1.861l-.606 4.25c-.001.003-1.361.003-1.361.003Zm3.207.02H37.82l.963-5.982h1.438l-.138.867s.513-.943 1.204-.943c.201 0 .297.02.297.02-.204.418-.387.801-.574 1.79-1.073-.38-1.155 1.693-1.606 4.248Zm4.729-.016.067-.55s-.512.645-1.438.645c-1.283 0-1.912-1.239-1.912-2.505 0-1.958 1.178-3.665 2.592-3.665.91.002 1.491.805 1.491.805l.334-2.065 1.547-.003-1.18 7.338h-1.501Zm3.052-.207a.461.461 0 0 1-.406.237.471.471 0 0 1-.404-.237.464.464 0 0 1 0-.466.475.475 0 0 1 .404-.236c.08 0 .156.021.23.062a.461.461 0 0 1 .176.64ZM47.06 32.117c-.01-.007-.018-.018-.034-.024a.244.244 0 0 0-.08-.009h-.094v.15h.1c.047 0 .078-.004.096-.021a.066.066 0 0 0 .025-.055.075.075 0 0 0-.012-.041Z"/><path d="M47.384 32.027a.43.43 0 0 0-.177-.174.472.472 0 0 0-.23-.062.467.467 0 0 0-.23.062.434.434 0 0 0-.175.174.472.472 0 0 0 .408.701.468.468 0 0 0 .404-.701Zm-.288.492-.044-.079a.418.418 0 0 0-.086-.119.11.11 0 0 0-.064-.018h-.047v.215h-.082v-.505h.174c.06 0 .103.005.127.015.027.01.05.024.064.049a.127.127 0 0 1 .023.074.144.144 0 0 1-.04.097.162.162 0 0 1-.104.046.11.11 0 0 1 .043.027.59.59 0 0 1 .075.099l.062.099h-.101ZM11.022 25.21c-1.13 0-1.36.509-1.36.932 0 .218.125.582.604.582.93 0 1.122-1.218 1.092-1.477-.044-.01-.072-.035-.336-.036ZM22.711 23.144c-.841 0-1.003.957-1.003 1.058h1.713c0-.077.161-1.058-.71-1.058ZM43.71 23.311c-.68 0-1.217.788-1.216 1.985 0 .73.26 1.198.816 1.198.836 0 1.24-1.091 1.24-1.904 0-.897-.286-1.279-.84-1.279ZM47.115 27.268a.377.377 0 0 0-.146-.145.381.381 0 0 0-.528.145.403.403 0 0 0-.053.195c0 .067.018.133.05.194a.409.409 0 0 0 .34.2c.067 0 .133-.02.193-.054a.388.388 0 0 0 .144-.535Zm-.217.452-.045-.078a.404.404 0 0 0-.084-.118.102.102 0 0 0-.066-.019h-.046v.214h-.084v-.504h.175c.059 0 .103.005.128.016a.143.143 0 0 1 .064.048.116.116 0 0 1 .023.074.136.136 0 0 1-.04.096c-.026.029-.062.041-.104.046.02.008.033.017.043.026a.51.51 0 0 1 .074.099l.062.1h-.1ZM36.039 25.21c-1.131 0-1.36.509-1.36.932 0 .218.124.582.604.582.929 0 1.12-1.218 1.092-1.477-.045-.01-.073-.035-.336-.036Z"/><path d="M46.864 27.318a.091.091 0 0 0-.034-.025.283.283 0 0 0-.082-.01v.001h-.09v.152h.098c.047 0 .078-.006.097-.021a.078.078 0 0 0 .024-.056.067.067 0 0 0-.013-.041Z"/></g><defs><clipPath id="fa"><path fill="#fff" d="M0 0h48.428v48.428H0z"/></clipPath></defs></svg><svg fill="none" viewBox="0 0 25 17" id="norway-flag" xmlns="http://www.w3.org/2000/svg"><path d="M25 .167H0v16.666h25V.167Z" fill="#D80027"/><path d="M9.375.167H6.25v6.77H0v3.126h6.25v6.771h3.125v-6.771H25V6.938H9.375V.167Z" fill="#F0F0F0"/></svg><svg fill="none" viewBox="0 0 51 51" id="paypal" xmlns="http://www.w3.org/2000/svg"><g clip-path="url(#ha)" fill="#E9ECE0"><path d="M9.035 20.604a2.043 2.043 0 0 0-.75-.809 3.513 3.513 0 0 0-1.193-.438 9.75 9.75 0 0 0-1.621-.128l-2.867.002a.718.718 0 0 0-.66.524l-1.93 8.402c-.07.284.118.522.416.522h1.373a.703.703 0 0 0 .659-.522l.47-2.04a.703.703 0 0 1 .659-.521h.393c1.679-.002 2.979-.345 3.913-1.032.939-.688 1.402-1.597 1.402-2.723-.001-.493-.082-.907-.264-1.237Zm-2.961 2.745c-.415.304-.992.456-1.736.456h-.336c-.3 0-.482-.236-.417-.524l.413-1.784c.058-.286.359-.523.654-.521l.45-.003c.525 0 .926.091 1.194.267.265.174.398.451.396.818.008.558-.205.987-.618 1.291ZM48.175 19.887l-.086.026-.115.016-.141-.022-.072-.07-.033-.11-.002-.165v-.61h.459v-.19h-.46v-.38H47.5v.38h-.154v.19h.154v.71l.106.352.312.112.13-.01.14-.028v-.2h-.012ZM50.304 18.86l-.328-.136-.242.05-.246.165-.143-.159-.232-.055-.223.05-.21.135v-.148h-.224v1.335h.222V19.1l.187-.116.186-.046.152.027.075.077.033.128.011.165v.763h.223v-.854l-.004-.07-.004-.066.19-.12.188-.048.147.027.08.077.028.13.015.162v.763h.224v-.867l-.105-.373ZM15.656 21.805c-.518-.292-1.336-.438-2.454-.438-.553 0-1.104.043-1.66.129-.412.063-.452.075-.705.13-.522.114-.604.635-.604.635l-.168.69c-.095.442.16.425.265.388.228-.068.355-.138.821-.242.445-.101.914-.177 1.286-.172.55 0 .97.058 1.25.176.275.12.413.326.413.624l-.024.194-.198.122c-.779.049-1.342.12-2.025.22-.668.093-1.254.256-1.74.479-.524.23-.912.539-1.183.932-.262.395-.393.874-.393 1.436 0 .529.19.966.56 1.304.37.332.86.494 1.446.494.371-.002.658-.031.862-.08l.665-.23.563-.311.518-.342.007.01-.052.22-.003.009v.002c-.056.268.106.488.367.514l.005.006h1.275l.018-.008a.71.71 0 0 0 .591-.514l1.001-4.333.052-.353.024-.331c.004-.614-.26-1.07-.78-1.36Zm-2.214 4.872-.214.282-.54.279a1.923 1.923 0 0 1-.718.155c-.338 0-.603-.05-.782-.15l-.265-.514c0-.28.064-.5.201-.67l.582-.396c.25-.084.553-.155.905-.204.314-.04.934-.11 1.015-.112l.095.167c-.019.095-.195.83-.279 1.163ZM40.594 21.811c-.521-.292-1.338-.439-2.453-.439-.553 0-1.105.043-1.66.132-.412.06-.453.073-.707.127-.521.113-.602.636-.602.636l-.168.69c-.094.441.154.421.27.387.229-.068.352-.135.814-.243.443-.1.916-.174 1.289-.172.547 0 .967.06 1.246.177.278.12.414.328.414.623l-.021.193-.196.125c-.787.047-1.351.12-2.027.218-.666.093-1.254.255-1.742.48-.521.23-.914.54-1.182.933-.265.395-.394.873-.394 1.43 0 .533.188.97.562 1.306.373.331.858.497 1.444.497.369-.004.656-.028.86-.08l.664-.227.568-.312.514-.346.009.011-.047.222-.005.004.002.004c-.062.268.1.49.365.514l.002.005h1.274l.02-.007a.703.703 0 0 0 .585-.518l1.004-4.327.053-.355.029-.332c0-.612-.261-1.065-.784-1.356Zm-2.21 4.872-.222.285-.535.277a1.945 1.945 0 0 1-.715.155c-.35 0-.607-.05-.781-.15l-.268-.513c0-.28.065-.499.196-.672.133-.163.336-.297.588-.395a5.1 5.1 0 0 1 .904-.203c.312-.039.93-.112 1.01-.113l.097.167c-.014.095-.191.828-.273 1.162ZM33.969 20.635a2.124 2.124 0 0 0-.756-.812 3.37 3.37 0 0 0-1.193-.438 9.44 9.44 0 0 0-1.615-.126l-2.871.002a.713.713 0 0 0-.655.522l-1.931 8.406c-.07.285.122.521.414.521l1.375-.002a.712.712 0 0 0 .66-.52l.465-2.041a.712.712 0 0 1 .66-.521h.393c1.681 0 2.984-.346 3.922-1.031.927-.693 1.396-1.6 1.396-2.727-.005-.491-.09-.906-.264-1.233Zm-2.961 2.749c-.414.298-.992.45-1.732.45h-.342a.411.411 0 0 1-.42-.523l.416-1.781a.698.698 0 0 1 .656-.521l.445-.003c.528.003.924.09 1.194.266.269.176.396.452.399.818.003.558-.204.988-.616 1.294ZM45.742 19.85c.063-.287-.117-.52-.412-.516H44.1c-.252 0-.479.187-.59.417l-.068.106-.062.272-1.719 7.814-.056.24.002.006c-.057.257.101.451.345.488l.021.029h1.277c.25 0 .485-.19.592-.424l.066-.1 1.838-8.331-.004-.001ZM24.986 21.472c-.325.004-1.646 0-1.646 0-.296 0-.676.239-.864.524 0 0-1.966 3.374-2.157 3.713l-.228-.003-.612-3.687c-.068-.29-.37-.538-.748-.538l-1.23.002c-.296 0-.478.236-.41.524 0 0 .933 5.315 1.12 6.566.087.69-.01.813-.01.813l-1.217 2.118c-.18.288-.083.523.212.523l1.422-.002c.296 0 .685-.233.861-.522l5.47-9.252c0 .001.526-.79.037-.779Z"/></g><defs><clipPath id="ha"><path fill="#fff" d="M0 0h50.409v50.409H0z"/></clipPath></defs></svg><svg fill="none" viewBox="0 0 48 48" id="visa" xmlns="http://www.w3.org/2000/svg"><g clip-path="url(#ia)" fill="#E9ECE0"><path d="m19.153 16.8-2.431 14.265h3.888L23.043 16.8h-3.89ZM13.462 16.815l-3.808 9.729-.406-1.469c-.75-1.77-2.883-4.312-5.386-5.914l3.482 11.897 4.114-.007 6.123-14.239-4.119.003Z"/><path d="M7.772 17.836c-.226-.869-.881-1.128-1.694-1.159H.05l-.05.284c4.691 1.138 7.795 3.88 9.083 7.177l-1.311-6.302ZM30.923 19.534a7.178 7.178 0 0 1 2.91.546l.351.165.526-3.092c-.77-.289-1.977-.599-3.483-.599-3.842 0-6.55 1.935-6.571 4.708-.025 2.049 1.929 3.193 3.405 3.876 1.515.7 2.023 1.145 2.016 1.77-.012.955-1.208 1.393-2.325 1.393-1.557 0-2.384-.215-3.661-.747l-.501-.228-.547 3.193c.91.399 2.589.742 4.332.76 4.087 0 6.743-1.912 6.771-4.875.017-1.621-1.02-2.858-3.267-3.873-1.36-.662-2.192-1.102-2.184-1.77 0-.593.706-1.227 2.228-1.227ZM44.688 16.815h-3.004c-.933 0-1.627.254-2.037 1.184l-5.773 13.074h4.083s.666-1.758.817-2.143l4.979.006c.116.498.474 2.137.474 2.137h3.607l-3.146-14.258Zm-4.795 9.195c.32-.82 1.549-3.987 1.549-3.987-.021.039.317-.825.518-1.362l.262 1.23.901 4.119h-3.23Z"/></g><defs><clipPath id="ia"><path fill="#fff" d="M0 0h47.834v47.834H0z"/></clipPath></defs></svg></svg>