<svg width="35" height="36" viewBox="0 0 35 36" fill="none" xmlns="http://www.w3.org/2000/svg">
<g clip-path="url(#clip0_1_3120)">
<path d="M13.834 12.8557L12.0781 23.1596H14.8863L16.6436 12.8557H13.834Z" fill="#5B6460"/>
<path d="M9.72287 12.8673L6.97246 19.8943L6.67922 18.8332C6.13679 17.5548 4.59691 15.7188 2.78906 14.5617L5.30401 23.1546L8.27544 23.1495L12.6979 12.8651L9.72287 12.8673Z" fill="#5B6460"/>
<path d="M5.6135 13.6047C5.45026 12.977 4.97718 12.79 4.38997 12.7676H0.0361136L0 12.9727C3.38818 13.7946 5.63011 15.7751 6.56039 18.1564L5.6135 13.6047Z" fill="#5B6460"/>
<path d="M22.3351 14.8312C23.2538 14.8168 23.9197 15.0175 24.4369 15.2256L24.6904 15.3447L25.0703 13.1115C24.5141 12.9027 23.6424 12.6788 22.5546 12.6788C19.7797 12.6788 17.8237 14.0764 17.8086 16.0793C17.7905 17.5592 19.2018 18.3855 20.2679 18.8788C21.3622 19.3844 21.7291 19.7058 21.724 20.1572C21.7153 20.847 20.8515 21.1634 20.0447 21.1634C18.9202 21.1634 18.3228 21.0081 17.4005 20.6238L17.0386 20.4591L16.6436 22.7654C17.3008 23.0535 18.5135 23.3013 19.7724 23.3143C22.7244 23.3143 24.6427 21.9333 24.6629 19.7932C24.6752 18.6224 23.9262 17.729 22.3033 16.9959C21.321 16.5177 20.7201 16.1999 20.7258 15.7174C20.7258 15.2891 21.2358 14.8312 22.3351 14.8312Z" fill="#5B6460"/>
<path d="M32.2765 12.8673H30.1068C29.4329 12.8673 28.9316 13.0508 28.6355 13.7225L24.4658 23.1655H27.4149C27.4149 23.1655 27.8959 21.8957 28.005 21.6176C28.3278 21.6176 31.1931 21.622 31.6011 21.622C31.6849 21.9817 31.9435 23.1655 31.9435 23.1655H34.5487L32.2765 12.8673ZM28.8132 19.5086C29.0443 18.9171 29.932 16.6289 29.932 16.6289C29.9168 16.6571 30.1609 16.033 30.3061 15.6452L30.4953 16.5336C30.4953 16.5336 31.0334 18.9936 31.1461 19.5086H28.8132Z" fill="#5B6460"/>
</g>
<defs>
<clipPath id="clip0_1_3120">
<rect width="34.5491" height="34.5491" fill="white" transform="translate(0 0.72229)"/>
</clipPath>
</defs>
</svg>
